<svg width="70" height="46" viewBox="0 0 70 46" fill="none" xmlns="http://www.w3.org/2000/svg">
<path d="M15.8345 32.6835C17.4144 32.2386 18.8216 32.0631 20.0446 32.6291C21.275 33.1984 22.0533 34.3929 22.7216 35.9536L22.7223 35.9552L22.7272 35.9668C22.9268 36.435 23.0796 36.7934 23.2848 37.0957L23.2864 37.0981C23.4307 37.312 23.5499 37.4686 23.6538 37.5766C23.6633 37.5865 23.6722 37.5954 23.6805 37.6036L63.1686 11.587C63.1683 11.5871 63.1681 11.5872 63.1678 11.5873L62.7837 10.664M15.8345 32.6835C15.8347 32.6835 15.8348 32.6834 15.835 32.6834L16.1056 33.6461L15.8345 32.6835ZM15.8345 32.6835C15.1667 32.8711 14.205 32.7857 13.497 32.4864M13.497 32.4864C11.6029 31.6825 9.77194 30.7423 7.9036 29.783C7.44095 29.5454 6.97601 29.3067 6.50726 29.0686M13.497 32.4864L13.1063 33.4069M13.497 32.4864C13.4967 32.4862 13.4964 32.4861 13.4961 32.486L13.1063 33.4069M6.50726 29.0686C6.38375 26.8534 4.78448 25.6781 3.56823 24.832L3.5666 24.8309C2.58645 24.1519 2.30143 23.1592 2.15967 21.7203L2.15957 21.7193C2.14262 21.549 2.12566 21.3788 2.10871 21.2086C1.90077 19.1212 1.69349 17.0406 1.52072 14.9605L1.52053 14.9583C1.48333 14.522 1.50979 14.1831 1.59264 13.9808M6.50726 29.0686C6.50728 29.0689 6.5073 29.0693 6.50732 29.0697C6.50916 29.0711 6.51007 29.0717 6.50999 29.0716C6.50992 29.0716 6.50905 29.0709 6.50733 29.0698C6.51083 29.1328 6.51313 29.1966 6.5142 29.2613C6.51304 29.192 6.50198 29.1384 6.4927 29.1045C6.48946 29.0926 6.48615 29.0821 6.48297 29.073C6.48199 29.0702 6.48103 29.0675 6.48009 29.0649C6.47517 29.0516 6.47078 29.0417 6.4678 29.0355C6.46264 29.0246 6.45927 29.0193 6.45893 29.0188C6.45863 29.0183 6.46083 29.0218 6.46646 29.0288C6.47709 29.042 6.49051 29.0556 6.50229 29.0655C6.50285 29.066 6.50338 29.0665 6.50388 29.0669C6.50501 29.0674 6.50613 29.068 6.50726 29.0686ZM1.59264 13.9808C2.40111 12.0131 3.23957 10.0602 4.08149 8.09925C4.39338 7.37282 4.70574 6.64528 5.01724 5.91548L5.01773 5.91431L5.01805 5.91357C5.47497 4.83925 5.93179 3.76518 6.45542 2.5367M1.59264 13.9808L0.667692 13.6007L1.59284 13.9803C1.59277 13.9804 1.5927 13.9806 1.59264 13.9808ZM6.45542 2.5367C6.73252 2.81486 7.02856 3.11157 7.35752 3.44053L8.56377 4.64678L9.02705 3.005C9.17202 2.49125 9.32753 1.95298 9.513 1.31306M6.45542 2.5367C6.59157 2.21729 6.73224 1.88743 6.8786 1.54442L0.667672 13.6007C1.47936 11.6252 2.32246 9.66154 3.16542 7.69816C3.47666 6.97323 3.78789 6.24835 4.09751 5.52292L4.09789 5.52203C4.6004 4.34052 5.10294 3.15896 5.69442 1.77183C5.93885 2.01773 6.18834 2.2686 6.45542 2.5367ZM9.513 1.31306C9.63547 1.3396 9.75202 1.36507 9.85753 1.3894C10.265 1.48337 10.6192 1.58223 10.9346 1.71879M9.513 1.31306C9.48608 1.30723 9.45887 1.30134 9.43143 1.29541C9.14711 1.23393 8.83781 1.16704 8.56365 1.09573L8.81537 0.12793L9.77588 0.406149C9.71672 0.610422 9.66045 0.804479 9.60668 0.989918C9.57459 1.10059 9.54339 1.20819 9.513 1.31306ZM10.9346 1.71879C16.3934 4.08921 22.0619 5.65039 27.9435 6.50507C28.7706 6.62585 29.5858 6.85538 30.4707 7.10457C30.6598 7.15782 30.8521 7.21196 31.0484 7.26614C32.1242 7.56308 33.302 7.85411 34.5175 7.86245L34.5184 7.86246C37.4123 7.87989 39.9209 8.88752 42.6482 9.98293C43.1537 10.186 43.6667 10.392 44.1911 10.5954L44.1921 10.5958C44.6611 10.777 45.109 10.9394 45.5451 11.0975C46.2989 11.3708 47.0173 11.6312 47.7475 11.954L47.7484 11.9544C48.663 12.3575 48.8305 12.5449 48.8835 12.6443C48.9418 12.7536 48.9984 13.0073 48.8484 14.0038L48.6601 15.2537L49.9198 15.1493C50.4828 15.1026 50.7006 15.1931 50.7621 15.2296L50.7625 15.2298C50.7892 15.2457 50.8355 15.2732 50.8805 15.4415C50.9348 15.6446 50.9519 15.9248 50.9538 16.3434C50.9541 16.4064 50.9541 16.4732 50.954 16.5431C50.9536 16.886 50.9531 17.3022 50.9961 17.692L51.0941 18.5825H51.9901C52.0782 18.5825 52.1841 18.5908 52.3254 18.6059C52.3573 18.6093 52.3935 18.6133 52.4323 18.6177C52.5422 18.63 52.6736 18.6448 52.7917 18.654C53.0607 18.6751 53.6522 18.7157 54.1501 18.3735L54.1548 18.3701C56.0154 17.075 57.8205 15.7044 59.6076 14.3474C59.8412 14.17 60.0745 13.9929 60.3076 13.8162C60.3076 13.8162 60.3076 13.8161 60.3077 13.8161L59.7035 13.0192M10.9346 1.71879C10.9345 1.71874 10.9343 1.71869 10.9342 1.71863L11.3325 0.801384L10.9351 1.71899C10.9349 1.71892 10.9347 1.71886 10.9346 1.71879ZM59.7035 13.0192C60.0545 12.7531 60.389 12.4519 60.723 12.1511C61.3728 11.5658 62.0205 10.9824 62.7837 10.664M59.7035 13.0192C59.4697 13.1965 59.2361 13.3738 59.0025 13.5512C57.2136 14.9096 55.4259 16.2669 53.5835 17.5494L59.7035 13.0192ZM62.7837 10.664C64.2521 10.0531 65.2825 9.34653 65.7609 7.74569M62.7837 10.664L63.1688 11.5869C63.9421 11.2651 64.6889 10.8834 65.3143 10.3177C65.9583 9.73523 66.4304 8.99777 66.719 8.03203L66.7195 8.03039C66.7746 7.84497 66.8272 7.70718 66.873 7.60708C66.9763 7.69542 67.1079 7.82701 67.2682 8.01637L67.2684 8.01663C67.7788 8.61925 68.1095 9.0532 68.3056 9.39356C68.5 9.73108 68.4982 9.86893 68.4942 9.90656C68.4912 9.93571 68.4732 10.0527 68.2295 10.3079C67.9786 10.5707 67.5778 10.8879 66.9603 11.3211L66.9598 11.3215C66.478 11.66 66.0382 11.9854 65.7147 12.3191C65.3779 12.6665 65.0747 13.1161 65.0346 13.7078C64.9966 14.2676 65.2094 14.7688 65.4548 15.1935C65.5593 15.3744 65.684 15.5647 65.8253 15.7653C65.3747 16.0427 64.9186 16.327 64.4776 16.6217C64.3536 16.704 64.2005 16.7902 64.0065 16.8962C63.9828 16.9092 63.9583 16.9226 63.9332 16.9362C63.767 17.0268 63.5743 17.1318 63.3944 17.2413C63.1878 17.3671 62.9518 17.526 62.7449 17.7233C62.539 17.9197 62.3098 18.2036 62.2029 18.5882L62.2029 18.5883C62.113 18.9122 62.0198 19.2406 61.9256 19.5729C61.2642 21.9044 60.5482 24.4284 60.5105 26.9477L65.7609 7.74569M65.7609 7.74569C66.2319 6.15958 66.9569 6.1007 68.0315 7.37032L65.7609 7.74569ZM59.4094 29.4754C59.9461 29.1963 60.1626 28.9243 60.2868 28.629C60.4362 28.2735 60.4977 27.7791 60.5105 26.9482L59.4094 29.4754ZM59.4094 29.4754C59.2607 29.552 59.0994 29.632 58.931 29.7157C58.4903 29.9344 58.0003 30.1777 57.5568 30.4478L57.5543 30.4493C56.1013 31.3399 55.0731 32.5731 54.5906 34.0311C54.108 35.4896 54.1985 37.0913 54.8392 38.6701L54.8394 38.6706C55.0545 39.1998 55.301 39.7352 55.5357 40.2451C55.6376 40.4664 55.7372 40.6829 55.8311 40.892C56.1523 41.6071 56.4298 42.2836 56.6148 42.9676L56.6149 42.9679C56.6293 43.0212 56.6344 43.1793 56.5095 43.5781C56.491 43.637 56.4718 43.6953 56.4516 43.7546C56.4464 43.7523 56.4413 43.7499 56.4361 43.7474C56.1334 43.6062 56.0694 43.5301 56.0682 43.531C56.0681 43.5311 56.0686 43.532 56.0696 43.5337L56.0681 43.5312C55.6752 42.8638 55.3516 42.1431 55.0091 41.3641C54.9882 41.3167 54.9673 41.269 54.9463 41.2211C54.6294 40.4997 54.2905 39.7282 53.8803 38.9904M59.4094 29.4754L44.2913 38.7283L43.3193 38.963C43.1449 38.2409 43.1984 37.4351 43.8565 36.8982C44.3829 36.4687 45.0751 36.4293 45.5038 36.4292M53.8803 38.9904C53.8805 38.9908 53.8807 38.9911 53.8809 38.9915L53.0058 39.4753L53.8797 38.9893C53.8799 38.9897 53.8801 38.99 53.8803 38.9904ZM53.8803 38.9904C53.6539 38.581 53.3363 38.0646 52.9602 37.623C52.6227 37.2268 52.0695 36.6853 51.3395 36.5733L51.3366 36.5728C49.8471 36.3487 48.2901 36.3804 46.8383 36.41C46.3812 36.4193 45.9346 36.4284 45.5038 36.4292M45.5038 36.4292C45.5045 36.4292 45.5051 36.4292 45.5058 36.4292V37.4292L45.5038 36.4292ZM42.8119 39.9721L43.0678 39.0054L42.8119 39.9721ZM42.8119 39.9721L43.0666 39.0051M42.8119 39.9721L43.0666 39.0051M13.1063 33.4069C11.1753 32.5873 9.30322 31.626 7.43158 30.6648C6.96696 30.4263 6.50237 30.1877 6.03691 29.9513L13.1063 33.4069ZM43.0666 39.0051C43.067 39.0052 43.0673 39.0053 43.0677 39.0054L43.0666 39.0051ZM32.5776 44.7268C32.236 44.7333 31.8932 44.6861 31.5573 44.5928C31.525 44.2329 31.5218 43.8803 31.5452 43.5367C31.8812 43.6653 32.2173 43.7302 32.5368 43.7273C32.5214 44.052 32.5341 44.3859 32.5776 44.7268ZM43.3408 39.0624C43.3545 39.134 43.3605 39.1893 43.3625 39.2301C43.3653 39.2883 43.3593 39.3071 43.3615 39.2979C43.3644 39.2861 43.376 39.2484 43.4094 39.2019C43.4434 39.1545 43.4854 39.1187 43.5241 39.0956C43.5601 39.0742 43.5825 39.07 43.5782 39.0709C43.5733 39.072 43.5496 39.0762 43.5025 39.0759C43.4581 39.0756 43.4042 39.0714 43.3408 39.0624ZM66.6758 7.46989C66.6757 7.46983 66.6768 7.47019 66.679 7.47111C66.6769 7.47041 66.6758 7.46995 66.6758 7.46989ZM21.8267 36.4045C21.8186 36.3854 21.8105 36.3663 21.8024 36.3473L22.4574 37.6574C22.1967 37.2733 22.0101 36.8352 21.8267 36.4045Z" stroke="white" stroke-width="2"/>
</svg>
