<svg width="40" height="40" viewBox="0 0 40 40" fill="none" xmlns="http://www.w3.org/2000/svg">
<circle cx="20" cy="20" r="19.5" stroke="#8C8C8C"/>
<path d="M30.4727 14.7512C30.668 14.5481 30.7773 14.3059 30.7773 14.0169C30.7773 13.4231 30.3086 12.9544 29.7305 12.9544C29.4336 12.9544 29.1602 13.0716 28.957 13.2825L17.0391 25.1191L11.8438 19.7676C11.6407 19.5566 11.3594 19.4395 11.0782 19.4395C10.4922 19.4395 10.0235 19.9082 10.0235 20.502C10.0235 20.791 10.125 21.041 10.3282 21.2363L16.2032 27.2441C16.4532 27.502 16.7266 27.6191 17.0469 27.627C17.3672 27.627 17.6407 27.502 17.8907 27.2441L30.4727 14.7512Z" fill="#7E7E7E"/>
</svg>
