<svg width="43" height="45" viewBox="0 0 43 45" fill="none" xmlns="http://www.w3.org/2000/svg">
<path d="M32.7416 5.27227C32.3482 4.99147 31.7863 5.10365 31.5054 5.55306C31.2246 5.94639 31.3368 6.50833 31.7862 6.78918C37.2929 10.3291 40.5519 16.3978 40.5519 22.9161C40.5519 33.5361 31.9548 42.1333 21.3347 42.1333C18.9187 42.1333 16.5023 41.6839 14.2549 40.7846L15.491 40.5038C15.9969 40.3913 16.2777 39.8858 16.1651 39.4364C16.0526 38.9306 15.6032 38.6498 15.0977 38.7623L11.2767 39.6615C10.9959 39.7176 10.7708 39.8862 10.6586 40.1673V40.2234C10.5461 40.4481 10.5461 40.7293 10.6586 41.0101L12.4566 44.4939C12.6252 44.7747 12.906 44.9998 13.2433 44.9998C13.3558 44.9998 13.5241 44.9437 13.6366 44.8873C14.086 44.6625 14.2546 44.1006 14.0299 43.7073L13.4119 42.4712C15.9405 43.4825 18.6376 44.0445 21.3348 44.0445C32.9103 44.0445 42.35 34.6039 42.35 23.0293C42.35 15.7802 38.754 9.14923 32.7414 5.27238L32.7416 5.27227Z" fill="white"/>
<path d="M2.1184 22.9164C2.1184 12.2963 10.7716 3.69917 21.3356 3.69917C22.9089 3.69917 24.4822 3.86779 25.9995 4.26112L24.8756 4.71053C24.4262 4.87915 24.2015 5.38465 24.3697 5.89048C24.4823 6.22772 24.8192 6.45243 25.2125 6.45243C25.325 6.45243 25.4372 6.45243 25.5497 6.39634L29.2022 4.99162C29.483 4.87909 29.6516 4.65438 29.708 4.42967V4.37358V4.3175C29.7641 4.09279 29.7641 3.81164 29.5955 3.53085L27.2916 0.328131C26.9547 -0.00946124 26.4489 -0.12164 25.9994 0.159159C25.6061 0.439957 25.4935 1.0019 25.7747 1.39527L26.6174 2.57522C24.8755 2.1258 23.1336 1.9011 21.2795 1.9011C9.76004 1.9011 0.320312 11.3417 0.320312 22.9163C0.320312 29.1534 3.07357 35.0535 7.90605 39.0992C8.07467 39.2117 8.29938 39.3239 8.468 39.3239C8.7488 39.3239 8.97386 39.2114 9.14212 38.9867C9.47936 38.5933 9.42291 38.0314 9.02958 37.7505C4.64693 34.0424 2.11835 28.6477 2.11835 22.9159L2.1184 22.9164Z" fill="white"/>
<path d="M27.2339 18.3645C26.4473 17.5779 25.4359 17.1846 24.3681 17.1846C23.3007 17.1846 22.289 17.5779 21.5023 18.3645L21.3341 18.5892L21.1655 18.4206C20.3788 17.634 19.3675 17.2407 18.2997 17.2407C17.2323 17.2407 16.2206 17.634 15.4339 18.4206C13.8606 19.9939 13.8606 22.5786 15.4339 24.1519L21.3341 29.9961L27.234 24.0962C28.8074 22.5225 28.8074 19.9378 27.234 18.3645L27.2339 18.3645ZM25.9417 22.8036L21.334 27.4675L16.7263 22.8598C15.8271 21.9606 15.8271 20.5559 16.7263 19.6571C17.1757 19.2076 17.7377 18.9829 18.2996 18.9829C18.9177 18.9829 19.4796 19.2077 19.8729 19.6571L21.3341 21.1182L22.7953 19.6571C23.638 18.8143 25.0992 18.8143 25.998 19.6571C26.8407 20.5559 26.8407 21.9606 25.9419 22.8037L25.9417 22.8036Z" fill="white"/>
<path d="M13.5828 35.0535C13.1895 34.7727 12.6275 34.8849 12.3467 35.3343L11.3914 36.8516C11.1106 37.2449 11.2228 37.8068 11.6722 38.0877C11.8408 38.2002 12.0094 38.2002 12.1781 38.2002C12.4589 38.2002 12.74 38.0316 12.9086 37.8069L13.8639 36.2896C14.1447 35.8963 14.0322 35.3344 13.5827 35.0535H13.5828Z" fill="white"/>
<path d="M6.21921 31.8508C6.38783 31.8508 6.50001 31.7947 6.61254 31.7383L8.24193 30.8955C8.69135 30.6708 8.85997 30.1089 8.63526 29.6594C8.41055 29.21 7.84862 29.0414 7.39915 29.2661L5.76975 30.1088C5.32033 30.3335 5.15172 30.8955 5.37642 31.3449C5.60113 31.6822 5.88228 31.8508 6.21916 31.8508H6.21921Z" fill="white"/>
<path d="M6.05265 23.4218C6.55851 23.4218 6.95183 23.0285 6.95183 22.5226C6.95183 22.0168 6.5585 21.6235 6.05265 21.6235L4.25465 21.5674C3.74879 21.5674 3.35547 21.9607 3.35547 22.4666C3.35547 22.9724 3.7488 23.3657 4.25465 23.3657L6.05265 23.4218Z" fill="white"/>
<path d="M8.9719 15.4988C9.2527 15.0494 9.08443 14.5436 8.6911 14.2627L7.11779 13.3075C6.66837 13.0267 6.16253 13.1949 5.88167 13.5883C5.60087 14.0377 5.76914 14.5435 6.16247 14.8244L7.73579 15.7796C7.90441 15.8922 8.01659 15.8922 8.18521 15.8922C8.52245 15.9482 8.8036 15.78 8.97186 15.4988H8.9719Z" fill="white"/>
<path d="M14.5927 9.14982L13.6935 7.5765C13.4688 7.12708 12.9068 7.01455 12.4574 7.23926C12.0079 7.46397 11.8954 8.02591 12.1201 8.47538L13.0193 10.0487C13.1879 10.3295 13.4687 10.4981 13.806 10.4981C13.9746 10.4981 14.0867 10.442 14.2554 10.3856C14.6491 10.1612 14.8173 9.59928 14.5926 9.14983L14.5927 9.14982Z" fill="white"/>
<path d="M21.3367 8.53191C21.8425 8.53191 22.2359 8.13858 22.2359 7.63273V5.83473C22.2359 5.32887 21.8425 4.93555 21.3367 4.93555C20.8308 4.93555 20.4375 5.32888 20.4375 5.83473V7.63273C20.4375 8.13859 20.8308 8.53191 21.3367 8.53191Z" fill="white"/>
<path d="M20.4375 38.2V39.998C20.4375 40.5038 20.8308 40.8971 21.3367 40.8971C21.8425 40.8971 22.2359 40.5038 22.2359 39.998V38.2C22.2359 37.6941 21.8425 37.3008 21.3367 37.3008C20.8308 37.3008 20.4375 37.6941 20.4375 38.2Z" fill="white"/>
<path d="M28.9761 7.57613L28.0772 9.14981C27.8525 9.59923 27.9647 10.1051 28.4145 10.3859C28.527 10.442 28.6953 10.4985 28.8639 10.4985C29.2011 10.4985 29.4819 10.3298 29.6505 10.049L30.5497 8.47572C30.7744 8.0263 30.6623 7.52045 30.2125 7.2396C29.7627 7.01454 29.2572 7.12672 28.9761 7.57614L28.9761 7.57613Z" fill="white"/>
<path d="M35.5504 13.3638L33.977 14.3191C33.5276 14.5999 33.4151 15.1057 33.6963 15.5552C33.8649 15.836 34.1457 16.0046 34.4829 16.0046C34.6515 16.0046 34.8201 15.9485 34.9323 15.8921L36.5056 14.9368C36.9551 14.656 37.0676 14.1502 36.7864 13.7007C36.5056 13.2516 35.9437 13.083 35.5503 13.3638H35.5504Z" fill="white"/>
<path d="M39.3151 22.4666C39.3151 21.9607 38.8657 21.5674 38.4159 21.5674L36.6179 21.6235C36.1121 21.6235 35.7188 22.0729 35.7188 22.5227C35.7188 23.0285 36.1121 23.4218 36.6179 23.4218L38.4159 23.3657C38.9782 23.3657 39.3715 22.9724 39.3151 22.4666Z" fill="white"/>
<path d="M35.2727 29.3217C34.8233 29.097 34.3174 29.2656 34.0366 29.7151C33.8119 30.1645 33.9805 30.6703 34.4299 30.9512L36.0593 31.7939C36.1718 31.85 36.3401 31.9064 36.4526 31.9064C36.7899 31.9064 37.0707 31.7378 37.2393 31.457C37.464 31.0076 37.2954 30.5018 36.846 30.2209L35.2727 29.3217Z" fill="white"/>
<path d="M29.0884 35.054C28.6951 35.3348 28.5265 35.8968 28.8076 36.2901L29.7629 37.8074C29.9315 38.0882 30.2123 38.2007 30.4934 38.2007C30.6621 38.2007 30.8307 38.1446 30.9993 38.0882C31.3926 37.8074 31.5612 37.2454 31.2801 36.8521L30.3245 35.3348C30.0437 34.9415 29.4817 34.8293 29.0884 35.054H29.0884Z" fill="white"/>
</svg>
