<svg width="58" height="45" viewBox="0 0 58 45" fill="none" xmlns="http://www.w3.org/2000/svg">
<path fill-rule="evenodd" clip-rule="evenodd" d="M1.43051 30.6851H56.5701C57.1108 30.6851 57.5508 30.2469 57.5508 29.7044C57.5508 29.1637 57.1126 28.7236 56.5701 28.7236H1.43051C0.889797 28.7236 0.449783 29.1618 0.449783 29.7044C0.449783 30.2451 0.889797 30.6851 1.43051 30.6851Z" fill="white"/>
<path fill-rule="evenodd" clip-rule="evenodd" d="M17.8418 33.9556H19.3865C19.9272 33.9556 20.3672 33.5174 20.3672 32.9749C20.3672 32.4342 19.929 31.9941 19.3865 31.9941H17.8418C17.3011 31.9941 16.8611 32.4323 16.8611 32.9749C16.8611 33.5156 17.3011 33.9556 17.8418 33.9556Z" fill="white"/>
<path fill-rule="evenodd" clip-rule="evenodd" d="M12.2325 33.9556H13.7771C14.3178 33.9556 14.7578 33.5174 14.7578 32.9749C14.7578 32.4342 14.3196 31.9941 13.7771 31.9941H12.2325C11.6918 31.9941 11.2517 32.4323 11.2517 32.9749C11.2536 33.5156 11.6918 33.9556 12.2325 33.9556Z" fill="white"/>
<path fill-rule="evenodd" clip-rule="evenodd" d="M6.6232 33.9556H8.27708C8.81779 33.9556 9.25781 33.5174 9.25781 32.9749C9.25781 32.4342 8.81962 31.9941 8.27708 31.9941H6.6232C6.08248 31.9941 5.64247 32.4323 5.64247 32.9749C5.64247 33.5156 6.08066 33.9556 6.6232 33.9556Z" fill="white"/>
<path fill-rule="evenodd" clip-rule="evenodd" d="M35.6576 44.9731C36.1847 44.847 36.5091 44.3181 36.383 43.791L34.519 36.0186C34.3929 35.4915 33.864 35.1689 33.3368 35.2932C32.8097 35.4193 32.4854 35.9483 32.6115 36.4754L34.4754 44.2478C34.6034 44.7767 35.1355 45.0988 35.6576 44.9731Z" fill="white"/>
<path fill-rule="evenodd" clip-rule="evenodd" d="M23.5352 44.2156L25.117 36.4432C25.2245 35.9125 24.882 35.3953 24.3513 35.2878C23.8205 35.1785 23.3034 35.5228 23.1959 36.0536L21.6141 43.826C21.5066 44.3567 21.8491 44.8738 22.3798 44.9813C22.9287 45.0875 23.4291 44.7314 23.5352 44.2156Z" fill="white"/>
<path fill-rule="evenodd" clip-rule="evenodd" d="M18.1409 44.9995H39.9333C40.474 44.9995 40.9141 44.5614 40.9141 44.0188C40.9141 43.4781 40.4759 43.0381 39.9333 43.0381H18.1409C17.6002 43.0381 17.1602 43.4763 17.1602 44.0188C17.1602 44.5595 17.5984 44.9995 18.1409 44.9995Z" fill="white"/>
<path fill-rule="evenodd" clip-rule="evenodd" d="M3.35803 37.2268H54.6445C56.3288 37.2268 57.5508 36.0044 57.5508 34.3205V2.96269C57.5508 1.30195 56.2729 0.000976562 54.6445 0.000976562H3.35803C1.75443 0.000976562 0.451714 1.32924 0.451714 2.96269V34.3194C0.45126 35.9483 1.72911 37.2261 3.35803 37.2261V37.2268ZM54.6445 1.96132C55.2941 1.96132 55.5916 2.48027 55.5916 2.96382V34.3205C55.5916 34.9134 55.2373 35.2677 54.6445 35.2677H3.35803C2.81913 35.2677 2.41087 34.8612 2.41087 34.3205V2.96266C2.41087 2.42013 2.84409 1.96016 3.35803 1.96016L54.6445 1.96132Z" fill="white"/>
<path fill-rule="evenodd" clip-rule="evenodd" d="M28.9997 30.6855C29.5404 30.6855 29.9805 30.2473 29.9805 29.7048V0.980729C29.9805 0.440017 29.5423 0 28.9997 0C28.4572 0 28.019 0.438194 28.019 0.980729V29.7048C28.019 30.2455 28.4572 30.6855 28.9997 30.6855Z" fill="white"/>
<path fill-rule="evenodd" clip-rule="evenodd" d="M42.789 19.5969C45.8432 19.5969 48.3281 17.112 48.3281 14.0577C48.3281 11.0034 45.8432 8.51855 42.789 8.51855C39.7347 8.51855 37.2498 11.0034 37.2498 14.0577C37.2494 17.1132 39.7347 19.5969 42.789 19.5969ZM42.789 10.479C44.7617 10.479 46.3671 12.0844 46.3671 14.0571C46.3671 16.0299 44.7617 17.6352 42.789 17.6352C40.8162 17.6352 39.2109 16.0299 39.2109 14.0571C39.2109 12.0844 40.8157 10.479 42.789 10.479Z" fill="white"/>
<path fill-rule="evenodd" clip-rule="evenodd" d="M34.5538 30.6859C35.0945 30.6859 35.5345 30.2477 35.5345 29.7052V25.1631C35.5345 23.4557 36.7888 21.961 38.4644 21.6588H38.6863C40.9884 23.8517 44.5966 23.8434 46.8868 21.6588H47.1086C48.7844 21.9628 50.0385 23.4569 50.0385 25.1631V29.7052C50.0385 30.2459 50.4767 30.6859 51.0193 30.6859C51.5618 30.6859 52 30.2477 52 29.7052V25.1631C52 22.4781 49.9999 20.1342 47.3472 19.7092C47.2062 19.6874 47.1758 19.7006 46.474 19.6974C46.1969 19.6974 45.9315 19.8149 45.7455 20.0213C44.1656 21.7741 41.4116 21.7808 39.8266 20.0213C39.6402 19.8149 39.3766 19.6974 39.0981 19.6974H38.3809C38.3288 19.6974 38.2771 19.7006 38.2262 19.7092C35.5734 20.1338 33.5735 22.4781 33.5735 25.1631V29.7052C33.5735 30.2459 34.0131 30.6859 34.5538 30.6859H34.5538Z" fill="white"/>
<path fill-rule="evenodd" clip-rule="evenodd" d="M46.9021 30.6851C47.4428 30.6851 47.8828 30.247 47.8828 29.7044V26.3948C47.8828 25.8541 47.4446 25.4141 46.9021 25.4141C46.3595 25.4141 45.9214 25.8523 45.9214 26.3948V29.7044C45.9214 30.2451 46.3595 30.6851 46.9021 30.6851Z" fill="white"/>
<path fill-rule="evenodd" clip-rule="evenodd" d="M38.6677 30.6851C39.2084 30.6851 39.6484 30.247 39.6484 29.7044V26.3948C39.6484 25.8541 39.2102 25.4141 38.6677 25.4141C38.1252 25.4141 37.687 25.8523 37.687 26.3948V29.7044C37.6874 30.2451 38.1256 30.6851 38.6677 30.6851Z" fill="white"/>
<path fill-rule="evenodd" clip-rule="evenodd" d="M15.2148 19.5969C18.269 19.5969 20.7539 17.112 20.7539 14.0577C20.7539 11.0034 18.269 8.51855 15.2148 8.51855C12.1605 8.51855 9.6756 11.0034 9.6756 14.0577C9.6756 17.1132 12.1605 19.5969 15.2148 19.5969ZM15.2148 10.479C17.1875 10.479 18.7929 12.0844 18.7929 14.0571C18.7929 16.0299 17.1875 17.6352 15.2148 17.6352C13.242 17.6352 11.6366 16.0299 11.6366 14.0571C11.6353 12.0844 13.2402 10.479 15.2148 10.479Z" fill="white"/>
<path fill-rule="evenodd" clip-rule="evenodd" d="M6.98351 30.6859C7.52422 30.6859 7.96424 30.2477 7.96424 29.7052V25.1631C7.96424 23.4557 9.21853 21.961 10.8941 21.6588H11.116C13.4181 23.8517 17.0263 23.8434 19.3165 21.6588H19.5383C21.2141 21.9628 22.4682 23.4569 22.4682 25.1631V29.7052C22.4682 30.2459 22.9064 30.6859 23.449 30.6859C23.9915 30.6859 24.4297 30.2477 24.4297 29.7052V25.1631C24.4297 22.4781 22.4296 20.1342 19.7769 19.7092C19.6359 19.6874 19.6055 19.7006 18.9055 19.6974C18.6284 19.6974 18.363 19.8149 18.177 20.0213C16.5971 21.7741 13.8431 21.7808 12.2581 20.0213C12.0717 19.8149 11.8081 19.6974 11.5296 19.6974C10.8229 19.7006 10.7893 19.6888 10.6582 19.7092C8.00539 20.1338 6.00545 22.4781 6.00545 25.1631V29.7052C6.00273 30.2459 6.44093 30.6859 6.98347 30.6859H6.98351Z" fill="white"/>
<path fill-rule="evenodd" clip-rule="evenodd" d="M19.3318 30.6851C19.8725 30.6851 20.3125 30.247 20.3125 29.7044V26.3948C20.3125 25.8541 19.8743 25.4141 19.3318 25.4141C18.7911 25.4141 18.351 25.8523 18.351 26.3948V29.7044C18.3529 30.2451 18.7911 30.6851 19.3318 30.6851Z" fill="white"/>
<path fill-rule="evenodd" clip-rule="evenodd" d="M11.1013 30.6851C11.642 30.6851 12.082 30.247 12.082 29.7044V26.3948C12.082 25.8541 11.6438 25.4141 11.1013 25.4141C10.5606 25.4141 10.1206 25.8523 10.1206 26.3948V29.7044C10.121 30.2451 10.5606 30.6851 11.1013 30.6851Z" fill="white"/>
</svg>
