<svg xmlns="http://www.w3.org/2000/svg" viewBox="0 0 1050 1050">
    <g id="freepik--character-2--inject-9">
        <path
            d="M504.19,412.2c-2.07.62-60.66-1.32-62.84-2.81-.84-.55-1.06-9.11-1-19.45v-.32c0-2.13,4.85-37.87,4.85-37.87l41,1.23-8,37.47,0,.64s22.1,10.77,24.33,12.66S506.26,411.58,504.19,412.2Z"
            style="fill:#f7a9a0"></path>
        <path
            d="M504.19,412.2c-2.07.62-60.66-1.32-62.84-2.81-.84-.56-1.06-9.11-1-19.45v-.33c0-.58.37-3.68.89-7.87l38.47,1.5-1.54,7.2,0,.64s22.1,10.78,24.33,12.67S506.26,411.58,504.19,412.2Z"
            style="fill:#ebebeb"></path>
        <path
            d="M504.64,412.45c-2.09.63-61.26-1.34-63.47-2.85-.84-.56-1.05-9.19-1-19.63l38.15,1.16s22.32,10.88,24.56,12.79S506.73,411.83,504.64,412.45Z"
            style="fill:#c7c7c7"></path>
        <path
            d="M503.87,410.06c-9.91-.58-49.94-1.95-59.78-1.77-.08,0-.08.06,0,.06,9.81.79,49.84,1.84,59.77,1.87C504.07,410.22,504.08,410.07,503.87,410.06Z"
            style="fill:#263238"></path>
        <path
            d="M499.13,401.66a8,8,0,0,0-6,2.23,7.74,7.74,0,0,0-2.39,5.22c0,.06.11.06.12,0a9.21,9.21,0,0,1,8.28-7.32A.07.07,0,0,0,499.13,401.66Z"
            style="fill:#263238"></path>
        <path
            d="M482.11,392.24c-4-.19-8.61,1.06-11.19,4.23-.1.12.08.26.2.2a55.29,55.29,0,0,1,11.05-3.94A.25.25,0,0,0,482.11,392.24Z"
            style="fill:#263238"></path>
        <path
            d="M485.14,393.54c-4-.19-8.62,1.06-11.19,4.22-.1.13.07.27.19.21A54.67,54.67,0,0,1,485.19,394,.25.25,0,0,0,485.14,393.54Z"
            style="fill:#263238"></path>
        <path
            d="M488.16,394.83c-4-.18-8.61,1.07-11.19,4.23-.1.12.08.26.2.21a54.67,54.67,0,0,1,11.05-3.94A.26.26,0,0,0,488.16,394.83Z"
            style="fill:#263238"></path>
        <path
            d="M491.19,396.13c-4-.19-8.62,1.06-11.19,4.23-.1.12.07.26.19.2a55.29,55.29,0,0,1,11.05-3.94A.25.25,0,0,0,491.19,396.13Z"
            style="fill:#263238"></path>
        <path d="M446.93,399c-4.45-.14-4.67,6.78-.21,6.92S451.4,399.09,446.93,399Z"
            style="fill:#263238"></path>
        <path
            d="M486.76,381.79c-2-1.73-4.54-.19-5.84,1.5a20.81,20.81,0,0,0-3.94,10c0,.09,0,.12.12.12a.47.47,0,0,0,.7.34c2.89-1.86,6.21-3.49,8.45-6.18C487.55,386,488.61,383.43,486.76,381.79Zm-5.15,8.28c-1.4.95-2.84,1.82-4.21,2.82.78-1.95,1.47-3.93,2.44-5.8a20.32,20.32,0,0,1,1.54-2.63c.9-1.29,4.91-4.47,5.16-.14C486.68,386.71,483.27,388.93,481.61,390.07Z"
            style="fill:#263238"></path>
        <path
            d="M467.07,394.47c3.43.64,7-.22,10.45-.64a.48.48,0,0,0,.32-.71.11.11,0,0,0,0-.17,20.75,20.75,0,0,0-9.44-5.2c-2.07-.47-5.05,0-5.45,2.57S465.06,394.09,467.07,394.47Zm-2.33-2.34c-2.57-3.5,2.55-3.6,4.07-3.19a21.28,21.28,0,0,1,2.86,1,61.53,61.53,0,0,1,5.58,2.91c-1.69.1-3.35.35-5,.51C470.2,393.6,466.16,394.05,464.74,392.13Z"
            style="fill:#263238"></path>
        <path
            d="M486.07,389.67,436,385.49s15.16-60.36,12.44-64.44c-1.19-1.79-47.08,6.69-64.51-12.18-15.93-17.26,0-52.1,0-52.1h43s-.46,15.13,2.17,20.67c1.13,2.38,52.92-2.16,61.47,13.45C502,311.74,486.07,389.67,486.07,389.67Z"
            style="fill:#FFC727"></path>
        <path
            d="M442,375.86c5.52.26,11.06.47,16.57.89s11.05.94,16.56,1.56l4.66.54c.74.09,1.48.18,2.22.29a16.84,16.84,0,0,1,2.24.35c.08,0,.05.13,0,.13a29.9,29.9,0,0,1-4.23-.13l-4-.22q-4.12-.25-8.23-.54c-5.5-.4-11-1-16.45-1.56-3.11-.33-6.22-.68-9.33-1C441.77,376.12,441.77,375.85,442,375.86Z"
            style="fill:#263238"></path>
        <path
            d="M388.79,265.55c.15-1.45.27-2.9.33-4.35a.09.09,0,0,1,.17,0c0,11-3.83,22.15-.83,33.09a21.2,21.2,0,0,0,8.23,11.84,32.44,32.44,0,0,0,14.19,5.26c5.77.83,11.63.67,17.44.64l18.11-.09,4.47,0a35.11,35.11,0,0,1,4.23,0,2.27,2.27,0,0,1,2.14,1.77,15.65,15.65,0,0,1,.06,3.87q-.27,8.73-1.25,17.4a212.51,212.51,0,0,1-6.7,34.09c-.4,1.38-.81,2.76-1.23,4.13a.14.14,0,0,1-.26-.08,239.78,239.78,0,0,0,7-34.3c.74-5.77,1.24-11.57,1.55-17.38.08-1.44.14-2.87.19-4.31,0-.7.06-1.4.06-2.1a3.14,3.14,0,0,0-.31-1.74,2.06,2.06,0,0,0-1.81-.72c-.79,0-1.58,0-2.37,0l-4.47,0-18.1.12c-5.8,0-11.64.23-17.41-.45a35.89,35.89,0,0,1-14.32-4.46,22,22,0,0,1-9.24-10.38C384.38,287.16,387.68,276.09,388.79,265.55Z"
            style="fill:#263238"></path>
        <path
            d="M384,308.87c10.8,11.69,32.51,12.88,47.75,12.52l-17.44-64.62H384S368,291.61,384,308.87Z"
            style="fill:#263238"></path>
        <path
            d="M295.36,409.7c.23-2.15,24.91-55.32,27.13-56.75.84-.56,8.8,2.59,18.31,6.66l.29.13c2,.84,38.14,10.56,38.14,10.56l-16,34.8-37.64-10.87-.58-.29s-18.55,16.13-21.16,17.44S295.11,411.84,295.36,409.7Z"
            style="fill:#f7a9a0"></path>
        <path
            d="M348,361.76l-16.49,34.17-5.92-1.71-.58-.28s-18.55,16.13-21.16,17.44-8.71.46-8.46-1.68,24.91-55.33,27.13-56.75c.84-.56,8.8,2.58,18.31,6.66l.29.13C341.58,360,344.25,360.72,348,361.76Z"
            style="fill:#ebebeb"></path>
        <path
            d="M295.15,410c.23-2.17,25-56,27.2-57.41.85-.56,8.89,2.59,18.5,6.67L325,394s-18.68,16.35-21.31,17.69S294.91,412.13,295.15,410Z"
            style="fill:#c7c7c7"></path>
        <path
            d="M297.65,410.18c4.37-8.91,21.14-45.27,24.78-54.42,0-.07,0-.09-.05,0-4.53,8.74-21,45.24-24.87,54.38C297.42,410.31,297.56,410.37,297.65,410.18Z"
            style="fill:#263238"></path>
        <path
            d="M307.23,409.07a8,8,0,0,0,.28-6.41,7.75,7.75,0,0,0-3.89-4.23c-.06,0-.1.08-.05.11A9.21,9.21,0,0,1,307.11,409C307.09,409.09,307.19,409.14,307.23,409.07Z"
            style="fill:#263238"></path>
        <path
            d="M322.5,397c1.71-3.58,2.36-8.35.44-11.95-.07-.14-.27,0-.26.1a54.72,54.72,0,0,1-.65,11.71A.25.25,0,0,0,322.5,397Z"
            style="fill:#263238"></path>
        <path
            d="M320.14,399.32c1.71-3.59,2.36-8.36.44-12-.08-.14-.28,0-.27.1a54.77,54.77,0,0,1-.65,11.72A.25.25,0,0,0,320.14,399.32Z"
            style="fill:#263238"></path>
        <path
            d="M317.77,401.6c1.71-3.58,2.36-8.35.44-12-.07-.14-.27,0-.27.1a54.67,54.67,0,0,1-.64,11.71A.25.25,0,0,0,317.77,401.6Z"
            style="fill:#263238"></path>
        <path
            d="M315.4,403.89c1.71-3.59,2.36-8.35.44-11.95-.07-.14-.27,0-.26.1a54.72,54.72,0,0,1-.65,11.71A.25.25,0,0,0,315.4,403.89Z"
            style="fill:#263238"></path>
        <path d="M329.94,362c1.85-4.06-4.45-6.94-6.3-2.88S328.09,366.06,329.94,362Z"
            style="fill:#263238"></path>
        <path
            d="M330.34,405.36c2.35-1.13,1.93-4.11.88-6a20.78,20.78,0,0,0-7.72-7.52.11.11,0,0,0-.16.06.49.49,0,0,0-.59.52c.6,3.38.82,7.08,2.43,10.18C326.13,404.45,328.11,406.43,330.34,405.36Zm-5.63-8c-.34-1.65-.59-3.32-1-5a62.28,62.28,0,0,1,4.41,4.49,21.86,21.86,0,0,1,1.83,2.44c.83,1.33,2.22,6.26-1.87,4.81C325.84,403.38,325.1,399.38,324.71,397.4Z"
            style="fill:#263238"></path>
        <path
            d="M326.28,382.29c-1.92,2.92-2.52,6.58-3.46,9.88-.1.35.24.59.53.58a.11.11,0,0,0,.15.08,20.94,20.94,0,0,0,8.45-6.69c1.24-1.73,2-4.65-.26-6S327.41,380.59,326.28,382.29Zm3.06-1.23c4.22-1,2.33,3.74,1.37,5a22,22,0,0,1-2.07,2.24c-1.52,1.47-3.21,2.7-4.85,4,.56-1.59,1-3.22,1.48-4.84C325.87,385.53,327,381.62,329.34,381.06Z"
            style="fill:#263238"></path>
        <path
            d="M426.7,256.77s-.67,20.84-3.79,31.11c0,0-3.41,1.79-4.43,2.43,0,0,25.89,62,24.42,85.86-.48,7.83-9.34,20.68-18.29,26.25-15.83,9.85-93.11,1.21-93.11,1.21l11.21-46.47s48.86,2.72,50.1.08c1.56-3.36-8.17-29.43-15.94-50.63-.78-2.14-8.6-10-7.69-24.32a74.06,74.06,0,0,1,6.73-25.52Z"
            style="fill:#FFC727"></path>
        <path
            d="M418.57,283c.1-1.48.21-2.95.34-4.43.29-3.36.64-6.74,1.23-10.06.05-.26.42-.16.39.09-.22,2.61-.52,5.22-.77,7.83s-.55,5.21-.6,7.81c0,.78,0,2.11,1,2.32,1.29.29,1.9-1.4,2.21-2.33a42.2,42.2,0,0,0,1.62-7.12c.43-2.74.65-5.51.92-8.27a.09.09,0,0,1,.17,0c0,5.48-.06,11.21-2.1,16.38a3,3,0,0,1-2.27,2.17h-.06a.3.3,0,0,1,0,.1c0,.15-.07.3-.09.45s-.05.26-.08.39-.09.53-.16.79a.2.2,0,0,1-.4,0,.18.18,0,0,1-.11-.16,4.37,4.37,0,0,1,.35-1.55,2,2,0,0,1-1.41-1.19A6.88,6.88,0,0,1,418.57,283Z"
            style="fill:#263238"></path>
        <path
            d="M422.52,287.9a78.3,78.3,0,0,0-12.07,6.32.14.14,0,0,0,.13.25c4.07-2,8.23-3.88,12.18-6.08A.27.27,0,0,0,422.52,287.9Z"
            style="fill:#263238"></path>
        <path
            d="M388,278.36a19.57,19.57,0,0,0,3.15-.24,26.37,26.37,0,0,0,2.75-.7c1.69-.5,3.75-1.09,5-2.43a17.89,17.89,0,0,0,2.83-4.88,19.78,19.78,0,0,0,1.67-5.83.07.07,0,0,1,.14,0,29.83,29.83,0,0,1-1,6.16,19.29,19.29,0,0,1-1.16,2.92,8.12,8.12,0,0,1-7.15,5.19,17.11,17.11,0,0,1-6.22,0C387.79,278.57,387.84,278.37,388,278.36Z"
            style="fill:#263238"></path>
        <path
            d="M351.62,362.33c10.66-.2,19.35.71,30,.71h12.08a11.8,11.8,0,0,0,2.78-.25,3.51,3.51,0,0,0,2.15-1.28c.7-1,.32-2.4.08-3.54q-.81-3.76-1.8-7.48c-2.69-10.06-6.19-19.9-9.49-29.78l-5.1-15.26c-.42-1.24-.83-2.48-1.35-3.68a32.24,32.24,0,0,0-1.67-3.19,29.87,29.87,0,0,1-2.9-6.29c-2.88-9.48-.11-19.29,3.26-28.23.45-1.2.92-2.39,1.41-3.58a.07.07,0,0,1,.14,0c-3.08,9.44-6.74,19.26-4.68,29.34a24.32,24.32,0,0,0,2.46,6.77c.59,1.09,1.24,2.13,1.82,3.22a26.8,26.8,0,0,1,1.48,3.44c1.81,5,3.41,10.09,5.1,15.13,3.37,10,6.91,20,9.72,30.24q1,3.81,1.92,7.67c.42,1.89,1.37,4.47-.28,6-1.22,1.15-3.12,1.3-4.7,1.31-2.66,0-5.31,0-8,0-10.81,0-33.13-.94-34.48-1A.19.19,0,0,1,351.62,362.33Z"
            style="fill:#263238"></path>
        <path
            d="M339.7,401.47c1.05-5.43,2.05-10.88,3.25-16.28s2.51-10.8,3.91-16.16c.39-1.52.8-3,1.21-4.54.19-.72.38-1.44.59-2.16a18,18,0,0,1,.67-2.16c0-.08.13,0,.13,0a29.47,29.47,0,0,1-.74,4.16c-.27,1.31-.52,2.63-.79,3.93q-.82,4.05-1.71,8.07c-1.18,5.38-2.51,10.72-3.88,16.06q-1.17,4.54-2.36,9.08C339.94,401.68,339.67,401.65,339.7,401.47Z"
            style="fill:#263238"></path>
        <path
            d="M443.08,368.43a35.51,35.51,0,0,0-1.31-6.47c0-.07-.14-.06-.13,0,.21,2.17.64,4.29.83,6.47a38.11,38.11,0,0,1,.08,6.23,27.87,27.87,0,0,1-1,5.66,42.15,42.15,0,0,1-2.2,5.55c0,.07.06.16.12.09,2.61-2.86,3.56-7.14,3.83-10.88A33.79,33.79,0,0,0,443.08,368.43Z"
            style="fill:#263238"></path>
        <path
            d="M428.29,275l-3,.24-.33,0-.71.06-4.41.36-.46,0-.19,0-21.66,1.76-5.55.45-4.25.34-.69.06-9.51.76-1.28.1-.72.06-6.12.47a74.58,74.58,0,0,1,6.51-23h51S426.61,268.39,428.29,275Z"
            style="fill:#263238"></path>
        <path
            d="M414,162.59c-13.19,8.85-19.09,27.22-9.78,46.06,8.48,17.14,29.62,25.5,41.45,20.46,12.55-5.35,15.66-19.72,9.37-27.87-6.07-7.87-15.45-9.79-18.37-17.13-1.39-3.51-.47-9.83-2.31-15.11C432.28,163.11,422.45,156.91,414,162.59Z"
            style="fill:#263238"></path>
        <path
            d="M432.76,231.09A38.5,38.5,0,0,1,415,223.62a42.66,42.66,0,0,1-12.32-15,36.67,36.67,0,0,1-4-19,36.21,36.21,0,0,1,6.5-18.14,38.08,38.08,0,0,0-5.91,18.18,35.68,35.68,0,0,0,.85,9.55,38.79,38.79,0,0,0,3.29,9,46.31,46.31,0,0,0,5.16,8.1,41.66,41.66,0,0,0,15.06,11.76A37,37,0,0,0,432.76,231.09Z"
            style="fill:#263238"></path>
        <path
            d="M457.11,203a19,19,0,0,0-3.46-4.86,25.53,25.53,0,0,0-4.59-3.77c-1.7-1.08-3.36-2.21-5-3.4a26.07,26.07,0,0,1-4.52-4.08,17.47,17.47,0,0,1-1.8-2.5,11.56,11.56,0,0,1-1.08-2.9,52.21,52.21,0,0,1-.86-6,23.46,23.46,0,0,0-1.31-5.8,16.5,16.5,0,0,0-3.09-5.08,15.68,15.68,0,0,1,3.44,4.94,23.8,23.8,0,0,1,1.55,5.86c.32,2,.47,4,1,5.9a11,11,0,0,0,1,2.71,15.58,15.58,0,0,0,1.74,2.36c2.54,3,6,5.17,9.25,7.48a26,26,0,0,1,4.55,4A17.89,17.89,0,0,1,457.11,203Z"
            style="fill:#263238"></path>
        <path
            d="M414.82,209.74c10.9,9.91,30.6,24.18,42.55,26.43,9.55,1.79,34.83-6.7,45.7-13.72,3.84-2.48-8.37-16.33-13.16-17.71-2.88-.83-28,11.45-32.28,10.85-6.5-.91-23.2-9.15-36.73-13.89C413.77,199.2,408,203.57,414.82,209.74Z"
            style="fill:#f7a9a0"></path>
        <path
            d="M481.66,207.7s4-5.71,6.28-7.83,13.79-6.88,15-4.45c1.51,3.13-4.58,7.18-7.83,8.77,0,0,3.5,7.24-.25,11.09S481.66,207.7,481.66,207.7Z"
            style="fill:#f7a9a0"></path>
        <path
            d="M499.18,224.47c2.44-1.1,13.17-7.08,15.78-9.42s9.64-9.59,8-11.77-3.81-.22-3.81-.22,2.49-3.54.69-5.59-5.16,1.11-5.16,1.11,2.29-3.81.35-5.73-4.79,1.83-4.79,1.83,2.25-3.39,0-4.3c-2.72-1.09-6.16,5.63-9.24,8-.7.54-14.93,9.86-14.93,9.86Z"
            style="fill:#f7a9a0"></path>
        <path
            d="M510.54,194.36C508,199.3,506,201,501.32,203.8c-.1,0,0,.2.06.15,4.87-2.29,7.65-4.1,9.41-9.47C510.87,194.21,510.66,194.13,510.54,194.36Z"
            style="fill:#263238"></path>
        <path
            d="M514.93,198.19c-3.1,4.9-5.21,6.78-9.94,10.05-.06,0,0,.16.08.12,4.9-2.82,7.63-4.68,10.08-10C515.26,198.14,515.07,198,514.93,198.19Z"
            style="fill:#263238"></path>
        <path
            d="M519,203.22c-3.34,4.52-5.57,6.69-10.56,9.27a.1.1,0,0,0,.08.19,18.63,18.63,0,0,0,10.6-9.35C519.25,203,519.17,202.93,519,203.22Z"
            style="fill:#263238"></path>
        <path
            d="M503,196.41c-.68,3.85-5.07,5.67-8.1,7.45a.31.31,0,0,0-.07.52c1.26,3.13,2.13,7.92.18,10.9a.08.08,0,0,0,.13.1c2.53-2.92,2.06-7.69.45-11,3.14-1.77,7.47-3.79,7.45-7.93C503.07,196.39,503,196.39,503,196.41Z"
            style="fill:#263238"></path>
        <path
            d="M445.86,209.21l-12,17.9s-13-10-19-16.14-6.3-13.12,6.54-10.25C432.25,203.15,445.86,209.21,445.86,209.21Z"
            style="fill:#FFC727"></path>
        <path
            d="M441.18,207.88a43.7,43.7,0,0,0-2.65,3.7q-1.29,1.88-2.55,3.78c-1.68,2.56-3.29,5.13-4.83,7.77,0,.09.06.18.12.1,1.83-2.49,3.56-5,5.25-7.61.83-1.27,1.65-2.56,2.46-3.85a42.27,42.27,0,0,0,2.29-3.84C441.3,207.87,441.22,207.83,441.18,207.88Z"
            style="fill:#263238"></path>
        <path
            d="M439.76,218.3l-5.91,8.81s-13-10-19-16.14c-4.63-4.74-5.87-9.95-.34-10.8C420.63,204.52,432.1,212.64,439.76,218.3Z"
            style="fill:#263238"></path>
        <path
            d="M431.64,248.4l-.57,24.65s-48.46-1.77-60.29-4.64c0,0,19.11-53.65,34.34-65.45,7.62-5.9,15.09-4.11,19.08,1.6,1,1.44,12.3,23.11,12.6,30.72C437,242,431.64,248.4,431.64,248.4Z"
            style="fill:#FFC727"></path>
        <polygon
            points="411 225.44 421.98 224.49 422.91 233.11 418.48 236.71 411.85 234.48 411 225.44"
            style="opacity:0.1"></polygon>
        <path
            d="M412.52,200.58c.11,1,5.79,10.44,10.18,10.44,1,0,.45-10.06.45-10.06l.2-.56,2.77-7.82-8.71-7.2-1.27-1s-.62,2.19-1.36,4.93c0,.13-.07.25-.1.39s-.09.3-.13.44c-.11.41-.23.82-.34,1.24s-.16.63-.24,1l-.24,1A54.28,54.28,0,0,0,412.52,200.58Z"
            style="fill:#f7a9a0"></path>
        <path
            d="M414.78,189.34a16.68,16.68,0,0,0,8.57,11.06l2.77-7.82-8.71-7.2-1.27-1S415.52,186.6,414.78,189.34Z"
            style="fill:#263238"></path>
        <path
            d="M439,180c2,14.42-6.36,17.27-9.47,17.71-2.82.39-12.48,1.39-16-12.74s2.53-19.63,8.94-20.88S437,165.54,439,180Z"
            style="fill:#f7a9a0"></path>
        <path
            d="M435.8,177c-.34,0-.66,0-1-.06a1.61,1.61,0,0,1-1-.27.51.51,0,0,1-.09-.62,1.31,1.31,0,0,1,1.21-.48,1.88,1.88,0,0,1,1.27.5A.55.55,0,0,1,435.8,177Z"
            style="fill:#263238"></path>
        <path
            d="M426.33,178.37a9.71,9.71,0,0,0,.95-.34,1.61,1.61,0,0,0,.89-.54.5.5,0,0,0-.09-.62,1.25,1.25,0,0,0-1.29-.12,1.9,1.9,0,0,0-1.08.82A.55.55,0,0,0,426.33,178.37Z"
            style="fill:#263238"></path>
        <path
            d="M429,181.73s-.07.06-.06.1c.2,1,.25,2.12-.58,2.59,0,0,0,.07,0,.06C429.44,184.15,429.34,182.62,429,181.73Z"
            style="fill:#263238"></path>
        <path d="M428,180.86c-1.59.14-1.19,3.31.28,3.18S429.29,180.74,428,180.86Z"
            style="fill:#263238"></path>
        <path
            d="M427.36,181.1c-.26.22-.49.57-.82.65s-.71-.21-1-.5c0,0,0,0,0,0,.07.61.38,1.21,1,1.21s1-.58,1-1.21C427.58,181.17,427.46,181,427.36,181.1Z"
            style="fill:#263238"></path>
        <path
            d="M434.41,180.84s.09,0,.09.08c.08,1,.35,2.1,1.28,2.32,0,0,0,.06,0,.06C434.67,183.27,434.34,181.79,434.41,180.84Z"
            style="fill:#263238"></path>
        <path d="M435.17,179.71c1.57-.31,2.07,2.85.62,3.13S433.85,180,435.17,179.71Z"
            style="fill:#263238"></path>
        <path
            d="M435.86,179.81c.28.13.57.39.88.36s.55-.41.72-.77c0,0,0,0,.05,0,.11.61,0,1.27-.55,1.47s-1-.26-1.22-.84C435.69,179.94,435.75,179.76,435.86,179.81Z"
            style="fill:#263238"></path>
        <path
            d="M430.08,189.63c.25.21.52.51.88.51a2.64,2.64,0,0,0,1-.33s.06,0,.05.05a1.33,1.33,0,0,1-1.22.63,1,1,0,0,1-.84-.81C430,189.63,430,189.6,430.08,189.63Z"
            style="fill:#263238"></path>
        <path
            d="M433.69,185.51a21.51,21.51,0,0,1,.5,2.13c0,.07-.15.12-.38.17h0a3.32,3.32,0,0,1-3.36-.78c-.06-.06,0-.15.09-.11a5,5,0,0,0,3.12.44c0-.2-.78-2.44-.67-2.46a5.86,5.86,0,0,1,1.62.14c-.76-3-2-5.9-2.71-8.92a.1.1,0,0,1,.18-.07,50.1,50.1,0,0,1,3.32,9.48C435.48,185.91,434,185.59,433.69,185.51Z"
            style="fill:#263238"></path>
        <path
            d="M414.65,186.13c1.58-.42,4.85-5.65,3.42-13.38,0,0,.8,7,.49,8.15s1.82-2.94.76-9.19a25.73,25.73,0,0,0,7.05,2c3.1.23,4.89-.16,5.06-.41s-4.43-.75-5.87-1.86c0,0,8.54,2.06,12.2,1.61.42-.06-.81-8.72-7.1-11.23s-14.33,3.18-16.24,5.95c0,0-2.7,1-4.9,5.69S413,186.58,414.65,186.13Z"
            style="fill:#263238"></path>
        <path d="M417.16,185s-3.21-4.53-5.27-3.38.38,7.72,2.81,8.6A2.46,2.46,0,0,0,418,188.9Z"
            style="fill:#f7a9a0"></path>
        <path
            d="M412.64,183.5s-.05.05,0,.07a6.24,6.24,0,0,1,3.24,3.87,1.37,1.37,0,0,0-2-.36s0,.1.05.09a1.53,1.53,0,0,1,1.67.52,7.54,7.54,0,0,1,.8,1.34c.08.16.36.07.3-.1l0,0C416.66,186.72,415,183.71,412.64,183.5Z"
            style="fill:#263238"></path>
        <path
            d="M400.25,211.92c-6,13.39-16.39,41.67-13,52,4.48,13.54,25.08,29.7,34.11,30.41,3.2.25,7-28.82,3.69-27.82-2.2.67-14-6.15-15.36-8.34s1.12-30.37,2.07-42.78C413,199.71,405.34,200.6,400.25,211.92Z"
            style="fill:#f7a9a0"></path>
        <path
            d="M390.58,232.88l21.35,3s1.27-16.35.72-24.95-5.55-13.45-12-2C395.17,218.71,390.58,232.88,390.58,232.88Z"
            style="fill:#FFC727"></path>
        <path
            d="M411.06,231.47a44.63,44.63,0,0,0-4.47-.86c-1.5-.26-3-.5-4.5-.73-3-.45-6-.84-9.08-1.14-.1,0-.14.14,0,.16,3,.62,6,1.13,9.11,1.58,1.5.22,3,.43,4.52.62a44.48,44.48,0,0,0,4.45.48C411.12,231.58,411.12,231.49,411.06,231.47Z"
            style="fill:#263238"></path>
        <path
            d="M413.4,220.27c-.2,1-.34,2-.48,3,.05-2.39,0-4.8-.14-7.19a0,0,0,1,0,0,0c-.24,3.31-.34,6.63-.5,9.94s-.37,6.54-.42,9.82c-.13,0-1.41-.14-1.55-.16a.08.08,0,1,0,0,.16c.13,0,1.76.31,1.77.26s.67-6.68.8-10c0-.43,0-.87,0-1.3a43.53,43.53,0,0,0,.65-4.52A.06.06,0,0,0,413.4,220.27Z"
            style="fill:#263238"></path>
        <path
            d="M396.13,217.84c0-.05-.07-.09-.1,0-.49,1.12-1,2.25-1.43,3.39,0-.08,0-.17,0-.25.13-.57.26-1.14.4-1.71,0-.08-.1-.11-.13,0a12.56,12.56,0,0,0-.46,1.7c-.08.37-.13.75-.19,1.13-.41,1-.81,2.06-1.19,3.09-.92,2.53-2.58,7.7-2.54,7.76s1.48.21,1.51.22,0-.05,0-.07-1.13-.24-1.22-.24c1.05-2.38,1.77-4.87,2.64-7.33S395.23,220.39,396.13,217.84Z"
            style="fill:#263238"></path>
        <path
            d="M420.71,267.88s9.91-3.18,16.48-4.95c3.67-1,10.11-2.12,13.14-1.62,4.53.76,23,6.83,21.61,11.33-1.24,4.08-16.44-3.14-16.44-3.14s16,5.93,13.58,10.57-18.48-5.81-18.48-5.81,16.28,6.46,13,10.85c-2.44,3.32-17.54-5.32-17.54-5.32s14,5.66,11.59,9.18c-2.61,3.88-17.05-3.21-17.05-3.21-7.51,7.93-14.34,8.63-19.25,8.56C420.2,294.3,420.71,267.88,420.71,267.88Z"
            style="fill:#f7a9a0"></path>
        <path
            d="M450.11,267.09c1.9.63,3.83,1.26,5.67,2.05s3.65,1.66,5.41,2.62a34.08,34.08,0,0,1,6.48,4.4c-3.75-2.77-10.29-5.73-12.13-6.52s-3.63-1.68-5.46-2.48C450,267.14,450.06,267.08,450.11,267.09Z"
            style="fill:#263238"></path>
        <path
            d="M447.12,273.68c2.39.91,4.8,1.72,7.15,2.74s4.48,2.17,6.75,3.34c.17.09.07.15-.11.07-2.31-1.08-4.54-1.89-6.86-2.94s-4.61-2.19-7-3.15C447.05,273.72,447.08,273.67,447.12,273.68Z"
            style="fill:#263238"></path>
        <path
            d="M443.53,278.88a56.64,56.64,0,0,1,10.62,5c.17.09,0,.16-.15.07-3.5-1.73-6.24-3.12-10.51-5C443.42,279,443.45,278.85,443.53,278.88Z"
            style="fill:#263238"></path>
    </g>
    <g id="freepik--character-3--inject-9">
        <path
            d="M549.53,423.84c-31.32,0-56.8-31.8-56.8-70.89s25.48-70.89,56.8-70.89,56.8,31.8,56.8,70.89S580.85,423.84,549.53,423.84Zm0-136.1c-28.19,0-51.11,29.25-51.11,65.21s22.92,65.2,51.11,65.2,51.11-29.25,51.11-65.2S577.71,287.74,549.53,287.74Z"
            style="fill:#263238"></path>
        <path
            d="M554,415.79c-27.71,0-50.25-28.19-50.25-62.84S526.3,290.1,554,290.1s50.25,28.2,50.25,62.85S581.72,415.79,554,415.79Zm0-121.63c-25.47,0-46.19,26.37-46.19,58.79s20.72,58.78,46.19,58.78S600.2,385.36,600.2,353,579.48,294.16,554,294.16Z"
            style="fill:#c7c7c7"></path>
        <rect x="470.76" y="268.7" width="83.93" height="32.4" style="fill:#a6a6a6"></rect>
        <path
            d="M541.08,379.05H470.76V375h70.32a11.56,11.56,0,0,0,11.54-11.54V206.27a15.62,15.62,0,0,1,15.6-15.6h9.47v4.06h-9.47a11.54,11.54,0,0,0-11.54,11.54V363.45A15.62,15.62,0,0,1,541.08,379.05Z"
            style="fill:#c7c7c7"></path>
        <path d="M472.79,401h-4.06V267a14.06,14.06,0,0,1,14-14h71.88V257H482.77a10,10,0,0,0-10,10Z"
            style="fill:#c7c7c7"></path>
        <ellipse cx="552.08" cy="352.95" rx="8.15" ry="10.27" style="fill:#c7c7c7"></ellipse>
        <path
            d="M562.83,353c0,5.67-3.64,10.27-8.14,10.27s-8.15-4.6-8.15-10.27,3.65-10.28,8.15-10.28S562.83,347.27,562.83,353Z"
            style="fill:#dbdbdb"></path>
        <rect x="554.69" y="350.92" width="73.77" height="4.06" style="fill:#c7c7c7"></rect>
        <ellipse cx="469.24" cy="412.42" rx="10.6" ry="13.37" style="fill:#c7c7c7"></ellipse>
        <ellipse cx="472.64" cy="412.42" rx="10.6" ry="13.37" style="fill:#dbdbdb"></ellipse>
        <rect x="565.12" y="188.52" width="25.15" height="8.07" style="fill:#263238"></rect>
        <rect x="556.75" y="207.14" width="71.71" height="77.76" style="fill:#455a64"></rect>
        <rect x="452.35" y="405.33" width="94.19" height="12.15" style="fill:#263238"></rect>
        <path
            d="M507.82,375.42s0,7.9,0,7.93c0,7.39-.07,13.86-.43,17.21a.11.11,0,0,1,0,.05,10.36,10.36,0,0,1-.53,2.28l0,.05c-2.19,1.5-61.2,3.52-63.28,2.9s-.47-6.61,1.76-8.51,24.48-12.78,24.48-12.78l-.11-8.05Z"
            style="fill:#c7c7c7"></path>
        <path
            d="M443.53,405.84c2.08.62,61.08-1.4,63.28-2.9.84-.56,1.05-9.17,1-19.59V383l-38.08.87,0,.65s-22.24,10.87-24.48,12.78S441.44,405.22,443.53,405.84Z"
            style="fill:#455a64"></path>
        <path
            d="M444.12,403.53c9.94-.59,50.07-2,59.94-1.83.08,0,.08.06,0,.06-9.84.8-50,1.89-59.94,1.93C443.91,403.69,443.91,403.54,444.12,403.53Z"
            style="fill:#263238"></path>
        <path
            d="M466.57,384.77c3.89-.86,8.7-.42,11.78,2.26.12.11,0,.27-.16.24a54.72,54.72,0,0,0-11.59-2A.25.25,0,0,1,466.57,384.77Z"
            style="fill:#263238"></path>
        <path
            d="M463.8,386.57c3.89-.86,8.7-.42,11.79,2.26.12.11,0,.27-.16.24a54.94,54.94,0,0,0-11.59-2A.25.25,0,0,1,463.8,386.57Z"
            style="fill:#263238"></path>
        <path
            d="M461,388.37c3.89-.86,8.69-.43,11.78,2.26.12.1,0,.27-.16.24a54.09,54.09,0,0,0-11.59-2A.25.25,0,0,1,461,388.37Z"
            style="fill:#263238"></path>
        <path
            d="M594,231.43H571.34l-6.23,8.2s-65.68,10.8-79.64,28.8c-16,20.67-20.38,115.36-20.38,115.36h46s5.52-85.33,10.22-91.48S591,285,603.54,275.63s2.89-44.2,2.89-44.2Z"
            style="fill:#263238"></path>
        <path
            d="M509.23,375.4a39.9,39.9,0,0,0-4.09-.25c-1.34,0-2.69-.08-4-.12-2.77-.08-5.53-.08-8.3-.1-5.52,0-11.05-.07-16.58,0-1.55,0-3.1,0-4.65.06s-3.12.05-4.65.24c-.07,0-.1.11,0,.12a73.15,73.15,0,0,0,8.11.38c2.76.07,5.53.12,8.29.15q8.29.11,16.59.08c1.55,0,3.1,0,4.65-.08a42.45,42.45,0,0,0,4.65-.21C509.33,375.65,509.39,375.42,509.23,375.4Z"
            style="fill:#455a64"></path>
        <path
            d="M600.09,269.67c-9.53,3.91-19.65,6.2-29.78,7.91s-20.48,2.82-30.73,4.16a106.42,106.42,0,0,0-15.38,2.69,17.26,17.26,0,0,0-6.23,2.82,10.06,10.06,0,0,0-3.13,5.89c-1.18,5.29-2.05,10.67-3,16s-1.79,10.89-2.6,16.35c-1.64,11-3.68,31.08-5.1,42.1-.17,1.33-.32,2.66-.47,4,0,.13.19.19.21,0,1.62-10.84,3.71-30.78,5.34-41.62s3.39-21.68,5.43-32.45c.45-2.39.72-5,1.74-7.22a8.86,8.86,0,0,1,5.18-4.38c4.84-1.9,10.09-2.55,15.2-3.26,10.1-1.41,20.25-2.49,30.32-4.14a161.41,161.41,0,0,0,29.52-7.45c1.17-.43,2.33-.87,3.48-1.34C600.2,269.76,600.17,269.64,600.09,269.67Z"
            style="fill:#455a64"></path>
        <path
            d="M542.45,377.4v7.93c0,7.39-.06,13.86-.43,17.21v0a9.55,9.55,0,0,1-.54,2.28.1.1,0,0,1,0,.05c-2.19,1.5-61.2,3.52-63.28,2.9s-.47-6.61,1.76-8.51,24.48-12.78,24.48-12.78l-.11-8Z"
            style="fill:#c7c7c7"></path>
        <path
            d="M478.16,407.82c2.09.62,61.09-1.4,63.28-2.9.85-.56,1-9.17,1-19.59,0-.11,0-.21,0-.32l-38.08.87,0,.65s-22.24,10.87-24.48,12.78S476.08,407.2,478.16,407.82Z"
            style="fill:#455a64"></path>
        <path
            d="M478.75,405.51c9.94-.59,50.07-2,59.94-1.83.08,0,.08.06,0,.06-9.83.8-50,1.89-59.93,1.93C478.55,405.67,478.54,405.52,478.75,405.51Z"
            style="fill:#263238"></path>
        <path
            d="M501.2,386.75c3.89-.86,8.7-.42,11.79,2.26.12.11,0,.27-.16.24a54.83,54.83,0,0,0-11.59-2A.25.25,0,0,1,501.2,386.75Z"
            style="fill:#263238"></path>
        <path
            d="M498.44,388.55c3.89-.86,8.69-.42,11.78,2.26.12.11,0,.27-.16.24a54.72,54.72,0,0,0-11.59-2A.25.25,0,0,1,498.44,388.55Z"
            style="fill:#263238"></path>
        <path
            d="M495.67,390.35c3.89-.86,8.7-.43,11.78,2.26.12.11,0,.27-.16.24a54.09,54.09,0,0,0-11.59-2A.25.25,0,0,1,495.67,390.35Z"
            style="fill:#263238"></path>
        <path
            d="M499.83,385.81l46.8,0s-5.29-85,2.89-91.09c10.45-7.76,42.72-6.48,61.05-19.2,14.88-10.32,4.44-44.13,4.44-44.13h-41.4s-5.2,6.33-6.16,10.05c0,0-46.69,13.65-58.61,28.77C492.86,290.5,499.83,385.81,499.83,385.81Z"
            style="fill:#263238"></path>
        <path
            d="M565.7,242.46a258.53,258.53,0,0,0-30.18,10.3,107.36,107.36,0,0,0-14,7.13c-4.41,2.69-8.84,5.69-12.14,9.71a34.51,34.51,0,0,0-6.3,13.09,117.49,117.49,0,0,0-2.76,15.7,311.45,311.45,0,0,0-2.2,34.81c-.07,5.83,0,11.66.1,17.49s1,30.37,1.1,31.81c0,.08.13.08.13,0,.11-11.54-.35-32.94-.33-44.48a338.84,338.84,0,0,1,1.62-34.46c.58-5.51,1.27-11,2.35-16.47A42.08,42.08,0,0,1,508,273.27c2.68-4.43,6.69-7.71,11-10.55a108.44,108.44,0,0,1,13.68-7.66A233.5,233.5,0,0,1,562.05,244c1.25-.4,2.5-.83,3.75-1.24A.16.16,0,0,0,565.7,242.46Z"
            style="fill:#455a64"></path>
        <path
            d="M572.18,242.47c-.64-.17-1.26-.41-1.92-.53s-1.32-.22-2-.31c-1.29-.17-2.59-.31-3.89-.43-2.65-.25-5.31-.27-8-.44-.08,0-.08.12,0,.13,2.68.17,5.34.65,8,1,1.28.19,2.57.39,3.85.6.66.1,1.32.21,2,.29s1.26.06,1.89.11C572.4,243,572.43,242.53,572.18,242.47Z"
            style="fill:#263238"></path>
        <path
            d="M575.92,232.08c-.89,1.28-1.72,2.61-2.58,3.91l-1.26,1.92a12.81,12.81,0,0,1-1.18,1.66c-.78.89-2.5,1.46-2.93-.07a2.91,2.91,0,0,1,.27-1.9c.27-.64.57-1.27.89-1.88.74-1.45,1.61-2.82,2.45-4.22,0-.07-.06-.14-.12-.08a21.85,21.85,0,0,0-2.91,4c-.74,1.25-1.74,2.75-1.39,4.27a2.08,2.08,0,0,0,3,1.38c1.37-.63,2.07-2.29,2.79-3.51,1.05-1.79,2.15-3.56,3.16-5.37A.09.09,0,0,0,575.92,232.08Z"
            style="fill:#263238"></path>
        <path
            d="M607.69,252.24c-.93-.24-1.93-.29-2.88-.47s-1.92-.35-2.87-.59a35.52,35.52,0,0,1-5.32-1.73,12.47,12.47,0,0,1-4.09-2.61,8.89,8.89,0,0,1-2.25-4.63c-.21-1-.35-2-.47-3a6.1,6.1,0,0,1,.19-3.06h0l.06-.19c0-.08-.1-.12-.14,0a4.46,4.46,0,0,0-.7,2.47,28.69,28.69,0,0,0,.1,2.93,11,11,0,0,0,1.6,5.44c2.16,3.13,6.17,4.48,9.72,5.27a29.36,29.36,0,0,0,3.5.58c.59.06,1.19.07,1.78.09a10.35,10.35,0,0,0,1.76,0C607.91,252.61,607.87,252.29,607.69,252.24Z"
            style="fill:#263238"></path>
        <path
            d="M612.79,239.06c-.33-1.53-.67-3.06-1-4.59,0-.08-.13,0-.12,0,2.22,11.09,4.58,24.25-2.61,34-3.32,4.51-8.29,6.75-13.43,8.24-5.67,1.65-11.45,2.85-17.19,4.19s-11.7,2.8-17.42,4.68c-4.92,1.62-10.2,3.39-14.28,6.8a15.88,15.88,0,0,0-4.44,5.89,26.24,26.24,0,0,0-1.81,7.63c-.31,2.87-.4,5.76-.53,8.64q-.21,4.94-.34,9.88-.54,19.63.21,39.27c.06,1.61.33,8.84.42,10.44a.21.21,0,0,0,.41,0c-.42-13.14-.88-31.89-.62-45,.12-6.48.32-13,.66-19.44.29-5.5,1-11.35,4.85-15.49,3.7-4,9.07-5.85,14-7.55a177.31,177.31,0,0,1,17.37-4.82c5.83-1.37,11.7-2.6,17.5-4.16,5-1.33,10.06-3.16,13.71-7.09C615.9,262.23,615,249.52,612.79,239.06Z"
            style="fill:#455a64"></path>
        <path
            d="M543.37,377a39.65,39.65,0,0,0-4.08-.17l-4,0c-2.76,0-5.53,0-8.29.08-5.53.08-11.06.18-16.59.37-1.55.05-3.1.08-4.65.17s-3.11.12-4.64.34c-.06,0-.09.11,0,.12a73.08,73.08,0,0,0,8.11.2c2.77,0,5.53,0,8.3,0q8.28-.09,16.58-.3c1.55,0,3.1-.11,4.65-.18a42.36,42.36,0,0,0,4.64-.31C543.48,377.19,543.54,377,543.37,377Z"
            style="fill:#455a64"></path>
        <path
            d="M572.7,178.61c-4,19.09-12.11,39.19-14.61,43.24-6.73,10.88-29,23.19-36,25.19-3,.87-12.41-18.23-10.77-21.16S540.77,209,542,207.35c.88-1.13,13.3-17.76,20.25-28.31C571.29,165.39,573.76,173.6,572.7,178.61Z"
            style="fill:#eb9481"></path>
        <path
            d="M524.66,246.12c-2.63,1.83-15.54,9.31-19.55,10.54s-15.83,3.95-17.09,1,2.14-4,2.14-4-5.17.35-6.17-2.76,4.35-4.61,4.35-4.61-5.34,0-6.11-3.2,4.86-3.78,4.86-3.78-4.88.21-4.42-2.67c.57-3.47,9.61-2.84,13.94-4.53,1-.39,19.38-9.22,19.38-9.22Z"
            style="fill:#eb9481"></path>
        <path
            d="M486.6,239.29c6.65.46,9.64-.5,15.41-3.62.12-.06.23.1.12.17-5.37,3.57-8.95,5.31-15.56,3.78C486.24,239.54,486.29,239.27,486.6,239.29Z"
            style="fill:#263238"></path>
        <path
            d="M487.81,246.17c6.95-.14,10.2-1.14,16.48-4,.09,0,.17.11.08.16-5.93,3.28-9.54,4.93-16.5,4.16C487.56,246.48,487.49,246.17,487.81,246.17Z"
            style="fill:#263238"></path>
        <path
            d="M490.47,253.42c6.72-.61,10.33-1.56,16.08-5.08a.12.12,0,0,1,.14.2c-5.51,4.16-10,5.38-16.18,5.09C490.09,253.61,490.05,253.46,490.47,253.42Z"
            style="fill:#263238"></path>
        <path
            d="M519.64,220.75s-8.08-2.1-11.83-2.23-17.94,4.5-17.11,7.62c1.07,4,9.78,3,14,1.88,0,0,2.47,9.32,8.88,9.91S519.64,220.75,519.64,220.75Z"
            style="fill:#eb9481"></path>
        <path
            d="M491.36,227.15c3.62,3,9,1.19,13.19.45a.38.38,0,0,1,.47.43c1.29,3.83,4.24,8.87,8.34,10.06a.1.1,0,0,1,0,.2c-4.57-.69-7.87-5.4-9-9.69-4.25.83-9.76,2.37-13-1.42C491.31,227.16,491.33,227.13,491.36,227.15Z"
            style="fill:#263238"></path>
        <path
            d="M519.69,219.59,532.92,243s22.32-11.9,25.46-19.64c1-2.36,11.58-26.82,13.84-40.77s-1.39-14.87-10-4.6-19.87,27.29-21.05,28.51S519.69,219.59,519.69,219.59Z"
            style="fill:#ebebeb"></path>
        <path
            d="M617.76,244.23,560.11,248c-.26-.25-5.63-3.32-5.07-11.81,1.28-19.35,6.86-54.41,10.92-61.79a12.59,12.59,0,0,1,17.09-5.44c3.48,2.11,6.69,4.89,10.77,10.79,10,14.52,20.88,40.25,24.58,54.41C619.93,240,617.9,244.06,617.76,244.23Z"
            style="fill:#FFC727"></path>
        <path
            d="M572.27,181.39c1-.31,6.09-7.25,7-11.79.06-.31-1.23-3-2.64-6.31-.85-2-1.75-4.29-2.42-6.42-.13-.44-1.37.83-1.37.83l-2.54,1.54-8.42,5.08a35.36,35.36,0,0,1,3.86,7.77,5.12,5.12,0,0,1,.18.9l0,.15C566.19,174.89,570.67,181.91,572.27,181.39Z"
            style="fill:#eb9481"></path>
        <path
            d="M565.91,173l0,.15a9.54,9.54,0,0,0,1.4-.35c8.93-3,6.45-14.83,6.45-14.83l-3.5,1.28-8.42,5.08a35.36,35.36,0,0,1,3.86,7.77A5.12,5.12,0,0,1,565.91,173Z"
            style="fill:#263238"></path>
        <path d="M569.6,171.16h0"
            style="fill:none;stroke:#f4a69d;stroke-linecap:round;stroke-linejoin:round;stroke-width:0px"></path>
        <path
            d="M571.71,144.13c2.37,4.62,2.35,19.2-.56,23-4.21,5.47-12.38,7.4-17.35,2C549,164,549.35,145,552.71,141.4,557.66,136.16,568.2,137.32,571.71,144.13Z"
            style="fill:#eb9481"></path>
        <path
            d="M559.47,155.08s.07,0,.07.08c0,1,.11,2.12,1,2.44,0,0,0,.06,0,.05C559.44,157.5,559.28,156,559.47,155.08Z"
            style="fill:#263238"></path>
        <path d="M560.34,154.05c1.58-.13,1.71,3,.25,3.16S559,154.15,560.34,154.05Z"
            style="fill:#263238"></path>
        <path
            d="M553.79,155.48s-.07.05-.07.09c.07,1,0,2.11-.88,2.48,0,0,0,.06,0,0C553.93,157.9,554,156.39,553.79,155.48Z"
            style="fill:#263238"></path>
        <path d="M552.87,154.49c-1.58-.05-1.57,3.12-.1,3.17S554.2,154.53,552.87,154.49Z"
            style="fill:#263238"></path>
        <path
            d="M561.53,152.55c-.44-.09-.82-.25-1.25-.38a2.13,2.13,0,0,1-1.19-.63.68.68,0,0,1,.07-.82,1.67,1.67,0,0,1,1.67-.24,2.44,2.44,0,0,1,1.45,1A.72.72,0,0,1,561.53,152.55Z"
            style="fill:#c7c7c7"></path>
        <path
            d="M551.58,153c.44-.09.82-.25,1.25-.38a2.13,2.13,0,0,0,1.19-.63.66.66,0,0,0-.07-.82,1.67,1.67,0,0,0-1.67-.24,2.4,2.4,0,0,0-1.45,1A.72.72,0,0,0,551.58,153Z"
            style="fill:#c7c7c7"></path>
        <path
            d="M560.76,164.15c-.23.24-.45.56-.8.61a2.82,2.82,0,0,1-1.07-.2s-.06,0,0,.05a1.34,1.34,0,0,0,1.27.48,1.06,1.06,0,0,0,.74-.9C560.87,164.13,560.79,164.11,560.76,164.15Z"
            style="fill:#263238"></path>
        <path
            d="M559.6,161.25a3.3,3.3,0,0,1-2.16,1.58,4,4,0,0,1-1.2.11.86.86,0,0,1-.23,0l-.22,0a.25.25,0,0,1-.21-.21h0a.31.31,0,0,1,0-.1h0v-.08c-.06-.76,0-1.91,0-1.91-.27.15-1.65.84-1.65.45a50.46,50.46,0,0,1,.87-10.17.09.09,0,0,1,.18,0c.07,3.15-.41,6.29-.39,9.45a5.86,5.86,0,0,1,1.55-.54c.11,0-.08,2.22,0,2.56a.1.1,0,0,0,0,0,4.66,4.66,0,0,0,3.41-1.22C559.58,161.11,559.66,161.17,559.6,161.25Z"
            style="fill:#263238"></path>
        <path
            d="M556.67,162.54a3.93,3.93,0,0,0,1.64,1.16,1.73,1.73,0,0,0,1.08,0c.78-.24.77-1,.6-1.57a4,4,0,0,0-.4-.92A5.09,5.09,0,0,1,556.67,162.54Z"
            style="fill:#263238"></path>
        <path
            d="M558.31,163.7a1.73,1.73,0,0,0,1.08,0c.78-.24.77-1,.6-1.57A1.84,1.84,0,0,0,558.31,163.7Z"
            style="fill:#ff99ba"></path>
        <path
            d="M550.82,146.3c.49-1.27.84-3.72,2.1-4.19.9-.34,1.41,1.47,3.12,1.51,2.31.06,3.64-2.05,6.84-2.42,4.61-.52,6.11,4.61,6.5,11.17.36,5.86,3.92,6.25,3.92,6.25s1.58-13-2.25-17.13-12.26-5.64-17.7-1.32C551.37,141.75,550.82,146.3,550.82,146.3Z"
            style="fill:#c7c7c7"></path>
        <path d="M572.53,136.17a1.36,1.36,0,1,1-1.36-1.35A1.35,1.35,0,0,1,572.53,136.17Z"
            style="fill:#37474f"></path>
        <path
            d="M573.23,148.82c-.6-.55-8.89-6.13-11-6.49a65,65,0,0,0-9.94-.18c-1.3.15-3.6-1.86-3-3.22.74-1.58,5-1.86,7.68-2.39s10.46-1.92,14.75.45c3.29,1.82,7.23,5.64,6.49,8.58C577.6,148.29,573.23,148.82,573.23,148.82Z"
            style="fill:#455a64"></path>
        <g style="opacity:0.2">
            <path
                d="M557.44,147.83a10.73,10.73,0,0,1-1.6.18c-.55,0-1.09-.1-1.63-.09a8.81,8.81,0,0,0-3,.77c-.08,0-.07.09,0,.06a7.49,7.49,0,0,1,3.17-.56,9.87,9.87,0,0,0,2.66-.06,9.55,9.55,0,0,1,5.93.38s0,0,0,0A9.69,9.69,0,0,0,557.44,147.83Z"></path>
            <path
                d="M557.42,146.39a9.82,9.82,0,0,1-1.52.17c-.52,0-1-.1-1.55-.08a8.15,8.15,0,0,0-2.82.72c-.08,0-.07.09,0,.06a7.07,7.07,0,0,1,3-.53,9.24,9.24,0,0,0,2.52-.06,9.11,9.11,0,0,1,5.63.36s0,0,0,0A9.14,9.14,0,0,0,557.42,146.39Z"></path>
        </g>
        <path
            d="M551.45,161.63c-1.63,0-3-2-3-4.48s1.34-4.48,3-4.48,3,2,3,4.48S553.09,161.63,551.45,161.63Zm0-8.36c-1.3,0-2.36,1.74-2.37,3.88s1.06,3.88,2.37,3.88,2.36-1.74,2.36-3.88S552.77,153.27,551.46,153.27Z"
            style="fill:#455a64"></path>
        <path
            d="M561.5,161.64a4.49,4.49,0,1,1,4.19-4.48A4.34,4.34,0,0,1,561.5,161.64Zm0-8.36a3.89,3.89,0,1,0,3.58,3.88A3.74,3.74,0,0,0,561.51,153.28Z"
            style="fill:#455a64"></path>
        <path d="M557.52,156.75c-2.24-.79-3.26-.06-3.26-.05l-.37-.47s1.25-1,3.83,0Z"
            style="fill:#455a64"></path>
        <path
            d="M565.39,156.77l-.11-.59c.39-.07,6.93-1.34,7.93-1.4s3.49,1.32,3.77,1.47l-.3.52a11.51,11.51,0,0,0-3.39-1.39h0C572.48,155.42,568.67,156.17,565.39,156.77Z"
            style="fill:#455a64"></path>
        <path d="M570.86,156.26s2.45-5.1,4.71-4.3.94,7.84-1.35,9.14a2.51,2.51,0,0,1-3.54-.79Z"
            style="fill:#eb9481"></path>
        <path
            d="M575.14,154a0,0,0,0,1,0,.06,6.34,6.34,0,0,0-2.6,4.45,1.38,1.38,0,0,1,2-.7c.05,0,0,.1,0,.09a1.55,1.55,0,0,0-1.59.81,7.09,7.09,0,0,0-.58,1.49c-.06.17-.35.13-.32-.06v0C571.64,157.9,572.84,154.57,575.14,154Z"
            style="fill:#263238"></path>
        <path
            d="M566,173.33l5.49,7.09,7.06-12.85,3.72,2.45s-5.19,18.72-5.46,18l-5.2-5.95-3.4,6.11-3-12.1Z"
            style="fill:#ebebeb"></path>
        <path
            d="M566.36,182.3c-.43-2-.91-4-1.24-6.06a.07.07,0,0,1,.13-.06c.93,1.8,2.51,9.51,3,11.32v0c.14-.27,3.22-5.44,3.28-5.39,1,.89,4.83,5.22,5.12,5.63.81-3,4.09-13.87,5.22-16.78,0-.09.16-.06.14,0-.6,3.07-4.87,17.7-5,17.69a81.89,81.89,0,0,1-5.47-6.29c-.46,1.07-3.43,6.77-3.52,6.48A61.75,61.75,0,0,1,566.36,182.3Z"
            style="fill:#263238"></path>
        <path
            d="M570.9,224.76s-11.43,2.61-18.58,3.32c-4,.4-10.77,1.69-13.57,3.32-4.18,2.44-20.12,15.32-17.08,19.25,2.75,3.56,15-9.24,15-9.24s-13.54,11.82-9.44,15.49,16.06-12.63,16.06-12.63-13.64,12.46-8.81,15.58c3.65,2.36,15.31-11.8,15.31-11.8s-11.65,10.79-8,13.37c4,2.86,15.62-9.53,15.62-9.53,10.38,5,19.36.86,24.18-1C582.8,250.38,570.9,224.76,570.9,224.76Z"
            style="fill:#eb9481"></path>
        <path
            d="M540.33,237.71c-6.17,4.9-11.21,11.26-12.79,14.16-.2.36-.36.68-.34.65,2.77-3.21,11.67-13.29,13.19-14.76C540.42,237.73,540.37,237.68,540.33,237.71Z"
            style="fill:#263238"></path>
        <path
            d="M546.55,242.4c-5.2,3-9.64,9.19-11.44,11.19-.14.15,0,.17.13,0,1.88-1.93,9.39-9.35,11.36-11.18C546.63,242.41,546.58,242.38,546.55,242.4Z"
            style="fill:#263238"></path>
        <path
            d="M551.53,246.65a27.85,27.85,0,0,0-8.1,8.45c-.12.18,0,.17.18,0,2.8-3,4.48-4.94,8-8.36A.07.07,0,0,0,551.53,246.65Z"
            style="fill:#263238"></path>
        <path
            d="M584,181.6c.77,7.58,11.09,34.84,10.9,36.29s-27.33,7.21-32.85,9.54c-3.74,1.58,5.9,28.13,13.11,25.74,11.18-3.71,42.95-13.44,45.95-23.88s-23.32-46.16-28.56-52.57S582.78,169.13,584,181.6Z"
            style="fill:#eb9481"></path>
        <path
            d="M562.35,225.21,580.74,255s36.37-13.38,41.1-24.33c4.36-10.07-25-50.29-29.75-55.49s-10-6.73-8,8.63,10.84,32.65,10,33.64S562.35,225.21,562.35,225.21Z"
            style="fill:#ebebeb"></path>
        <rect x="544.57" y="268.7" width="84.05" height="32.4" style="fill:#a6a6a6"></rect>
        <path
            d="M614.89,379.05H544.57V375h70.32a11.56,11.56,0,0,0,11.54-11.54V206.27A15.61,15.61,0,0,1,642,190.67h9.48v4.06H642a11.54,11.54,0,0,0-11.53,11.54V363.45A15.62,15.62,0,0,1,614.89,379.05Z"
            style="fill:#c7c7c7"></path>
        <path d="M546.6,401h-4.06V267a14.05,14.05,0,0,1,14-14h71.88V257H556.58a10,10,0,0,0-10,10Z"
            style="fill:#c7c7c7"></path>
        <rect x="638.92" y="188.52" width="25.15" height="8.07" style="fill:#263238"></rect>
        <path
            d="M624.14,423.84c-31.32,0-56.8-31.8-56.8-70.89s25.48-70.89,56.8-70.89,56.79,31.8,56.79,70.89S655.46,423.84,624.14,423.84Zm0-136.1C596,287.74,573,317,573,353s22.93,65.2,51.12,65.2,51.11-29.25,51.11-65.2S652.32,287.74,624.14,287.74Z"
            style="fill:#263238"></path>
        <path
            d="M628.62,415.79c-27.71,0-50.25-28.19-50.25-62.84s22.54-62.85,50.25-62.85,50.25,28.2,50.25,62.85S656.33,415.79,628.62,415.79Zm0-121.63c-25.47,0-46.19,26.37-46.19,58.79s20.72,58.78,46.19,58.78,46.19-26.37,46.19-58.78S654.09,294.16,628.62,294.16Z"
            style="fill:#c7c7c7"></path>
        <ellipse cx="626.7" cy="352.95" rx="8.15" ry="10.27" style="fill:#c7c7c7"></ellipse>
        <ellipse cx="629.31" cy="352.95" rx="8.15" ry="10.27" style="fill:#dbdbdb"></ellipse>
        <ellipse cx="545.71" cy="412.42" rx="10.6" ry="13.37" style="fill:#c7c7c7"></ellipse>
        <ellipse cx="549.11" cy="412.42" rx="10.6" ry="13.37" style="fill:#dbdbdb"></ellipse>
    </g>
</svg>