<svg width="65" height="47" viewBox="0 0 65 47" fill="none" xmlns="http://www.w3.org/2000/svg">
<path d="M4.07317 0.458984H4.07318L23.1341 0.459605C24.8829 0.459605 26.1797 1.9605 26.1797 3.6936V5.27123H54.8264C56.1089 5.27123 57.0932 6.37497 57.0926 7.64484M4.07317 0.458984L56.8426 7.64471M4.07317 0.458984C2.32163 0.458984 1.05469 1.9708 1.05469 3.69298L1.05467 43.9076L1.0547 43.9103M4.07317 0.458984L1.0547 43.9103M57.0926 7.64484L56.8426 7.64471M57.0926 7.64484V7.64471H56.8426M57.0926 7.64484V7.77093M56.8426 7.64471V7.77093C56.9259 7.77093 57.0092 7.77093 57.0926 7.77093M57.0926 7.77093C57.6073 7.77095 58.1215 7.771 58.6355 7.77106C59.8291 7.77119 61.0218 7.77133 62.2188 7.77093H62.2188C62.8502 7.77093 63.4575 8.05064 63.8357 8.50629C64.2169 8.96562 64.3515 9.57778 64.2384 10.1899M57.0926 7.77093V8.02093H56.8426C57.4408 8.02093 58.0382 8.02099 58.6354 8.02106C59.8291 8.02119 61.0218 8.02133 62.2188 8.02093L64.2384 10.1899M64.2384 10.1899L64.2384 10.1895L63.9925 10.1444L64.2384 10.1899ZM64.2384 10.1899L58.0827 43.7913M64.2384 10.1899L58.0827 43.7913M1.0547 43.9103C1.06152 44.5518 1.25427 45.0778 1.65961 45.4395C2.06045 45.7971 2.63041 45.959 3.3208 45.959H7.64886C24.0464 45.959 40.3908 45.959 55.4987 45.905M1.0547 43.9103L58.0827 43.7913M58.0827 43.7913L58.0827 43.7915C57.8576 45.0149 56.7333 45.9046 55.4987 45.905M55.4987 45.905L55.4978 45.655V45.905C55.4981 45.905 55.4984 45.905 55.4987 45.905ZM56.5144 43.5127L56.5144 43.5126L62.6971 9.91089C62.7325 9.7181 62.6853 9.6074 62.6164 9.52432C62.5657 9.46362 62.4507 9.39962 62.2171 9.3996L56.5144 43.5127ZM56.5144 43.5127C56.4793 43.7036 56.3451 43.9027 56.1439 44.0582C55.9432 44.2133 55.7043 44.3027 55.4966 44.3027H3.15766C2.95721 44.3027 2.85337 44.2329 2.78515 44.1509L2.78481 44.1505M56.5144 43.5127L2.78481 44.1505M2.78481 44.1505C2.74098 44.0981 2.7133 44.0502 2.7005 44.0057C2.70035 44.0037 2.69978 43.9957 2.70051 43.9788C2.70108 43.9658 2.70217 43.9513 2.7037 43.9319L2.70404 43.9277C2.70506 43.9149 2.70624 43.9 2.70726 43.8845L8.72581 11.0764L8.72991 11.054M2.78481 44.1505L8.72991 11.054M8.72991 11.054V11.0313V11.0249M8.72991 11.054V11.0249M8.72991 11.0249C8.84106 10.3637 9.03671 10.0514 9.28135 9.85523L9.2814 9.85519C9.52423 9.66035 9.90401 9.5382 10.4287 9.47998H10.469C10.469 9.47998 10.469 9.47998 10.469 9.47998C19.6444 9.48141 28.8007 9.48091 37.9605 9.48041C44.0708 9.48007 50.1826 9.47974 56.3026 9.47998H56.8403H57.089L57.0894 9.39961C57.6045 9.39962 58.1191 9.39968 58.6335 9.39974C59.8273 9.39987 61.0203 9.4 62.217 9.3996L8.72991 11.0249ZM25.9297 5.52123V5.27123L26.1797 5.52123H25.9297ZM6.24399 15.7437L2.62731 35.4123V3.69227C2.62731 2.70363 3.23473 2.05057 4.03886 2.03386L4.04027 2.03424H4.07317H23.1313C23.9578 2.03424 24.6016 2.70208 24.6016 3.69298V6.59587V6.84587H24.8516H54.8237C55.177 6.84587 55.515 7.15439 55.5145 7.64387V7.64412V7.7703C48.0334 7.769 40.5642 7.76292 33.0947 7.75684L33.0909 7.75684C25.5368 7.75069 17.9824 7.74454 10.4148 7.74334H10.4147H10.3877H10.1377V7.79682C9.49233 7.87996 8.83003 8.06364 8.29444 8.49824L8.29442 8.49826C7.69028 8.98855 7.33654 9.73591 7.18399 10.6681L7.18071 10.6882V10.6927C7.17358 10.7104 7.16287 10.7402 7.15711 10.7748L7.155 10.7875L7.15419 10.8003C7.15372 10.8078 7.15356 10.8149 7.15354 10.8209L6.24402 15.7435L6.24399 15.7437Z" fill="white" stroke="white" stroke-width="0.5"/>
<path d="M29.7282 14.4297H29.52L29.4824 14.6345L27.9726 22.8433H19.6256H19.4174L19.3797 23.048L17.8322 31.4616L17.778 31.7569H18.0781H26.3332L24.8353 39.9023L24.781 40.1975H25.0811H33.6634H33.8716L33.9093 39.9927L35.4238 31.7569H43.7978H44.006L44.0437 31.5521L45.5912 23.1385L45.6455 22.8433H45.3453H37.0632L38.5564 14.7249L38.6107 14.4297H38.3105H29.7282Z" fill="white" stroke="white" stroke-width="0.5"/>
</svg>
