<svg width="62" height="46" viewBox="0 0 62 46" fill="none" xmlns="http://www.w3.org/2000/svg">
<path d="M16.4642 27.98C16.8326 27.5301 17.2665 26.9882 17.7134 26.4583C19.2906 24.5873 20.8656 22.7155 22.4573 20.8566C22.7937 20.4638 23.1659 20.0862 23.5785 19.7779C23.9896 19.4712 24.4722 19.2603 24.9365 19C24.699 18.4915 24.3923 18.0903 23.6927 18.0751C22.8165 18.0561 22.0515 17.6968 21.4235 17.0612C20.6905 16.3205 20.5352 15.5928 20.9835 14.642C21.2751 14.0239 21.6275 13.4347 21.9366 12.825C22.7777 11.1648 23.3007 9.39724 23.73 7.59392C24.2339 5.47774 25.0728 3.51762 26.6911 1.99595C28.2387 0.542027 30.0991 -0.0326901 32.2115 0.165987C32.6598 0.207854 33.1188 0.216227 33.5664 0.17436C36.6341 -0.111856 38.9193 1.15328 40.5643 3.68584C41.4899 5.1116 41.936 6.72081 42.3212 8.35437C42.7825 10.3122 43.4904 12.1772 44.5066 13.9204C44.6847 14.2264 44.8438 14.5461 44.9763 14.8742C45.2838 15.6324 45.1323 16.3174 44.5835 16.9127C44.0065 17.5384 43.3145 17.9936 42.449 18.0309C41.6482 18.066 41.0956 18.375 40.8444 19.1926C42.9758 20.176 44.263 22.1362 45.8189 23.8009C47.03 25.0965 48.1871 26.4431 49.3692 27.7661C49.4172 27.8202 49.4766 27.8651 49.5603 27.942C50.1533 27.2729 50.7333 26.6243 51.3065 25.9689C51.8242 25.3774 52.3418 24.7852 52.8396 24.1777C52.9477 24.0461 53.0322 23.8436 53.0254 23.6776C52.9553 21.8408 52.8685 20.004 52.781 18.168C52.7178 16.8511 52.6455 15.5342 52.58 14.2173C52.526 13.128 52.4674 12.0394 52.4278 10.9501C52.4111 10.4911 52.6722 10.1638 53.0923 10.045C53.4402 9.94684 53.8498 10.1014 54.0347 10.447C54.1261 10.6182 54.1702 10.8306 54.1801 11.0278C54.2707 12.8258 54.3468 14.6245 54.4328 16.4233C54.5318 18.4998 54.6368 20.5764 54.7404 22.653C54.7411 22.6751 54.7602 22.6964 54.7556 22.6858C55.3311 22.5655 55.8913 22.3897 56.463 22.3409C58.2587 22.1872 59.9022 23.1082 60.668 24.6421C61.4649 26.2384 61.2267 28.2 60.0696 29.5588C59.7126 29.9782 59.1859 30.049 58.7938 29.7301C58.4307 29.4355 58.3699 28.8676 58.7162 28.471C59.565 27.4989 59.5132 26.042 59.026 25.2739C58.3181 24.158 56.9928 23.7591 55.6485 24.2843C54.8553 24.5941 54.853 24.5941 54.8827 25.4414C54.9116 26.2521 54.9482 27.0635 54.9764 27.8742C54.9977 28.4809 54.678 28.8653 54.1451 28.8866C53.6351 28.9072 53.2842 28.5235 53.2552 27.9199C53.2438 27.6923 53.2126 27.4654 53.2035 27.2371C53.1943 27.0133 53.2012 26.7895 53.2012 26.4568C52.7627 26.941 52.3981 27.336 52.0419 27.7395C51.4466 28.4147 50.8597 29.0967 50.2644 29.7712C49.8283 30.2652 49.2931 30.2796 48.8554 29.7925C46.7377 27.4342 44.6398 25.0592 42.5038 22.717C41.9702 22.1316 41.3544 21.6079 40.7203 21.1306C40.1296 20.6868 39.443 20.4409 38.6696 20.4341C38.1459 20.4295 37.6237 20.3054 37.049 20.2278C37.049 20.7013 37.0322 21.1557 37.0535 21.6079C37.0779 22.1179 36.9234 22.5282 36.5747 22.9164C35.7024 23.8877 34.8377 24.8689 34.027 25.8912C33.3495 26.7453 32.4665 26.6692 31.8636 25.9164C31.0087 24.8484 30.0884 23.8314 29.1902 22.7984C28.936 22.5061 28.8073 22.1879 28.8225 21.7944C28.8423 21.2775 28.8271 20.7591 28.8271 20.2111C28.4198 20.275 28.0499 20.342 27.6769 20.3884C27.243 20.4417 26.8076 20.4798 26.3722 20.5186C25.187 20.6244 24.3451 21.2882 23.6158 22.1666C21.527 24.6832 19.4261 27.1899 17.3297 29.7004C17.2566 29.7879 17.1851 29.877 17.1082 29.9615C16.704 30.4045 16.1673 30.4106 15.7464 29.9759C14.8915 29.0929 14.0375 28.2091 13.2519 27.3969C12.6277 27.6451 12.0522 27.8872 11.4653 28.0988C11.2933 28.1604 11.09 28.149 10.9013 28.149C9.50671 28.1528 8.11216 28.1513 6.59277 28.1513C6.86072 28.5205 7.04646 28.8486 7.29918 29.1127C9.66808 31.5859 12.0431 34.0522 14.4264 36.5102C15.5036 37.6208 17.1569 37.6611 18.2843 36.5924C19.0569 35.8601 19.7922 35.0875 20.5314 34.3202C20.8435 33.9967 21.1845 33.8307 21.6169 34.0187C22.0477 34.206 22.1551 34.5759 22.1528 35.0182C22.1444 36.8322 22.1467 38.6462 22.1505 40.4601C22.1535 42.166 23.3273 43.3695 25.0332 43.3725C30.2848 43.3824 35.5372 43.3809 40.7888 43.3718C42.4612 43.3687 43.6495 42.1409 43.6571 40.4304C43.6662 38.5023 43.6655 36.5741 43.6548 34.646C43.6525 34.2136 43.7621 33.8688 44.1793 33.6846C44.6033 33.4973 44.9336 33.6754 45.2419 33.9639C46.131 34.7952 47.0247 35.6226 47.9214 36.4447C49.1272 37.5508 50.8209 37.4549 51.9208 36.24C52.593 35.497 53.2811 34.7693 53.9693 34.0408C54.3689 33.6176 54.8736 33.5749 55.2542 33.9145C55.6538 34.2715 55.6698 34.7716 55.255 35.2237C54.4846 36.0656 53.7211 36.9167 52.9089 37.7175C51.2388 39.364 48.4862 39.3663 46.7735 37.7601C46.3396 37.3529 45.8973 36.9555 45.3774 36.4797C45.3774 36.6906 45.3774 36.8185 45.3774 36.9471C45.3774 38.1651 45.382 39.383 45.3767 40.601C45.3653 43.1099 43.3572 45.1218 40.8528 45.1241C35.5882 45.1287 30.3236 45.1294 25.0591 45.1249C22.3903 45.1226 20.4043 43.1328 20.3883 40.4571C20.3814 39.3297 20.3875 38.2031 20.2969 37.0065C20.1165 37.2075 19.9392 37.4115 19.7549 37.6094C18.8559 38.5792 17.7453 39.0998 16.4216 39.1036C15.1892 39.1067 14.106 38.6819 13.2412 37.7928C11.243 35.7383 9.26007 33.6686 7.27026 31.6057C6.84778 31.1672 6.42226 30.7326 5.99979 30.2941C5.48825 29.7635 5.14342 29.1317 4.92876 28.4337C4.85873 28.2069 4.74531 28.1551 4.52608 28.1452C3.90949 28.1178 3.27844 28.1315 2.68013 28.0021C1.31603 27.7075 0.213793 26.3289 0.209987 24.9374C0.197047 19.9774 0.194002 15.0181 0.210749 10.058C0.216838 8.33154 1.74231 6.85478 3.56618 6.82814C6.02643 6.79236 8.48896 6.7878 10.9492 6.8289C12.8408 6.86011 14.2871 8.39015 14.2894 10.278C14.2947 15.0858 14.2925 19.8936 14.2902 24.7015C14.2902 24.9032 14.2978 25.1201 14.2308 25.3036C14.09 25.691 14.2361 25.9438 14.5155 26.1927C15.1572 26.7689 15.7867 27.3581 16.4642 27.98ZM12.5356 17.4851C12.5356 15.0881 12.5379 12.6918 12.5341 10.2947C12.5325 9.31579 11.8459 8.59264 10.8807 8.58807C8.44633 8.57665 6.01121 8.58198 3.57608 8.58655C2.98462 8.58731 2.54159 8.87276 2.20742 9.34928C1.93338 9.73979 1.94784 10.1851 1.94784 10.6296C1.9486 15.3088 1.9486 19.988 1.95012 24.6672C1.95012 25.7146 2.63065 26.4249 3.6758 26.4294C6.04698 26.4401 8.41817 26.4416 10.7894 26.4302C11.8429 26.4249 12.5341 25.6971 12.5341 24.6383C12.5356 22.2534 12.5356 19.8693 12.5356 17.4851ZM37.2301 18.0477C37.4852 18.2281 37.731 18.4976 38.0325 18.595C38.6719 18.8013 39.2131 18.6513 39.4993 17.9548C39.58 17.7592 39.7247 17.5879 39.851 17.4136C40.2659 16.8396 40.8269 16.5032 41.5272 16.4035C41.7655 16.3692 42.0068 16.3578 42.2443 16.3212C42.6888 16.2527 43.1265 16.0685 43.2978 15.6681C43.3823 15.471 43.1653 15.1079 43.0207 14.8559C41.9147 12.9316 41.1207 10.8854 40.6145 8.72737C40.272 7.26736 39.8792 5.83019 39.0456 4.55591C37.7082 2.51129 35.8539 1.60088 33.405 1.94647C33.0496 1.99671 32.675 1.96702 32.3157 1.92287C30.6997 1.72648 29.2313 2.06522 27.9959 3.15147C26.7147 4.27883 25.9763 5.75787 25.5889 7.38078C24.954 10.042 24.1563 12.6301 22.7564 15.0028C22.3796 15.6407 22.4656 15.8752 23.1599 16.1789C23.3631 16.268 23.5968 16.3083 23.8198 16.3281C24.6701 16.4027 25.4427 16.6273 25.9642 17.3687C26.2047 17.7105 26.4262 18.0652 26.6698 18.4055C26.7467 18.5128 26.8502 18.6392 26.9667 18.6734C27.4874 18.8302 28.359 18.5029 28.6977 18.0621C28.005 16.9333 27.2598 15.8249 26.9751 14.5217C26.5884 12.7496 26.5716 10.9478 26.8472 9.15441C27.0116 8.08567 27.9235 7.49725 28.9717 7.74693C30.0816 8.01107 31.1663 7.89841 32.2198 7.52465C33.2452 7.16079 34.2485 6.73451 35.2586 6.32954C35.6818 6.15979 36.1005 6.18644 36.4499 6.45514C37.1 6.9545 37.7341 7.47898 38.3438 8.02781C38.6727 8.32393 38.8272 8.73727 38.8264 9.19095C38.8226 10.7103 38.8515 12.232 38.7975 13.7499C38.7655 14.6443 38.6468 15.5479 38.2106 16.3601C37.9183 16.9059 37.5902 17.4311 37.2301 18.0477ZM28.5112 9.54111C28.4868 10.1021 28.4511 10.6822 28.4381 11.2622C28.4016 12.9011 28.5279 14.5073 29.4581 15.9361C29.7261 16.3479 29.924 16.8472 30.2841 17.1517C32.6286 19.1301 36.1332 18.1535 36.8572 14.8513C37.1723 13.4119 37.0201 11.875 37.1624 10.3899C37.2621 9.35309 36.7742 8.72356 35.9734 8.22345C35.9521 8.20974 35.9323 8.18615 35.9102 8.1831C35.7488 8.16179 35.5692 8.08947 35.4291 8.13591C35.0097 8.27597 34.6032 8.45638 34.1967 8.63298C33.0412 9.1331 31.8659 9.57308 30.5908 9.60734C29.9248 9.62484 29.2572 9.56775 28.5112 9.54111ZM30.5756 19.408C30.5756 20.1951 30.5726 20.9038 30.5802 21.6125C30.5809 21.6924 30.6274 21.786 30.6814 21.8492C31.4206 22.7139 32.1658 23.5749 32.9323 24.464C33.7042 23.5634 34.454 22.6896 35.2 21.8127C35.2457 21.7586 35.2868 21.6787 35.2875 21.6109C35.2936 20.8825 35.2913 20.1532 35.2913 19.3928C33.7392 20.0839 32.1879 20.0794 30.5756 19.408Z" fill="white"/>
<path d="M37.0942 30.4847C37.7915 30.4847 38.4887 30.4809 39.186 30.4862C39.7562 30.4908 40.1276 30.8394 40.1261 31.3555C40.1246 31.88 39.7691 32.2241 39.1883 32.2271C37.8196 32.2347 36.4502 32.2355 35.0815 32.2271C34.4573 32.2233 34.0699 31.8633 34.0783 31.3297C34.0859 30.7968 34.4726 30.4832 35.1173 30.484C35.7758 30.4855 36.435 30.4847 37.0942 30.4847Z" fill="white"/>
<path d="M57.9345 31.7841C57.9353 32.2744 57.5646 32.6443 57.0713 32.6451C56.5811 32.6458 56.2172 32.2744 56.2188 31.7765C56.2203 31.2779 56.5864 30.911 57.0782 30.9141C57.5676 30.9156 57.933 31.2878 57.9345 31.7841Z" fill="white"/>
<path d="M7.32844 20.4373C8.0006 20.4373 8.67275 20.4334 9.3449 20.438C9.95996 20.4426 10.3406 20.7707 10.3482 21.2906C10.3566 21.8364 9.97823 22.1888 9.35175 22.1911C7.99527 22.1964 6.63802 22.1957 5.28154 22.1873C4.77152 22.1842 4.43963 21.9582 4.33002 21.5791C4.22421 21.2129 4.34753 20.7965 4.668 20.6055C4.83242 20.5073 5.0448 20.4487 5.23739 20.4433C5.93314 20.4258 6.63041 20.4373 7.32844 20.4373Z" fill="white"/>
<path d="M7.18073 14.5086C7.85288 14.5086 8.52503 14.5048 9.19719 14.5101C9.78484 14.5147 10.1891 14.8763 10.1921 15.3855C10.1944 15.891 9.78637 16.2678 9.20328 16.2693C7.83309 16.2739 6.46366 16.2723 5.09348 16.264C4.51876 16.2602 4.13663 15.9077 4.12902 15.4053C4.12141 14.8748 4.50125 14.5109 5.08739 14.5048C5.78466 14.4972 6.4827 14.5033 7.17997 14.5033C7.18073 14.5048 7.18073 14.5063 7.18073 14.5086Z" fill="white"/>
</svg>
