<svg width="229" height="126" viewBox="0 0 229 126" fill="none" xmlns="http://www.w3.org/2000/svg">
<path d="M90.0589 0C92.6142 0.404973 95.1354 0.925045 97.4507 2.15489C98.8249 2.88597 100.199 3.61918 101.548 4.39716C111.786 10.2991 122.461 15.2355 133.645 19.0444C135.38 19.6348 137.192 20.0036 138.965 20.4874C139.467 20.6238 139.955 20.7986 140.469 21.2227C140.097 21.3208 139.728 21.4998 139.356 21.5062C135.609 21.5808 131.862 21.6469 128.116 21.6639C127.65 21.6661 127.164 21.4231 126.722 21.2185C118.103 17.2668 109.49 13.3044 100.873 9.34849C100.509 9.18224 100.131 9.04583 99.6618 9.12043C100.788 9.69805 101.909 10.2778 103.037 10.8512C110.958 14.8668 118.889 18.8675 126.794 22.9151C127.661 23.3584 128.443 24.0149 129.163 24.6821C129.862 25.3322 129.724 25.8778 128.785 25.9631C125.977 26.2167 123.156 26.3339 120.337 26.4938C118.003 26.6259 115.907 25.8394 113.829 24.8718C109.182 22.702 104.505 20.594 99.8402 18.4625C99.6299 18.3666 99.4175 18.275 99.1372 18.3133C99.3581 18.4625 99.5662 18.6352 99.802 18.7567C104.861 21.3698 109.936 23.9574 114.98 26.6025C116.13 27.2057 117.215 27.9602 118.245 28.7552C118.606 29.0323 118.969 29.708 118.87 30.0725C118.772 30.4284 118.082 30.8505 117.653 30.8462C115.119 30.827 112.578 30.7737 110.055 30.5712C107.916 30.4007 105.968 29.6121 104.158 28.3865C101.909 26.8647 99.5535 25.5048 97.132 24.211C97.3317 24.3943 97.5186 24.5989 97.7374 24.7567C100.118 26.481 102.546 28.1435 104.864 29.9489C105.667 30.5734 106.325 31.4835 106.813 32.3894C107.408 33.4934 106.854 34.4483 105.599 34.4462C104.345 34.4441 103.062 34.2416 101.847 33.9155C98.2705 32.9563 95.0568 31.3023 92.4931 28.54C92.2807 28.3098 92.0322 28.1137 91.6414 28.0348C92.1214 28.5954 92.5866 29.1666 93.0857 29.7101C93.5891 30.2579 94.203 30.7204 94.6257 31.3215C95.454 32.4959 96.3377 33.6725 96.9154 34.9748C97.6057 36.5286 96.9196 37.4387 95.2246 37.2981C91.8771 37.021 88.9905 35.7975 87.0938 32.8156C86.8304 32.4021 86.5181 32.0185 86.2293 31.6199C86.1486 31.6647 86.0678 31.7073 85.985 31.7521C86.5543 32.7943 87.0619 33.875 87.7097 34.8661C88.3087 35.7826 88.5933 36.7183 87.971 37.637C87.3444 38.5641 86.2951 38.6494 85.2841 38.4256C83.4765 38.0249 82.0959 36.9506 81.0041 35.4842C80.7343 35.1219 80.4986 34.7297 80.0355 34.4526C80.2649 35.0025 80.6026 35.5354 80.6919 36.1066C80.7981 36.7929 80.9191 37.6561 80.5984 38.1656C80.3817 38.5087 79.3473 38.5748 78.7845 38.4085C76.123 37.6156 74.3154 35.7528 73.0686 33.34C72.8498 32.9179 72.9773 32.3041 72.9879 31.7798C73.0729 27.8046 73.1706 23.8295 73.264 19.8544C73.2704 19.573 73.2959 19.2938 73.3171 18.9187C74.4174 18.8206 75.4964 18.7119 76.5776 18.6288C77.9901 18.5201 79.0223 17.7954 79.5088 16.5101C79.9676 15.2973 80.2819 14.0142 80.5198 12.7353C80.8044 11.205 80.8129 9.61492 81.1655 8.10586C82.0598 4.2714 84.6171 2.29982 88.5211 2.12078C92.1681 1.9524 95.5135 2.93286 98.7272 4.54849C101.002 5.69307 103.288 6.81634 105.571 7.94814C105.813 8.0675 106.064 8.16981 106.395 8.10373C105.373 7.59432 104.347 7.09343 103.33 6.57762C101.025 5.40959 98.7463 4.19041 96.4184 3.0778C93.9545 1.90124 91.3419 1.36838 88.5933 1.48988C84.2178 1.67531 81.4544 3.89201 80.5007 8.21457C80.1502 9.80036 80.0695 11.4458 79.8614 13.0636C79.8252 13.3449 79.7891 13.6284 79.719 13.9034C78.7059 17.8764 77.6672 18.2707 73.366 18.1364C73.366 17.7655 73.366 17.3925 73.366 16.93C74.1901 16.8405 75.0228 16.7275 75.8596 16.6679C76.962 16.5911 77.8159 16.0625 78.1451 15.0458C78.6082 13.6092 78.9034 12.1172 79.2263 10.638C79.6256 8.81137 79.7594 6.89307 80.3987 5.15808C81.5011 2.16981 83.8567 0.59254 87.0067 0.219538C87.389 0.174778 87.765 0.0746004 88.1452 0C88.7845 0 89.4217 0 90.0589 0Z" fill="white"/>
<path d="M53.3138 0C53.4051 0.0511545 53.4922 0.138544 53.5899 0.151332C58.8831 0.820604 60.68 4.84263 61.1558 8.57904C61.3257 9.91546 61.381 11.2711 61.6061 12.5968C62.1265 15.6533 63.0186 16.4398 66.1049 16.7403C66.415 16.7702 66.7208 16.8298 67.0713 16.8831C67.0713 17.3009 67.0713 17.6696 67.0713 18.2515C65.7756 18.0895 64.5118 18.0981 63.3712 17.7251C62.6957 17.5034 61.9587 16.7787 61.7017 16.1052C61.1685 14.7005 60.8882 13.1893 60.5908 11.7059C60.2977 10.2501 60.251 8.73251 59.8516 7.31084C58.8321 3.70018 56.228 1.7286 52.4897 1.47069C49.6392 1.2746 46.914 1.74139 44.329 2.94991C42.5724 3.77265 40.852 4.67212 39.1145 5.53748C39.157 5.627 39.1994 5.71865 39.2398 5.80817C39.7814 5.54174 40.3273 5.28597 40.8626 5.00888C43.2288 3.7833 45.6353 2.6238 48.3053 2.30622C49.9089 2.11439 51.5636 2.03766 53.1651 2.20604C56.3023 2.53215 58.3882 4.36519 59.2123 7.39183C59.6923 9.15666 59.7476 11.0323 60.0789 12.8419C60.2956 14.0185 60.5674 15.2078 60.9944 16.3204C61.5296 17.7165 62.6108 18.5179 64.1613 18.6053C65.1108 18.6586 66.056 18.7737 67.2986 18.8888C67.2986 20.5684 67.2879 22.2522 67.3007 23.9382C67.3262 26.9201 67.3708 29.902 67.3941 32.886C67.3963 33.195 67.4069 33.5616 67.2582 33.8046C65.9052 36.0171 64.155 37.7862 61.5551 38.4213C61.0517 38.5449 60.2085 38.4341 59.9472 38.0974C59.6371 37.6966 59.6435 36.9037 59.7752 36.3432C59.9557 35.5737 60.3869 34.864 60.5186 34.0178C60.1809 34.5251 59.875 35.0579 59.5012 35.5354C58.3308 37.0274 56.9098 38.1656 54.9663 38.4149C54.0211 38.5364 53.0632 38.4064 52.5385 37.4835C52.0351 36.5968 52.2709 35.7357 52.8274 34.8917C53.4412 33.9602 53.9425 32.9521 54.4926 31.9759C54.4098 31.9183 54.327 31.8629 54.2441 31.8053C53.6197 32.6046 53.0547 33.4636 52.358 34.1926C50.3125 36.3346 47.7127 37.2235 44.8218 37.2512C43.7152 37.2618 43.1077 36.4796 43.5495 35.4544C44.1804 33.9858 45.0194 32.5791 45.9582 31.281C46.7356 30.2068 47.7806 29.3286 48.7088 28.3631C48.6472 28.2949 48.5835 28.2245 48.5219 28.1563C47.6171 28.9407 46.7462 29.7656 45.8031 30.4988C42.8486 32.7965 39.431 33.9794 35.7648 34.4227C35.1255 34.4995 34.0677 34.1926 33.8341 33.7364C33.5622 33.2078 33.8192 32.2252 34.1548 31.6114C34.5456 30.8995 35.202 30.275 35.8668 29.7826C38.4539 27.8664 41.0899 26.0185 43.7067 24.1471C43.66 24.064 43.6154 23.983 43.5686 23.8998C43.3052 24.0469 43.0355 24.1833 42.7806 24.3432C40.3762 25.8394 37.9399 27.291 35.5822 28.8576C34.0805 29.8551 32.428 30.3176 30.7053 30.4817C28.2882 30.7119 25.854 30.778 23.4262 30.8995C23.1862 30.9123 22.9355 30.8398 22.6977 30.7737C21.4487 30.4178 21.2044 29.6526 22.2197 28.8171C23.303 27.9261 24.5031 27.1439 25.7457 26.4895C30.7223 23.87 35.7351 21.3187 40.7309 18.7396C40.852 18.6757 40.9518 18.5691 41.0155 18.3687C40.7755 18.4519 40.5249 18.5158 40.2955 18.6203C35.0448 20.9989 29.8005 23.3947 24.5392 25.7542C23.9062 26.0377 23.1883 26.2934 22.5129 26.287C19.0549 26.2508 15.5991 26.14 12.1432 26.0078C11.7715 25.9929 11.4147 25.6689 11.0493 25.4878C11.266 25.1041 11.3998 24.6267 11.7142 24.3581C12.3811 23.7869 13.0927 23.2327 13.8701 22.8341C22.8824 18.2323 31.9097 13.6604 40.9327 9.07993C41.2938 8.89663 41.6485 8.69627 41.9182 8.32114C39.2228 9.53606 36.521 10.7318 33.8362 11.9659C27.1539 15.033 20.4823 18.1385 13.7851 21.1844C13.0714 21.5084 12.2154 21.6725 11.4295 21.6576C7.61899 21.5893 3.80843 21.438 0 21.3144C0 21.1716 0 21.0309 0 20.8881C1.7396 20.4362 3.50257 20.0611 5.21243 19.5219C16.8523 15.8494 27.8081 10.6359 38.4581 4.71261C41.0729 3.25897 43.8086 2.01208 46.5402 0.786501C47.5151 0.349556 48.643 0.25151 49.7008 0C50.9072 0 52.1094 0 53.3138 0Z" fill="white"/>
<path d="M67.9542 121.127C66.9326 119.531 66.9517 117.642 67.2533 115.747C67.608 113.526 68.6509 111.587 69.9593 109.794C70.9003 108.507 71.9029 107.264 72.8778 106C74.8426 103.455 75.0507 101.207 72.5125 98.4806C70.5605 96.3832 68.4109 94.4671 66.2911 92.536C64.4432 90.8521 62.7779 89.0404 61.5523 86.8429C60.365 84.7136 60.4691 82.6482 61.7711 80.6084C63.0328 78.6305 64.7236 77.0766 66.597 75.7168C69.8064 73.385 73.0456 71.0937 76.2593 68.7662C78.2219 67.3445 78.4003 65.9164 76.5375 64.3647C75.1166 63.1839 73.4874 62.1502 71.7882 61.4319C68.0774 59.8631 64.2584 58.5523 60.4946 57.1051C58.3216 56.2695 56.393 55.0397 54.7724 53.3409C51.5183 49.9285 52.3764 46.4223 55.263 43.5001C55.4839 43.2784 55.777 43.0589 55.862 42.7839C56.3165 41.3367 57.4338 40.629 58.7337 40.1644C60.28 39.6123 61.8794 39.2926 63.5235 39.6869C65.1314 40.0727 66.1084 41.4923 65.7792 43.029C65.7006 43.3999 65.3523 43.7793 65.0294 44.0201C63.4109 45.2265 61.7924 46.4223 59.6194 46.4351C58.5595 46.4415 57.8034 47.7502 58.3493 48.7157C58.7507 49.4276 59.3858 50.0606 60.0421 50.5615C63.4682 53.1853 67.3531 54.9885 71.2402 56.8003C73.6425 57.9193 75.9853 59.1726 78.3154 60.4429C79.1777 60.9118 79.9785 61.5342 80.7113 62.1928C82.9479 64.207 83.2708 66.98 81.3698 69.3182C80.4055 70.5054 79.1608 71.52 77.8927 72.396C75.3587 74.1459 72.6845 75.6891 70.1441 77.4305C68.6318 78.4663 67.1428 79.5917 65.8557 80.8898C63.8102 82.9552 63.6743 84.8969 65.5158 87.1349C67.3807 89.4006 69.5048 91.4511 71.5099 93.6017C72.8374 95.0276 74.2436 96.3917 75.4585 97.9093C77.5996 100.584 77.5677 103.257 75.2291 106.254C74.0354 107.784 72.5677 109.097 71.2274 110.515C69.4156 112.431 67.9288 114.564 67.6824 117.263C67.5634 118.561 67.8565 119.902 67.9542 121.127ZM61.6012 41.0532C61.6033 41.1725 61.6054 41.294 61.6076 41.4134C62.1195 41.8035 62.625 41.9761 63.3111 41.0532C62.5995 41.0532 62.1003 41.0532 61.6012 41.0532Z" fill="white"/>
<path d="M71.8177 55.3326C75.2565 53.8918 78.1325 52.0289 80.8385 49.9039C81.2995 49.5415 81.6648 48.9063 81.8135 48.3287C82.0747 47.3035 81.291 46.4765 80.2396 46.4147C77.918 46.2761 76.0615 45.1102 74.5513 43.4712C73.9354 42.8019 74.0692 41.7575 74.666 40.9412C75.3967 39.9436 76.4651 39.4172 77.6164 39.5515C79.1733 39.7326 80.7642 40.0459 82.2086 40.63C82.9838 40.9433 83.4915 41.9323 84.1096 42.6271C84.3624 42.9127 84.562 43.2474 84.8275 43.5202C87.8416 46.6214 88.4554 50.1149 85.1228 53.523C82.7332 55.9678 79.6682 57.1444 76.5671 58.2634C76.2994 58.3593 75.8916 58.1866 75.59 58.046C73.5403 57.0868 71.5161 56.0701 69.4515 55.1408C68.6847 54.7955 68.3512 54.3735 68.3449 53.4868C68.3045 48.1966 68.1962 42.9063 68.1133 37.6182C67.9838 29.1692 67.8563 20.7202 67.731 12.2712C67.7225 11.717 67.7183 11.3056 66.9451 11.1713C66.0934 11.0243 66.1656 10.3443 66.516 9.68359C69.6023 11.8832 70.8704 11.8875 73.9672 9.72835C74.4643 10.7813 74.305 11.0371 72.8245 11.3717C72.491 25.938 72.1554 40.5362 71.8177 55.3326ZM78.4426 41.5188C78.4447 41.3674 78.4447 41.214 78.4469 41.0626C77.9371 41.0626 77.4294 41.0626 76.9197 41.0626C76.9218 41.214 76.9218 41.3674 76.9239 41.5188C77.4316 41.5188 77.9371 41.5188 78.4426 41.5188Z" fill="white"/>
<path d="M148.974 81.4671C148.974 86.8149 148.974 92.022 148.974 97.3122C148.052 97.3122 147.156 97.3122 146.09 97.3122C146.09 93.9318 146.09 90.5577 146.09 87.1837C145.998 87.1645 145.907 87.1432 145.816 87.124C144.252 89.7542 142.691 92.3865 141.007 95.2213C139.418 92.4078 137.91 89.735 136.402 87.06C136.315 87.0856 136.228 87.1112 136.143 87.1368C136.143 90.5151 136.143 93.8934 136.143 97.3336C135.115 97.3336 134.218 97.3336 133.254 97.3336C133.254 92.0476 133.254 86.8149 133.254 81.4714C134.261 81.4714 135.212 81.4181 136.153 81.5034C136.451 81.5289 136.81 81.8678 136.977 82.1577C138.165 84.2146 139.307 86.2991 140.469 88.3709C140.637 88.6693 140.83 88.9506 141.1 89.379C142.406 87.1453 143.719 85.0884 144.83 82.9293C145.442 81.7421 146.198 81.2625 147.479 81.4586C147.923 81.5247 148.39 81.4671 148.974 81.4671Z" fill="white"/>
<path d="M214.884 97.3916C214.026 97.3916 213.24 97.4726 212.484 97.3575C212.114 97.2999 211.7 96.944 211.479 96.6093C209.481 93.555 207.522 90.4729 205.549 87.4037C205.366 87.1202 205.16 86.8516 204.778 86.3102C204.778 90.1596 204.778 93.6829 204.778 97.2999C203.777 97.2999 202.879 97.2999 201.883 97.2999C201.883 92.1077 201.883 86.8772 201.883 81.474C202.851 81.474 203.867 81.4186 204.867 81.5081C205.158 81.5337 205.475 81.9344 205.672 82.2328C207.482 84.9866 209.266 87.7575 211.061 90.5241C211.288 90.8736 211.52 91.2189 211.961 91.5216C211.961 88.2221 211.961 84.9227 211.961 81.5465C212.998 81.5465 213.894 81.5465 214.882 81.5465C214.884 86.7791 214.884 92.0076 214.884 97.3916Z" fill="white"/>
<path d="M113.855 89.4491C113.864 84.7962 117.553 81.2047 122.32 81.209C127.046 81.2133 130.757 84.8708 130.74 89.5109C130.723 94.0275 126.91 97.7575 122.311 97.7554C117.617 97.7532 113.849 94.0509 113.855 89.4491ZM127.687 89.5109C127.717 86.5781 125.243 84.0545 122.318 84.031C119.431 84.0097 116.876 86.5504 116.865 89.4513C116.857 92.3117 119.342 94.8289 122.207 94.8587C125.162 94.8907 127.658 92.4545 127.687 89.5109Z" fill="white"/>
<path d="M71.5466 66.6347C71.5466 67.0973 71.5487 67.5576 71.5466 68.0202C71.5338 71.3601 71.536 71.3665 68.8066 73.2145C67.9378 73.8028 67.0563 74.7747 66.16 74.7981C65.3019 74.8216 64.397 73.871 63.5453 73.2976C62.3133 72.4685 61.0261 71.6926 59.9174 70.7186C56.6994 67.8965 56.7292 64.4841 59.9854 61.7388C61.0049 60.8798 62.1944 60.2148 63.3477 59.5285C63.626 59.3623 64.1018 59.3495 64.4204 59.4624C66.5551 60.2127 68.66 61.044 70.7968 61.7836C71.5084 62.0287 71.6889 62.4273 71.6613 63.1221C71.6146 64.2901 71.6485 65.4624 71.6485 66.6347C71.6124 66.6347 71.5806 66.6347 71.5466 66.6347ZM68.4603 72.1466C68.4603 68.4656 68.4603 64.9679 68.4603 61.3104C66.2088 62.2397 64.2844 63.2479 62.8868 65.0212C61.9182 66.2489 62.0032 67.3509 63.1778 68.2653C64.8728 69.5868 66.64 70.8166 68.4603 72.1466Z" fill="white"/>
<path d="M129.781 73.2081C131.901 68.7065 133.968 64.3157 136.034 59.925C136.215 59.5392 136.4 59.1555 136.58 58.7719C137.322 57.1967 137.381 57.1498 139.146 57.3672C139.401 57.3992 139.743 57.6145 139.849 57.8383C142.241 62.8642 144.605 67.9029 146.971 72.9395C146.999 72.9971 146.984 73.0759 146.999 73.2848C146.058 73.2848 145.121 73.3317 144.195 73.2529C143.949 73.2315 143.59 72.8628 143.526 72.5942C142.999 70.401 141.627 69.7616 139.488 70.0578C138.133 70.2454 136.729 70.0429 135.355 70.126C134.968 70.1495 134.605 70.5694 134.235 70.8102C134.212 70.8251 134.21 70.8742 134.193 70.9061C132.938 73.5214 132.938 73.5214 129.781 73.2081ZM141.13 67.5321C140.24 65.5946 139.405 63.7807 138.456 61.7154C137.477 63.8255 136.64 65.6287 135.756 67.5321C137.608 67.5321 139.278 67.5321 141.13 67.5321Z" fill="white"/>
<path d="M164.83 73.2273C164.589 73.2593 164.485 73.2678 164.381 73.287C162.387 73.6579 160.979 73.0802 160.505 70.9211C160.365 70.2838 159.929 70.0621 159.252 70.077C157.27 70.1218 155.286 70.1239 153.307 70.077C152.603 70.06 152.123 70.2369 151.96 70.9424C151.48 73.0142 150.161 73.6941 148.166 73.2891C148.028 73.2614 147.886 73.2635 147.629 73.2422C147.748 72.9183 147.829 72.6241 147.958 72.3534C150.193 67.6046 152.444 62.8643 154.655 58.1047C154.946 57.476 155.333 57.2607 155.968 57.346C156.614 57.4333 157.334 57.0817 157.765 58.0131C160.023 62.9069 162.34 67.773 164.634 72.6518C164.706 72.8053 164.745 72.9737 164.83 73.2273ZM158.92 67.5513C158.009 65.5754 157.181 63.7786 156.236 61.7282C155.254 63.8277 154.413 65.6309 153.515 67.5513C155.386 67.5513 157.038 67.5513 158.92 67.5513Z" fill="white"/>
<path d="M199.883 97.3022C199.741 97.3533 199.709 97.3704 199.675 97.3768C197.589 97.7689 196.054 97.2766 195.501 94.9448C195.427 94.6315 194.805 94.2563 194.427 94.2436C192.377 94.1753 190.323 94.2329 188.273 94.1967C187.647 94.186 187.222 94.3736 187.092 94.9874C186.606 97.2872 185.057 97.7349 183.031 97.3832C182.961 97.3704 182.893 97.3512 182.719 97.3128C182.853 96.9846 182.965 96.6649 183.11 96.3601C185.325 91.6453 187.557 86.9391 189.751 82.2137C190.042 81.5871 190.427 81.3761 191.064 81.4677C191.708 81.5594 192.417 81.2077 192.85 82.1455C195.121 87.0691 197.46 91.9608 199.771 96.8652C199.826 96.9846 199.839 97.1274 199.883 97.3022ZM194 91.6666C193.091 89.6929 192.262 87.894 191.319 85.8478C190.344 87.9515 189.509 89.7526 188.622 91.6666C190.491 91.6666 192.141 91.6666 194 91.6666Z" fill="white"/>
<path d="M111.04 73.2562C110.057 73.2562 109.179 73.2562 108.153 73.2562C108.153 70.9542 108.153 68.6736 108.153 66.3141C105.976 66.3141 103.944 66.3141 101.769 66.3141C101.769 68.5904 101.769 70.8753 101.769 73.2242C100.728 73.2242 99.825 73.2242 98.8203 73.2242C98.8203 67.9958 98.8203 62.7695 98.8203 57.4622C99.7273 57.4622 100.63 57.4622 101.726 57.4622C101.726 58.8689 101.726 60.3055 101.726 61.7421C101.726 63.7435 101.726 63.7435 103.754 63.7435C104.817 63.7435 105.881 63.686 106.936 63.7606C107.85 63.8245 108.19 63.5624 108.143 62.5904C108.062 60.9002 108.122 59.2036 108.122 57.4473C109.141 57.4473 110.044 57.4473 111.038 57.4473C111.04 62.7013 111.04 67.9276 111.04 73.2562Z" fill="white"/>
<path d="M113.162 84.3385C112.482 84.9587 111.788 85.5896 111.089 86.2248C108.011 83.4923 104.972 83.3282 102.642 85.7985C100.609 87.9534 100.681 91.1633 102.805 93.2457C105.218 95.6116 108.255 95.3665 111.102 92.5765C111.801 93.2372 112.499 93.898 113.192 94.5544C111.051 97.3914 107.208 98.4614 103.706 97.2401C100.258 96.0379 98.0749 92.9218 98.1259 89.2834C98.1769 85.7452 100.484 82.6887 103.929 81.5974C107.353 80.5125 111.231 81.6337 113.162 84.3385Z" fill="white"/>
<path d="M155.249 92.2319C155.249 93.9946 155.249 95.6145 155.249 97.3133C154.23 97.3133 153.295 97.3133 152.237 97.3133C152.216 96.9978 152.176 96.6611 152.176 96.3222C152.172 91.7481 152.197 87.174 152.153 82.6021C152.144 81.6898 152.448 81.4554 153.304 81.4895C154.82 81.5513 156.341 81.4916 157.862 81.5108C160.993 81.547 163.314 83.8085 163.325 86.8117C163.336 89.817 161.048 92.1275 157.943 92.2298C157.099 92.2554 156.252 92.2319 155.249 92.2319ZM155.277 89.7445C157.664 90.1794 159.096 89.7232 159.897 88.3314C160.515 87.2593 160.419 85.8973 159.659 84.9318C158.763 83.7957 156.985 83.4014 155.275 83.9747C155.277 85.876 155.277 87.7879 155.277 89.7445Z" fill="white"/>
<path d="M120.539 57.4324C122.731 57.4324 124.896 57.2704 127.024 57.4729C129.717 57.7308 131.578 60.0861 131.531 62.7866C131.484 65.5127 129.583 67.674 126.89 68.0022C126.051 68.1046 125.195 68.1109 124.35 68.0854C123.668 68.0641 123.402 68.29 123.424 68.9955C123.466 70.3724 123.436 71.7536 123.436 73.2094C122.444 73.2094 121.542 73.2094 120.541 73.2094C120.539 68.0193 120.539 62.7909 120.539 57.4324ZM123.451 65.7301C124.284 65.7301 124.983 65.7536 125.679 65.7259C126.911 65.6768 127.941 64.8648 128.36 63.6562C128.768 62.4797 128.407 61.1816 127.472 60.3717C126.387 59.4339 125.089 59.6406 123.827 59.6832C123.698 59.6875 123.468 59.9582 123.466 60.1074C123.443 61.9404 123.451 63.7735 123.451 65.7301Z" fill="white"/>
<path d="M72.3407 93.6336C71.3339 92.5444 70.3271 91.4957 69.3798 90.3959C69.1291 90.106 68.9464 89.6584 68.9358 89.2769C68.8615 86.2247 68.8105 83.1703 68.8275 80.1181C68.8296 79.6769 69.1121 79.0865 69.4605 78.8243C70.6414 77.9249 71.8904 77.1128 73.1584 76.3391C73.4282 76.175 74.0463 76.1558 74.2268 76.3412C75.6797 77.8268 77.2048 79.2741 78.4325 80.9387C79.7048 82.6673 79.6453 84.6389 78.6555 86.5828C77.5106 88.8314 75.0255 91.694 72.3407 93.6336ZM71.5569 78.5579C71.4422 78.5941 71.3254 78.6304 71.2107 78.6666C71.2107 82.7121 71.2107 86.7576 71.2107 90.803C71.2978 90.8691 71.3827 90.933 71.4698 90.9991C72.7974 89.2343 74.1844 87.5099 75.4312 85.6876C76.13 84.6666 75.8772 83.5007 75.3377 82.4414C74.4754 80.749 73.0161 79.6492 71.5569 78.5579Z" fill="white"/>
<path d="M224.691 97.3295C223.599 97.3295 222.66 97.3295 221.602 97.3295C221.585 96.9522 221.556 96.5771 221.556 96.2019C221.551 92.5486 221.526 88.8932 221.573 85.2399C221.583 84.381 221.314 84.1209 220.487 84.17C219.432 84.2318 218.372 84.1849 217.223 84.1849C217.223 83.3003 217.223 82.4776 217.223 81.5781C221.11 81.5781 224.978 81.5781 228.926 81.5781C228.926 82.4179 228.926 83.2151 228.926 84.138C227.565 84.138 226.203 84.138 224.691 84.138C224.691 88.597 224.691 92.9323 224.691 97.3295Z" fill="white"/>
<path d="M165.363 81.6354C165.469 81.5821 165.499 81.5544 165.531 81.5523C168.348 81.2709 168.348 81.2709 168.348 84.1036C168.348 87.5054 168.348 90.9072 168.348 94.4454C170.918 94.4454 173.405 94.4454 175.96 94.4454C175.96 95.4514 175.96 96.3253 175.96 97.2972C172.483 97.2972 168.97 97.2972 165.363 97.2972C165.363 92.1136 165.363 86.8873 165.363 81.6354Z" fill="white"/>
<path d="M67.412 94.4434C68.6163 95.5879 69.6274 96.5151 70.5896 97.4913C70.7786 97.6831 70.8551 98.0625 70.8508 98.3524C70.8211 100.586 70.6108 102.828 70.7489 105.049C70.8806 107.153 70.0904 108.737 68.5781 110.271C66.7663 108.149 64.3151 106.541 63.4018 103.638C62.9281 102.134 62.875 100.642 63.7331 99.335C64.8313 97.6704 66.1269 96.1357 67.412 94.4434ZM69.0985 96.9755C64.1346 101.232 65.152 104.408 69.0985 108.131C69.0985 104.544 69.0985 100.878 69.0985 96.9755Z" fill="white"/>
<path d="M74.3735 6.64613C74.3416 8.97153 72.5574 10.7342 70.2422 10.7236C67.91 10.7129 66.0748 8.85644 66.0939 6.52251C66.1109 4.2035 67.9971 2.35554 70.3144 2.38112C72.6339 2.40883 74.4053 4.26958 74.3735 6.64613Z" fill="white"/>
<path d="M114.359 57.4414C115.322 57.4414 116.222 57.4414 117.218 57.4414C117.218 62.7018 117.218 67.9217 117.218 73.2162C116.271 73.2162 115.343 73.2162 114.359 73.2162C114.359 67.9494 114.359 62.7252 114.359 57.4414Z" fill="white"/>
<path d="M178.105 81.5781C179.091 81.5781 179.996 81.5781 180.964 81.5781C180.964 86.8492 180.964 92.0478 180.964 97.3209C180.006 97.3209 179.102 97.3209 178.105 97.3209C178.105 92.1096 178.105 86.8833 178.105 81.5781Z" fill="white"/>
<path d="M71.1965 111.643C72.8596 114.166 72.951 116.656 71.4471 118.74C72.2437 116.662 72.1799 114.716 70.5402 112.734C70.383 117.024 70.4488 121.085 70.1154 125.12C69.9815 125.12 69.8477 125.122 69.7139 125.122C69.6353 124.621 69.5036 124.122 69.4909 123.619C69.4144 120.78 69.3571 117.943 69.3167 115.104C69.2955 113.646 70.3872 112.791 71.1965 111.643Z" fill="white"/>
</svg>
