<svg width="70" height="46" viewBox="0 0 70 46" fill="none" xmlns="http://www.w3.org/2000/svg">
<path fill-rule="evenodd" clip-rule="evenodd" d="M34.9982 45.7087C25.392 45.7087 16.7622 42.1321 11.2146 39.1324C5.2185 35.8905 1.52244 32.6821 1.36824 32.5481C0.83405 32.082 0.837842 31.2531 1.36608 30.7887C1.52018 30.6525 5.21675 27.4387 11.2124 24.1865C16.7603 21.1788 25.3901 17.5918 34.996 17.5918C44.6163 17.5918 53.2445 21.1781 58.7893 24.1865C64.7833 27.4387 68.474 30.6531 68.628 30.7887C69.1584 31.2548 69.1584 32.0815 68.6259 32.5459C68.4718 32.6821 64.7812 35.8883 58.7872 39.1324C53.2478 42.1327 44.6178 45.7087 34.998 45.7087H34.9982ZM3.99353 31.6667C5.48633 32.8297 8.44062 34.9767 12.3811 37.1042C17.6786 39.9622 25.904 43.3723 34.9979 43.3723C44.1062 43.3723 52.3287 39.9639 57.6244 37.1063C61.5649 34.9788 64.517 32.8296 66.0081 31.6665C64.519 30.5019 61.5669 28.3463 57.6244 26.2127C52.3289 23.3466 44.1052 19.9285 34.9993 19.9285C20.2638 19.9269 7.67091 28.8011 3.99326 31.6667H3.99353Z" fill="white"/>
<path fill-rule="evenodd" clip-rule="evenodd" d="M34.9979 45.7091C27.1829 45.7091 20.9766 39.3951 20.9766 31.6671C20.9766 23.9137 27.1706 17.5918 34.9979 17.5918C42.6787 17.5918 48.9929 23.9518 48.9929 31.6671C48.9929 35.3793 47.5298 38.896 44.8739 41.5659C42.2143 44.2357 38.706 45.7086 34.9974 45.7086L34.9979 45.7091ZM34.9979 19.9282C28.5557 19.9282 23.3122 25.1939 23.3122 31.6658C23.3122 38.1199 28.5535 43.3715 34.9979 43.3715C41.3178 43.3715 46.6555 38.0117 46.6555 31.6658C46.6576 25.1939 41.4281 19.9282 34.9979 19.9282Z" fill="white"/>
<path fill-rule="evenodd" clip-rule="evenodd" d="M35.0244 11.1803C34.3799 11.1803 33.8555 10.658 33.8555 10.0114V1.87793C33.8555 1.23345 34.3778 0.708984 35.0244 0.708984C35.6689 0.708984 36.1934 1.23127 36.1934 1.87793V10.0114C36.1934 10.658 35.6689 11.1803 35.0244 11.1803Z" fill="white"/>
<path fill-rule="evenodd" clip-rule="evenodd" d="M48.1773 16.6821C47.1408 16.6821 46.6105 15.4153 47.3587 14.6805L53.0726 9.0628C53.5327 8.61026 54.2734 8.61674 54.7238 9.07686C55.1764 9.53698 55.1699 10.2755 54.7098 10.7281L48.9959 16.3458C48.7678 16.5702 48.4731 16.6821 48.1773 16.6821L48.1773 16.6821Z" fill="white"/>
<path fill-rule="evenodd" clip-rule="evenodd" d="M20.9259 16.1976L15.3099 10.5616C14.8536 10.1052 14.8558 9.36452 15.3121 8.9103C15.7684 8.45397 16.5091 8.45614 16.9634 8.91409L22.5788 14.5496C23.0351 15.0059 23.033 15.7467 22.5766 16.2009C22.1246 16.654 21.3839 16.6556 20.9259 16.1976V16.1976Z" fill="white"/>
<path fill-rule="evenodd" clip-rule="evenodd" d="M38.7437 31.6562C38.7437 33.7134 37.0444 35.4248 34.9892 35.4248C32.8778 35.4248 31.2266 33.7136 31.2266 31.6562C31.2266 29.5871 32.8778 27.8779 34.9892 27.8779C37.0449 27.8779 38.7437 29.5871 38.7437 31.6562Z" fill="white"/>
</svg>
