<svg width="47" height="47" viewBox="0 0 47 47" fill="none" xmlns="http://www.w3.org/2000/svg">
<path d="M35.4317 23.143H37.3014C37.7281 23.143 38.0772 22.7939 38.0772 22.3671V17.712C38.0772 17.2853 37.7281 16.9361 37.3014 16.9361H35.4317C35.0126 14.795 34.1671 12.7465 32.9489 10.9388L34.2679 9.61986C34.4155 9.47231 34.493 9.27834 34.493 9.06915C34.493 8.85959 34.4078 8.66563 34.2679 8.51843L30.9781 5.22862C30.6754 4.9259 30.1866 4.9259 29.8843 5.22862L28.5653 6.54758C26.7496 5.32944 24.7013 4.476 22.56 4.06448V2.1948C22.56 1.76808 22.2109 1.41895 21.7841 1.41895H17.129C16.7023 1.41895 16.3532 1.76808 16.3532 2.1948V4.06448C14.212 4.48359 12.1635 5.32908 10.3558 6.54722L9.03687 5.22827C8.73415 4.92554 8.24543 4.92554 7.94305 5.22827L4.65324 8.51807C4.50568 8.66563 4.4281 8.85959 4.4281 9.06879C4.4281 9.27834 4.5133 9.47231 4.65324 9.61951L5.97219 10.9385C4.74643 12.7465 3.89299 14.7949 3.48147 16.9361H1.61179C1.18507 16.9361 0.835938 17.2853 0.835938 17.712V22.3671C0.835938 22.7939 1.18507 23.143 1.61179 23.143H3.48147C3.90058 25.2842 4.74608 27.3326 5.96421 29.1403L4.64526 30.4593C4.4977 30.6068 4.42012 30.8008 4.42012 31.01C4.42012 31.2195 4.50532 31.4135 4.64526 31.5607L7.93507 34.8505C8.23779 35.1532 8.72651 35.1532 9.02889 34.8505L10.3478 33.5316C12.1555 34.7497 14.2039 35.6031 16.3452 36.0143L16.3455 37.8843C16.3455 38.3111 16.6947 38.6602 17.1214 38.6602H21.7765C22.2032 38.6602 22.5524 38.3111 22.5524 37.8843V36.0146C29.1159 34.7577 34.1743 29.699 35.4316 23.1434L35.4317 23.143ZM21.6675 34.5946C21.2872 34.657 21.0081 34.9826 21.0081 35.3629V37.1086H17.9046V35.3629C17.9046 34.9826 17.6255 34.649 17.2452 34.5946C14.8944 34.2379 12.6364 33.3069 10.728 31.8947C10.4176 31.6696 9.99091 31.7008 9.71936 31.9723L8.48561 33.2061L6.28999 31.0104L7.52373 29.7767C7.79528 29.5051 7.82646 29.0784 7.60132 28.7681C6.18917 26.8517 5.25814 24.6017 4.90142 22.2509C4.83908 21.8706 4.5135 21.5914 4.13318 21.5914H2.38746V18.488H4.13318C4.52111 18.488 4.84704 18.2088 4.90142 17.8285C5.25818 15.4777 6.18917 13.2197 7.60132 11.3113C7.82646 11.001 7.79528 10.5743 7.52373 10.3027L6.28999 9.06896L8.48561 6.87333L9.71936 8.10707C9.99091 8.37862 10.4176 8.4098 10.728 8.18466C12.6444 6.77251 14.8944 5.84149 17.2452 5.48477C17.6255 5.42242 17.9046 5.09684 17.9046 4.71653V2.97081H21.0081V4.71653C21.0081 5.09684 21.2872 5.43039 21.6675 5.48477C24.0183 5.84152 26.2763 6.77251 28.1847 8.18466C28.4951 8.4098 28.9218 8.37862 29.1933 8.10707L30.4271 6.87333L32.6227 9.06896L31.389 10.3027C31.1174 10.5743 31.0863 11.001 31.3114 11.3113C32.7235 13.2277 33.6546 15.4777 34.0113 17.8285C34.0657 18.2088 34.3916 18.488 34.7795 18.488H36.5252V21.5914H34.7795C34.3916 21.5914 34.0657 21.8706 34.0113 22.2509C33.057 28.5665 27.9832 33.6405 21.6676 34.5945L21.6675 34.5946Z" fill="white" stroke="white"/>
<path d="M12.4729 20.8154C12.7677 20.8154 13.0316 20.6526 13.1636 20.3886L13.8775 18.9609L16.3914 26.4943C16.4998 26.8126 16.7946 27.0222 17.1281 27.0222H17.1825C17.5393 26.999 17.8264 26.735 17.8884 26.3859L20.2935 13.1733L21.7989 20.2024C21.8765 20.5595 22.1944 20.8154 22.5592 20.8154H29.5419C29.9686 20.8154 30.3177 20.4663 30.3177 20.0396C30.3177 19.6129 29.9686 19.2637 29.5419 19.2637H23.1875L20.9918 9.01443C20.9143 8.64971 20.5651 8.40137 20.2236 8.40137C19.8513 8.40899 19.5409 8.67292 19.4709 9.03764L16.9106 23.1272L14.7615 16.6876C14.6607 16.3928 14.3967 16.1833 14.0788 16.1601C13.7528 16.1369 13.4657 16.3076 13.3261 16.5868L11.9919 19.2635H9.36961C8.94289 19.2635 8.59375 19.6127 8.59375 20.0394C8.59375 20.4661 8.94289 20.8153 9.36961 20.8153L12.4729 20.8154Z" fill="white" stroke="white"/>
<path d="M44.6393 39.4753L36.1049 30.9409C35.8022 30.6382 35.3135 30.6382 35.0111 30.9409L30.356 35.596C30.0532 35.8988 30.0532 36.3875 30.356 36.6899L38.8904 45.2243C39.6586 45.9925 40.6825 46.4193 41.7687 46.4193C42.8549 46.4193 43.8791 45.9926 44.647 45.2243C46.2299 43.6417 46.2299 41.0583 44.6393 39.4753H44.6393ZM43.5455 44.1305C42.5913 45.0771 40.9388 45.0771 39.9842 44.1305L32.0009 36.1468L35.5622 32.5855L43.5459 40.5692C44.523 41.5545 44.523 43.1531 43.5455 44.1305H43.5455Z" fill="white" stroke="white"/>
</svg>
