<svg width="49" height="59" viewBox="0 0 49 59" fill="none" xmlns="http://www.w3.org/2000/svg">
<path d="M33.0316 4.78585C32.8349 4.6479 32.5893 4.59895 32.3552 4.65146C32.1207 4.70397 31.9196 4.8526 31.8003 5.06086C31.7945 5.07109 31.7874 5.08044 31.7812 5.08978C31.5071 5.48137 30.9655 5.5766 30.5739 5.30293C30.1872 5.03238 29.6546 5.12582 29.384 5.51252L28.1389 7.29116C27.8684 7.67786 27.9623 8.21051 28.3485 8.48107C28.498 8.58564 28.6689 8.63592 28.838 8.63592C29.1072 8.63592 29.3724 8.50866 29.5384 8.27148L30.3772 7.07311C31.1649 7.29249 32.0206 7.12339 32.6658 6.61521L33.926 7.49763C34.3127 7.76819 34.845 7.6743 35.116 7.28804C35.3865 6.90134 35.2926 6.36869 34.9059 6.09813L33.0316 4.78585Z" fill="#FFFDFD"/>
<path d="M42.4848 15.5484L41.646 16.7463C41.3754 17.133 41.4693 17.6657 41.8556 17.9362C42.0051 18.0408 42.176 18.0907 42.3451 18.0907C42.6143 18.0907 42.8795 17.9638 43.0455 17.7262L44.291 15.948C44.5616 15.5613 44.4677 15.0287 44.0814 14.7581C43.6898 14.484 43.5942 13.9424 43.8687 13.5504C43.8754 13.5411 43.8816 13.5317 43.8892 13.5233C44.044 13.3395 44.1148 13.0996 44.0837 12.8615C44.0529 12.6235 43.9235 12.409 43.7268 12.2715L41.8525 10.9592C41.4658 10.6887 40.9331 10.7825 40.6626 11.1692C40.3916 11.5555 40.4859 12.0886 40.8721 12.3592L42.1324 13.2411C41.8752 14.0216 42.0091 14.8831 42.4848 15.5484Z" fill="#FFFDFD"/>
<path d="M37.9413 34.7439C38.3472 34.7439 38.7241 34.9063 39.0026 35.2018C39.3266 35.5445 39.8673 35.56 40.2104 35.2361C40.5539 34.9121 40.569 34.3715 40.2451 34.0284C39.6492 33.3974 38.8095 33.0352 37.9413 33.0352C36.1943 33.0352 34.7734 34.4565 34.7734 36.2035C34.7734 37.9501 36.1943 39.3714 37.9413 39.3714C38.7877 39.3714 39.5834 39.0421 40.1814 38.4436C40.5152 38.1098 40.5152 37.5687 40.1814 37.2354C39.8481 36.9017 39.307 36.9017 38.9733 37.2354C38.6978 37.5109 38.3312 37.6626 37.9413 37.6626C37.1368 37.6626 36.4822 37.008 36.4822 36.2035C36.4822 35.3985 37.1368 34.7439 37.9413 34.7439Z" fill="#FFFDFD"/>
<path d="M45.549 30.1845V23.3414C45.549 21.0181 43.6586 19.1277 41.3353 19.1277H36.8013C37.0665 16.8369 36.3185 14.822 34.7406 13.7171C33.4038 12.7813 31.6719 12.6135 29.8634 13.2445C28.1542 13.8412 26.5643 15.0952 25.3877 16.7755C24.8666 17.5191 24.4519 18.3076 24.1511 19.1277H18.5887L30.5447 2.05295L47.1354 13.6695L44.6078 17.2797C44.3373 17.6664 44.4311 18.199 44.8174 18.4696C45.2041 18.7402 45.7368 18.6463 46.0073 18.2596L48.7627 14.3245C49.1779 13.7331 49.0341 12.9139 48.4419 12.4983L31.1997 0.425612C30.9132 0.224475 30.5652 0.147047 30.2203 0.207566C29.8755 0.26853 29.5751 0.459431 29.3735 0.746451L25.4189 6.39474V2.98877C25.4189 2.26566 24.8306 1.67738 24.1075 1.67738H3.61467C2.89156 1.67738 2.30328 2.26566 2.30328 2.98877V7.66608C2.30328 8.13822 2.68597 8.52047 3.15767 8.52047C3.6298 8.52047 4.01205 8.13822 4.01205 7.66608V3.38659H6.48754V19.1273H4.21363C4.14644 19.1273 4.07924 19.1291 4.01205 19.1322V11.0836C4.01205 10.6119 3.6298 10.2292 3.15767 10.2292C2.68597 10.2292 2.30328 10.6119 2.30328 11.0836V19.5861C0.937599 20.2838 0 21.7051 0 23.3414V49.0642C0 51.3875 1.89033 53.2778 4.21363 53.2778H10.593C11.0652 53.2778 11.4474 52.8955 11.4474 52.4234C11.4474 51.9517 11.0652 51.569 10.593 51.569H4.21363C2.83238 51.569 1.70877 50.4454 1.70877 49.0642V23.3414C1.70877 22.2467 2.41453 21.314 3.3944 20.974C3.41621 20.9678 3.43801 20.9607 3.45893 20.9527C3.69744 20.877 3.95109 20.8361 4.21408 20.8361H41.3353C42.7166 20.8361 43.8406 21.9601 43.8406 23.3414V30.0661H37.7238C34.3401 30.0661 31.5869 32.8188 31.5869 36.203C31.5869 39.5867 34.3401 42.3394 37.7238 42.3394H43.8406V49.0642C43.8406 50.4454 42.7166 51.569 41.3353 51.569H34.8069C34.3347 51.569 33.9525 51.9517 33.9525 52.4234C33.9525 52.8955 34.3347 53.2778 34.8069 53.2778H41.3353C43.6586 53.2778 45.5494 51.3875 45.5494 49.0642V42.2211C47.4825 41.7623 48.9247 40.0215 48.9247 37.9505V34.4555C48.9242 32.3841 47.482 30.6433 45.549 30.1845ZM26.7872 17.7563C28.7358 14.9733 31.8641 13.7896 33.7607 15.117C34.8531 15.882 35.3342 17.3829 35.0783 19.1273H25.9978C26.2145 18.6556 26.4779 18.1968 26.7872 17.7563ZM23.7101 8.83508L16.503 19.1277H12.2929V3.38615H23.7101V8.83508ZM8.19631 3.38615H10.5841V19.1273H8.19631V3.38615ZM47.2155 37.95C47.2155 39.4283 46.0131 40.6307 44.5348 40.6307H37.7238C35.2821 40.6307 33.2957 38.6442 33.2957 36.2025C33.2957 33.7613 35.2821 31.7749 37.7238 31.7749H44.5348C46.0131 31.7749 47.2155 32.9772 47.2155 34.4555V37.95Z" fill="#FFFDFD"/>
<path d="M22.7752 37.8691C17.0837 37.8691 12.4531 42.4997 12.4531 48.1916C12.4531 53.8831 17.0837 58.5137 22.7752 58.5137C28.4671 58.5137 33.0977 53.8831 33.0977 48.1916C33.0977 42.4997 28.4671 37.8691 22.7752 37.8691ZM22.7752 56.8049C18.0258 56.8049 14.1619 52.941 14.1619 48.1916C14.1619 43.4418 18.0258 39.5779 22.7752 39.5779C27.525 39.5779 31.3889 43.4418 31.3889 48.1916C31.3889 52.941 27.525 56.8049 22.7752 56.8049Z" fill="#FFFDFD"/>
<path d="M23.5074 47.338H22.05C21.6206 47.338 21.2713 46.9886 21.2713 46.5592C21.2713 46.1298 21.6206 45.7805 22.05 45.7805H24.8388C25.3105 45.7805 25.6932 45.3978 25.6932 44.9261C25.6932 44.4544 25.3105 44.0717 24.8388 44.0717H23.7899V43.3495C23.7899 42.8778 23.4072 42.4951 22.9355 42.4951C22.4639 42.4951 22.0812 42.8778 22.0812 43.3495V44.0717H22.05C20.6785 44.0717 19.5625 45.1878 19.5625 46.5592C19.5625 47.9307 20.6785 49.0467 22.05 49.0467H23.5074C23.9368 49.0467 24.2856 49.3956 24.2856 49.825C24.2856 50.2544 23.9368 50.6038 23.5074 50.6038H20.7186C20.2465 50.6038 19.8642 50.9865 19.8642 51.4582C19.8642 51.9298 20.2465 52.3125 20.7186 52.3125H22.0812V53.0348C22.0812 53.5065 22.4639 53.8891 22.9355 53.8891C23.4077 53.8891 23.7899 53.5065 23.7899 53.0348V52.2965C25.0288 52.1555 25.9949 51.1013 25.9949 49.825C25.9944 48.4536 24.8788 47.338 23.5074 47.338Z" fill="#FFFDFD"/>
</svg>
