<svg width="47" height="48" viewBox="0 0 47 48" fill="none" xmlns="http://www.w3.org/2000/svg">
<path d="M24.0141 33.091C24.7584 33.091 25.4719 32.7954 25.9984 32.2689C26.5244 31.7428 26.82 31.0289 26.82 30.2846V26.777H30.3276C31.3302 26.777 32.2565 26.2422 32.7581 25.3741C33.2591 24.506 33.2591 23.4363 32.7581 22.5683C32.2565 21.7002 31.3302 21.1654 30.3276 21.1654H26.82V17.6579C26.82 16.6552 26.2852 15.729 25.4171 15.2274C24.549 14.7263 23.4793 14.7263 22.6113 15.2274C21.7432 15.7289 21.2084 16.6552 21.2084 17.6579V21.1654H17.7008C16.6982 21.1654 15.7719 21.7003 15.2703 22.5683C14.7693 23.4364 14.7693 24.5061 15.2703 25.3741C15.7719 26.2422 16.6982 26.777 17.7008 26.777H21.2084V30.2846C21.2084 31.0289 21.504 31.7429 22.03 32.2689C22.5565 32.7954 23.27 33.091 24.0143 33.091H24.0141Z" fill="white"/>
<path d="M30.3994 39.345L29.8725 39.8723C29.0091 40.7365 28.5238 41.9077 28.5234 43.1292C28.5234 43.1292 28.5234 43.1292 28.5234 43.1292C28.5234 43.1293 28.5234 43.1294 28.5234 43.1294L28.5234 45.016C28.5234 45.123 28.5661 45.2254 28.6409 45.3001L28.6422 45.3014C28.7169 45.3763 28.8193 45.4189 28.9264 45.4189H30.8137H30.8147C32.0374 45.4201 33.2109 44.9351 34.0768 44.0708L30.3994 39.345ZM30.3994 39.345L40.3244 29.42L40.3299 29.4144L40.3354 29.4088C40.7762 28.954 41.3464 28.6454 41.9689 28.5244C42.9262 28.3525 43.9072 28.6599 44.5948 29.3475L44.5948 29.3475C45.2831 30.0358 45.5906 31.0178 45.4177 31.9752C45.2969 32.5964 44.9883 33.1661 44.5336 33.6069L44.5278 33.6125L44.5222 33.6181L34.0775 44.0701L30.3994 39.345Z" stroke="white" stroke-width="2"/>
<path d="M19.194 45.8437C17.7051 45.5246 16.2522 45.0544 14.859 44.4403L8.7277 46.1941C7.55429 46.5312 6.30356 46.4769 5.16389 46.0389C4.02468 45.6005 3.05926 44.8033 2.41383 43.7669C1.56826 42.362 1.35686 40.6645 1.83201 39.0947L3.5356 33.1317C1.79702 29.2938 1.17361 25.0444 1.73635 20.8689C2.29918 16.6934 4.02553 12.7605 6.71834 9.52016C9.41114 6.27968 12.9613 3.86296 16.9631 2.54512C20.9648 1.22733 25.2568 1.06243 29.3476 2.06948C33.439 3.07603 37.1642 5.21389 40.0973 8.23854C43.0309 11.2626 45.0539 15.0515 45.9352 19.1712" stroke="white" stroke-width="2"/>
</svg>
