<svg width="41" height="46" viewBox="0 0 41 46" fill="none" xmlns="http://www.w3.org/2000/svg">
<path d="M18.4983 33.4276C18.1782 33.4276 17.8414 33.294 17.5886 33.0556C17.3177 32.8005 17.1604 32.4429 17.1567 32.0732L17.1373 30.5709C17.1306 30.5679 17.1239 30.5649 17.1178 30.5619L16.0545 31.6319C15.5114 32.177 14.6506 32.1871 14.0955 31.6561L11.4517 29.1248C11.1778 28.863 11.0248 28.5164 11.0211 28.1491C11.0168 27.7808 11.1614 27.4306 11.4276 27.1621L12.4762 26.1067L10.929 26.1255C10.5871 26.1329 10.2322 26.0076 9.9654 25.7565C9.69453 25.5024 9.5365 25.1438 9.53181 24.7731L9.48594 21.1573C9.46853 20.8252 9.5971 20.4787 9.84955 20.2101C10.1067 19.9356 10.4713 19.7759 10.8486 19.7715L12.3697 19.7347C12.3704 19.7333 12.3711 19.7317 12.3711 19.7303L11.294 18.6991C11.0271 18.4433 10.8748 18.084 10.8801 17.7137C10.8845 17.3431 11.0459 16.9868 11.3218 16.7357L13.8741 14.1669C14.4165 13.6218 15.278 13.6105 15.8331 14.1438L16.9219 15.1865C16.9286 15.1841 16.9363 15.1811 16.942 15.1791L16.9233 13.6761C16.9058 13.344 17.0344 12.9974 17.2862 12.7289C17.5443 12.4543 17.9086 12.2946 18.2867 12.2903L21.9713 12.2454C22.3028 12.2297 22.6681 12.3632 22.9349 12.615C23.2058 12.8692 23.3638 13.2278 23.3685 13.5974L23.3873 15.1018C23.394 15.1041 23.4007 15.1071 23.4074 15.1101L24.4707 14.0401C25.0132 13.495 25.8747 13.4843 26.4297 14.016L29.0614 16.5352C29.3343 16.797 29.4873 17.1426 29.492 17.5095C29.4964 17.8778 29.3517 18.2287 29.0855 18.4966L28.0362 19.5526L29.5835 19.5339C29.9337 19.5175 30.2809 19.6524 30.5481 19.9035C30.819 20.1576 30.977 20.5162 30.9817 20.8859L31.0148 24.4919C31.0322 24.822 30.9037 25.1682 30.6519 25.4367C30.3937 25.7113 30.0294 25.871 29.6521 25.8753L28.1049 25.8941L29.181 26.924L29.1817 26.9247C29.6976 27.4195 29.7485 28.2191 29.3039 28.8258C29.2815 28.856 29.2567 28.8844 29.2302 28.9105L26.6511 31.5054C26.1097 32.0515 25.2492 32.0625 24.6921 31.5295L23.6033 30.4862C23.5959 30.4885 23.5889 30.4915 23.5832 30.4935L23.6019 31.9972C23.6193 32.3294 23.4908 32.6759 23.239 32.9444C22.9808 33.219 22.6165 33.3794 22.2385 33.3841L18.5538 33.4289C18.5358 33.4269 18.5163 33.4276 18.4983 33.4276L18.4983 33.4276ZM22.1037 32.0274V32.0418V32.0274ZM18.5164 31.927H18.509H18.5204H18.5164ZM16.954 28.9108C17.0404 28.9108 17.1265 28.9259 17.2112 28.9567C17.3381 29.0033 17.4543 29.0595 17.5651 29.1151C17.6093 29.1369 17.6515 29.1593 17.695 29.1774C17.7536 29.2028 17.923 29.2765 18.0379 29.3013C18.3797 29.3749 18.6258 29.6756 18.6305 30.0251L18.6553 31.9263L22.1016 31.8834L22.0775 29.9837C22.0731 29.6328 22.3122 29.3261 22.6544 29.244C22.7307 29.2259 22.8014 29.1921 22.875 29.1617L23.0304 29.098C23.098 29.0739 23.1938 29.0364 23.3565 28.9383C23.6461 28.7636 24.0181 28.8034 24.2632 29.0381L25.6597 30.376L28.0798 27.9422L26.6772 26.5995C26.4606 26.392 26.3876 26.0745 26.4934 25.794C26.5413 25.6664 26.6006 25.5495 26.6585 25.4377C26.6759 25.4046 26.693 25.3724 26.708 25.3403C26.7291 25.281 26.7539 25.2204 26.7794 25.1588C26.8025 25.1019 26.8303 25.044 26.843 24.9864C26.9186 24.6465 27.218 24.4038 27.5669 24.3991L29.5175 24.376L29.4867 21.0342L27.5367 21.0583H27.527C27.1822 21.0583 26.8822 20.8236 26.7988 20.4874C26.7807 20.4154 26.7479 20.3478 26.7164 20.2781L26.6505 20.1228C26.6136 20.023 26.5591 19.9179 26.4908 19.8101C26.3033 19.5144 26.3461 19.1284 26.5929 18.8799L27.9362 17.5292L25.4686 15.1668L24.1059 16.5385C23.901 16.7454 23.5923 16.8154 23.317 16.714C23.1901 16.6674 23.074 16.6112 22.9631 16.5556C22.928 16.5382 22.8935 16.5204 22.859 16.5047C22.7974 16.4836 22.7338 16.4588 22.6692 16.4334C22.6106 16.4103 22.5513 16.3825 22.4907 16.3698C22.1489 16.2961 21.9021 15.9954 21.8974 15.6459L21.8733 13.7454L18.427 13.7883L18.4511 15.6881C18.4554 16.039 18.2164 16.3457 17.8742 16.4277C17.7979 16.4458 17.7279 16.4786 17.6546 16.51L17.4972 16.5747C17.4319 16.5978 17.3358 16.6353 17.1724 16.7337C16.8845 16.9092 16.5108 16.8686 16.2657 16.6339L14.8685 15.296L12.4497 17.7299L13.8004 19.0236C14.017 19.2312 14.09 19.5486 13.9836 19.8292C13.9363 19.9568 13.8771 20.073 13.8192 20.1841C13.7974 20.226 13.775 20.2675 13.7569 20.3087C13.7328 20.3626 13.6588 20.5277 13.6347 20.6371C13.5597 20.974 13.265 21.216 12.9208 21.2244L10.9866 21.2716L11.0301 24.6279L12.9808 24.6037C13.3444 24.5924 13.6327 24.8348 13.7164 25.1706C13.7345 25.2433 13.7683 25.3102 13.7988 25.3799L13.8671 25.5389C13.8925 25.6109 13.93 25.698 14.0275 25.8546C14.2119 26.1503 14.1691 26.5333 13.9233 26.7808L12.5807 28.1315L15.0611 30.506L16.4238 29.1342C16.5658 28.9883 16.7586 28.9109 16.9542 28.9109L16.954 28.9108ZM10.8898 24.6262H10.8814H10.8941H10.8898ZM29.5163 24.5184V24.5341V24.5184ZM10.876 21.2716C10.8754 21.2716 10.8754 21.2716 10.876 21.2716V21.2716ZM10.9842 21.1109V21.1253V21.1109ZM29.6193 21.0308H29.6307H29.6193ZM22.0062 13.7421H22.0176H22.0062ZM18.4226 13.6276V13.642V13.6276Z" fill="black"/>
<path d="M20.2824 27.2115C19.0987 27.2115 17.9881 26.7718 17.1505 25.9703C16.2947 25.1513 15.8162 24.0435 15.8011 22.8511C15.7861 21.6578 16.2378 20.5388 17.0718 19.6988C17.9011 18.8641 19.0231 18.3953 20.2302 18.3809C21.4242 18.3756 22.5703 18.8061 23.4213 19.6215C24.2765 20.4391 24.7549 21.5467 24.7713 22.7407V22.7521C24.769 23.9551 24.3183 25.0711 23.5007 25.8931C22.6703 26.7284 21.5477 27.1965 20.3417 27.2116H20.2824L20.2824 27.2115ZM20.2891 19.8809H20.2492C19.4369 19.8906 18.6869 20.202 18.1359 20.7561C17.5884 21.3073 17.2921 22.0445 17.3018 22.8321C17.3115 23.6189 17.6266 24.3478 18.1884 24.8862C18.754 25.4276 19.5023 25.7239 20.3236 25.7105C21.1352 25.7008 21.8859 25.3894 22.438 24.8346C22.9734 24.2962 23.269 23.5573 23.272 22.7547C23.26 21.9685 22.9449 21.2403 22.3847 20.7049C21.8279 20.1725 21.0849 19.8809 20.2891 19.8809L20.2891 19.8809Z" fill="black"/>
<path d="M19.6172 4.25H21.1172V9.04032H19.6172V4.25Z" fill="black"/>
<path d="M20.3428 5.62684C18.8628 5.62684 17.6602 4.43953 17.6602 2.98076C17.6602 1.5213 18.8632 0.333984 20.3428 0.333984C21.8227 0.333984 23.0254 1.5213 23.0254 2.98076C23.0257 4.43961 21.8227 5.62684 20.3428 5.62684ZM20.3428 1.83398C19.6902 1.83398 19.1602 2.3486 19.1602 2.98076C19.1602 3.61291 19.6905 4.12684 20.3428 4.12684C20.9953 4.12684 21.5254 3.61222 21.5254 2.98076C21.5257 2.34928 20.9953 1.83398 20.3428 1.83398Z" fill="black"/>
<path d="M8.22501 16.213L3.91016 13.4434L8.22501 16.213Z" fill="black"/>
<path d="M3.50391 14.0722L4.31384 12.8105L8.62835 15.5801L7.81842 16.8418L3.50391 14.0722Z" fill="black"/>
<path d="M2.76763 15.475C2.31461 15.475 1.85725 15.3625 1.43768 15.1248C0.811565 14.7699 0.364539 14.1946 0.180082 13.5055C-0.00306387 12.8232 0.0947025 12.112 0.453965 11.5016C1.19258 10.2461 2.83288 9.81281 4.10951 10.535C4.73563 10.8899 5.18265 11.4652 5.36711 12.1543C5.55025 12.8366 5.45249 13.5478 5.09323 14.1582C4.59735 15.0019 3.69437 15.475 2.76754 15.475L2.76763 15.475ZM2.77432 11.6821C2.36416 11.6821 1.96506 11.8897 1.74609 12.261C1.59308 12.5222 1.55123 12.8259 1.62924 13.1169C1.70859 13.4138 1.90379 13.6636 2.17734 13.819C2.74586 14.1401 3.47411 13.9526 3.80025 13.3968C3.95394 13.1356 3.99613 12.8319 3.91811 12.541C3.83876 12.244 3.64356 11.9942 3.37001 11.8388C3.18251 11.7334 2.97693 11.6821 2.77436 11.6821H2.77432Z" fill="black"/>
<path d="M8.10851 29.2559L3.79297 32.0255L8.10851 29.2559Z" fill="black"/>
<path d="M3.38672 31.393L7.70158 28.623L8.51151 29.8847L4.19665 32.6546L3.38672 31.393Z" fill="black"/>
<path d="M2.68966 35.3283C1.7642 35.3283 0.861201 34.8558 0.363972 34.0121C0.00470949 33.4017 -0.0927217 32.6899 0.0900898 32.0082C0.274573 31.3188 0.721564 30.7436 1.34769 30.389C2.622 29.6668 4.26429 30.098 5.00392 31.3556C5.36318 31.9653 5.45994 32.6771 5.2768 33.3595C5.09232 34.0489 4.64532 34.6241 4.0192 34.9787C3.60101 35.2151 3.142 35.3283 2.6896 35.3283L2.68966 35.3283ZM2.68363 31.5364C2.48039 31.5364 2.27549 31.5867 2.08732 31.6938C1.81343 31.8492 1.61856 32.0989 1.53922 32.3959C1.4612 32.6869 1.50306 32.9906 1.65607 33.2517C1.98453 33.8069 2.71447 33.9964 3.27993 33.6739C3.55381 33.5186 3.74868 33.2688 3.82803 32.9718C3.90604 32.6809 3.86419 32.3772 3.71117 32.116C3.4922 31.7434 3.0941 31.5364 2.68363 31.5364ZM1.71763 31.0406H1.725H1.71763Z" fill="black"/>
<path d="M19.3828 36.627H20.8828V41.4173H19.3828V36.627Z" fill="black"/>
<path d="M20.1592 45.3339C18.6792 45.3339 17.4766 44.1466 17.4766 42.6871C17.4766 41.2282 18.6796 40.041 20.1592 40.041C21.6391 40.041 22.8418 41.2283 22.8418 42.6871C22.8418 44.1466 21.6388 45.3339 20.1592 45.3339ZM20.1592 41.541C19.5066 41.541 18.9766 42.0556 18.9766 42.6871C18.9762 43.3186 19.5066 43.8339 20.1592 43.8339C20.8117 43.8339 21.3418 43.3193 21.3418 42.6871C21.3418 42.055 20.8117 41.541 20.1592 41.541Z" fill="black"/>
<path d="M32.2773 29.4551L36.5922 32.2247L32.2773 29.4551Z" fill="black"/>
<path d="M31.8711 30.0858L32.681 28.8242L36.9955 31.5938L36.1856 32.8554L31.8711 30.0858Z" fill="black"/>
<path d="M37.7197 35.4839C37.2667 35.4839 36.8094 35.3714 36.3908 35.1337C35.7647 34.7788 35.3177 34.2035 35.1332 33.5145C34.9501 32.8321 35.0478 32.1209 35.4071 31.5106C36.1444 30.2543 37.7846 29.8217 39.0626 30.544C39.6887 30.8989 40.1358 31.4741 40.3202 32.1632C40.5034 32.8456 40.4056 33.5567 40.0463 34.1671C39.5488 35.0115 38.6458 35.4839 37.7196 35.4839L37.7197 35.4839ZM37.7264 31.6918C37.3163 31.6918 36.9178 31.8987 36.6996 32.2707C36.5459 32.5318 36.5037 32.8355 36.5817 33.1265C36.6611 33.4235 36.8563 33.6732 37.1298 33.8286C37.6983 34.1527 38.4273 33.9622 38.7537 33.4064C38.9067 33.1452 38.9485 32.8415 38.8705 32.5506C38.7912 32.2536 38.596 32.0038 38.3224 31.8485C38.1346 31.742 37.929 31.6918 37.7264 31.6918H37.7264Z" fill="black"/>
<path d="M32.3945 16.4122L36.7101 13.6426L32.3945 16.4122Z" fill="black"/>
<path d="M31.9883 15.7807L36.3031 13.0107L37.1131 14.2724L32.7982 17.0423L31.9883 15.7807Z" fill="black"/>
<path d="M37.8219 15.6306C36.8964 15.6306 35.9934 15.1582 35.4962 14.3138C35.1369 13.704 35.0402 12.9922 35.2233 12.3098C35.4078 11.6204 35.8548 11.0452 36.4809 10.6906C37.7559 9.9684 39.3975 10.4003 40.1365 11.6566C40.4957 12.267 40.5931 12.9788 40.4103 13.6605C40.2258 14.3499 39.7789 14.9252 39.1527 15.2798C38.7339 15.5181 38.2748 15.6307 37.8218 15.6307L37.8219 15.6306ZM37.8168 11.8384C37.6136 11.8384 37.408 11.8886 37.2205 11.9951C36.9466 12.1505 36.7518 12.4002 36.6724 12.6972C36.5944 12.9882 36.6363 13.2919 36.7893 13.553C37.1171 14.1088 37.8446 14.2993 38.4131 13.9752C38.687 13.8199 38.8819 13.5701 38.9612 13.2731C39.0393 12.9822 38.9974 12.6785 38.8444 12.4173C38.6251 12.0463 38.227 11.8384 37.8168 11.8384Z" fill="black"/>
</svg>
