<svg width="163" height="41" viewBox="0 0 163 41" fill="none" xmlns="http://www.w3.org/2000/svg">
<path d="M70.8587 25.4897H73.2418L77.0186 31.8045C77.6481 33.0207 78.3226 33.8626 79.042 34.3304C79.7164 34.7981 80.6607 35.032 81.8297 35.032C82.5941 35.032 83.2685 34.8917 83.853 34.5643C84.4375 34.2836 84.9321 33.9094 85.2918 33.4416C85.6515 32.9739 85.8764 32.4593 85.8764 31.9448C85.8764 31.477 85.6965 30.9625 85.3368 30.4012C84.9771 29.8399 84.4375 29.0447 83.6732 28.0156L80.4808 23.7122C82.0095 22.8703 83.1786 21.7477 84.0329 20.3444C84.8872 18.9411 85.3368 17.3507 85.3368 15.5732C85.3368 12.3925 84.2577 9.91334 82.0995 8.13585C79.9412 6.40515 76.8388 5.5164 72.8371 5.5164C69.5998 5.5164 66.9469 5.89061 64.9686 6.59225C64.2941 6.82613 63.7995 7.10678 63.4848 7.48099C63.17 7.8552 63.0352 8.36973 63.0352 8.97782V31.0093C63.0352 32.5061 63.3499 33.4884 63.9794 34.0497C64.6089 34.611 65.688 34.8917 67.2167 34.8917L69.0602 34.7981C70.2292 34.7046 70.8587 33.8626 70.8587 32.319V25.4897ZM73.6914 19.2685H70.8138V12.2521C71.2634 12.1586 71.8929 12.065 72.7921 12.065C74.3658 12.065 75.5349 12.3925 76.2543 12.9538C76.9737 13.5619 77.3784 14.4506 77.3784 15.6668C77.3784 16.883 77.0186 17.7717 76.3892 18.3798C75.7597 18.9879 74.8604 19.2685 73.6914 19.2685Z" fill="#353535"/>
<path d="M87.5835 14.0764C86.8641 15.9942 86.5493 18.0991 86.5493 20.4379C86.5493 22.7299 86.8641 24.8349 87.5835 26.7059C88.3029 28.6237 89.2921 30.2609 90.596 31.5706C91.855 32.8803 93.3387 33.8626 95.0923 34.5175C96.8009 35.1723 98.6893 35.4998 100.758 35.4998C102.826 35.4998 104.714 35.1723 106.468 34.5175C108.177 33.8626 109.705 32.9271 110.964 31.6174C112.223 30.3076 113.212 28.6705 113.932 26.7527C114.651 24.8816 115.011 22.7767 115.011 20.4379C115.011 18.0991 114.651 15.9942 113.932 14.0764C113.212 12.2054 112.223 10.5682 110.874 9.25848C109.57 8.0423 108.042 7.06001 106.333 6.40514C104.624 5.75028 102.736 5.42285 100.758 5.42285C98.7343 5.42285 96.8459 5.75028 95.1373 6.40514C93.4287 7.06001 91.9449 8.0423 90.6859 9.25848C89.337 10.5682 88.3029 12.2054 87.5835 14.0764ZM96.2164 26.7527C95.1373 25.3026 94.6427 23.1977 94.6427 20.4379C94.6427 17.7249 95.1373 15.6668 96.2164 14.2167C97.2955 12.7667 98.8242 12.0183 100.803 12.0183C102.691 12.0183 104.22 12.7667 105.299 14.2167C106.378 15.7136 106.918 17.7717 106.918 20.4379C106.918 23.1509 106.378 25.2558 105.299 26.7059C104.22 28.2027 102.736 28.9044 100.758 28.9044C98.7793 28.9044 97.2955 28.2027 96.2164 26.7527Z" fill="#353535"/>
<path d="M120.924 34.7981H132.974C134.817 34.7981 135.761 33.6755 135.761 31.3835C135.761 31.0093 135.672 30.448 135.537 29.7463C135.222 28.7173 134.413 28.2027 133.064 28.2027H124.611V9.72624C124.611 8.27618 124.296 7.24711 123.666 6.6858C123.037 6.12449 121.913 5.84383 120.384 5.84383L119.395 5.79706C118.631 5.79706 118.001 5.98416 117.506 6.31159C116.967 6.6858 116.742 7.38744 116.742 8.41651V30.448C116.742 31.8045 117.102 32.8803 117.866 33.6287C118.586 34.4239 119.62 34.7981 120.924 34.7981Z" fill="#353535"/>
<path d="M144.067 8.69717L142.539 13.1877L141.1 17.5378L139.661 21.9815C138.627 25.2558 137.907 27.6414 137.548 29.185C137.413 29.7931 137.278 30.3076 137.143 30.7286C137.008 31.0093 136.963 31.477 136.963 32.0384C136.963 33.0207 137.323 33.7691 138.132 34.3304C138.897 34.8917 140.021 35.1256 141.459 35.1256C141.999 35.1256 142.539 35.0788 142.988 34.9852C143.932 34.7981 144.562 34.0965 144.922 32.7868L145.191 31.6642L145.911 28.764H154.049L154.858 31.9916C155.218 33.2078 155.668 34.0497 156.252 34.4707C156.837 34.9385 157.826 35.1256 159.175 35.1256C160.389 35.1256 161.333 34.9852 162.008 34.611C162.637 34.2368 162.997 33.6755 162.997 32.8335C162.997 32.5529 162.952 32.1787 162.862 31.8045L159.939 20.9525C158.5 15.8071 157.286 11.6908 156.297 8.65039C155.938 7.76165 155.263 7.06001 154.184 6.59225C153.105 6.12449 151.711 5.84383 150.092 5.84383C146.765 5.84383 144.787 6.82613 144.067 8.69717ZM150.047 13.1877H150.317C150.947 15.4329 151.801 18.5201 152.79 22.4493H147.215C147.574 20.8589 148.069 19.2218 148.654 17.5378L150.047 13.1877Z" fill="#353535"/>
<path fill-rule="evenodd" clip-rule="evenodd" d="M47.5089 21.3466L25.8828 5.66966L27.2567 3.6543L48.8828 19.3312L47.5089 21.3466Z" fill="#353535"/>
<path fill-rule="evenodd" clip-rule="evenodd" d="M47.5089 19.5771L25.8828 34.4702L27.2567 36.3848L48.8828 21.4917L47.5089 19.5771Z" fill="#353535"/>
<path fill-rule="evenodd" clip-rule="evenodd" d="M26.258 19.5767L15.2695 26.6136L16.6657 28.4229L27.6541 21.386L26.258 19.5767Z" fill="#353535"/>
<path fill-rule="evenodd" clip-rule="evenodd" d="M26.258 21.346L15.2695 13.6054L16.6657 11.6152L27.6541 19.3558L26.258 21.346Z" fill="#353535"/>
<path d="M0 20C0 17.2386 2.23857 15 5 15C7.76142 15 10 17.2386 10 20C10 22.7614 7.76142 25 5 25C2.23857 25 0 22.7614 0 20Z" fill="#136CB9"/>
<path d="M22 20C22 17.2386 24.2386 15 27 15C29.7614 15 32 17.2386 32 20C32 22.7614 29.7614 25 27 25C24.2386 25 22 22.7614 22 20Z" fill="#1781DE"/>
<path d="M43 20C43 17.2386 45.2386 15 48 15C50.7614 15 53 17.2386 53 20C53 22.7614 50.7614 25 48 25C45.2386 25 43 22.7614 43 20Z" fill="#3A99EA"/>
<path d="M33 13C33 10.2386 35.2386 8 38 8C40.7614 8 43 10.2386 43 13C43 15.7614 40.7614 18 38 18C35.2386 18 33 15.7614 33 13Z" fill="#3A99EA"/>
<path d="M33 28C33 25.2386 35.2386 23 38 23C40.7614 23 43 25.2386 43 28C43 30.7614 40.7614 33 38 33C35.2386 33 33 30.7614 33 28Z" fill="#3A99EA"/>
<path d="M22 36C22 33.2386 24.2386 31 27 31C29.7614 31 32 33.2386 32 36C32 38.7614 29.7614 41 27 41C24.2386 41 22 38.7614 22 36Z" fill="#3A99EA"/>
<path d="M22 5C22 2.23858 24.2386 0 27 0C29.7614 0 32 2.23858 32 5C32 7.76142 29.7614 10 27 10C24.2386 10 22 7.76142 22 5Z" fill="#3A99EA"/>
<path d="M11 28C11 25.2386 13.2386 23 16 23C18.7614 23 21 25.2386 21 28C21 30.7614 18.7614 33 16 33C13.2386 33 11 30.7614 11 28Z" fill="#1781DE"/>
<path d="M11 13C11 10.2386 13.2386 8 16 8C18.7614 8 21 10.2386 21 13C21 15.7614 18.7614 18 16 18C13.2386 18 11 15.7614 11 13Z" fill="#1781DE"/>
</svg>
