<svg width="163" height="41" viewBox="0 0 163 41" fill="none" xmlns="http://www.w3.org/2000/svg">
<path d="M70.8587 25.4887H73.2418L77.0186 31.8035C77.6481 33.0197 78.3226 33.8616 79.042 34.3294C79.7164 34.7972 80.6607 35.031 81.8297 35.031C82.5941 35.031 83.2685 34.8907 83.853 34.5633C84.4375 34.2826 84.9321 33.9084 85.2918 33.4407C85.6515 32.9729 85.8764 32.4584 85.8764 31.9438C85.8764 31.4761 85.6965 30.9615 85.3368 30.4002C84.9771 29.8389 84.4375 29.0437 83.6732 28.0147L80.4808 23.7113C82.0095 22.8693 83.1786 21.7467 84.0329 20.3434C84.8872 18.9401 85.3368 17.3497 85.3368 15.5723C85.3368 12.3915 84.2577 9.91236 82.0995 8.13488C79.9412 6.40417 76.8388 5.51543 72.8371 5.51543C69.5998 5.51543 66.9469 5.88963 64.9686 6.59127C64.2941 6.82515 63.7995 7.10581 63.4848 7.48002C63.17 7.85422 63.0352 8.36876 63.0352 8.97684V31.0083C63.0352 32.5051 63.3499 33.4874 63.9794 34.0487C64.6089 34.6101 65.688 34.8907 67.2167 34.8907L69.0602 34.7972C70.2292 34.7036 70.8587 33.8616 70.8587 32.318V25.4887ZM73.6914 19.2676H70.8138V12.2512C71.2634 12.1576 71.8929 12.0641 72.7921 12.0641C74.3658 12.0641 75.5349 12.3915 76.2543 12.9528C76.9737 13.5609 77.3784 14.4496 77.3784 15.6658C77.3784 16.882 77.0186 17.7707 76.3892 18.3788C75.7597 18.9869 74.8604 19.2676 73.6914 19.2676Z" fill="white"/>
<path d="M87.5835 14.0754C86.8641 15.9932 86.5493 18.0982 86.5493 20.4369C86.5493 22.729 86.8641 24.8339 87.5835 26.7049C88.3029 28.6227 89.2921 30.2599 90.596 31.5696C91.855 32.8793 93.3387 33.8616 95.0923 34.5165C96.8009 35.1714 98.6893 35.4988 100.758 35.4988C102.826 35.4988 104.714 35.1714 106.468 34.5165C108.177 33.8616 109.705 32.9261 110.964 31.6164C112.223 30.3067 113.212 28.6695 113.932 26.7517C114.651 24.8807 115.011 22.7757 115.011 20.4369C115.011 18.0982 114.651 15.9932 113.932 14.0754C113.212 12.2044 112.223 10.5672 110.874 9.2575C109.57 8.04133 108.042 7.05903 106.333 6.40417C104.624 5.7493 102.736 5.42188 100.758 5.42188C98.7343 5.42188 96.8459 5.7493 95.1373 6.40417C93.4287 7.05903 91.9449 8.04133 90.6859 9.2575C89.337 10.5672 88.3029 12.2044 87.5835 14.0754ZM96.2164 26.7517C95.1373 25.3016 94.6427 23.1967 94.6427 20.4369C94.6427 17.7239 95.1373 15.6658 96.2164 14.2157C97.2955 12.7657 98.8242 12.0173 100.803 12.0173C102.691 12.0173 104.22 12.7657 105.299 14.2157C106.378 15.7126 106.918 17.7707 106.918 20.4369C106.918 23.15 106.378 25.2549 105.299 26.7049C104.22 28.2018 102.736 28.9034 100.758 28.9034C98.7793 28.9034 97.2955 28.2018 96.2164 26.7517Z" fill="white"/>
<path d="M120.924 34.7972H132.974C134.817 34.7972 135.761 33.6745 135.761 31.3825C135.761 31.0083 135.672 30.447 135.537 29.7454C135.222 28.7163 134.413 28.2018 133.064 28.2018H124.611V9.72526C124.611 8.27521 124.296 7.24614 123.666 6.68482C123.037 6.12351 121.913 5.84286 120.384 5.84286L119.395 5.79608C118.631 5.79608 118.001 5.98318 117.506 6.31062C116.967 6.68482 116.742 7.38646 116.742 8.41553V30.447C116.742 31.8035 117.102 32.8793 117.866 33.6278C118.586 34.423 119.62 34.7972 120.924 34.7972Z" fill="white"/>
<path d="M144.067 8.69619L142.539 13.1867L141.1 17.5368L139.661 21.9806C138.627 25.2549 137.907 27.6404 137.548 29.184C137.413 29.7921 137.278 30.3067 137.143 30.7277C137.008 31.0083 136.963 31.4761 136.963 32.0374C136.963 33.0197 137.323 33.7681 138.132 34.3294C138.897 34.8907 140.021 35.1246 141.459 35.1246C141.999 35.1246 142.539 35.0778 142.988 34.9843C143.932 34.7972 144.562 34.0955 144.922 32.7858L145.191 31.6632L145.911 28.7631H154.049L154.858 31.9906C155.218 33.2068 155.668 34.0487 156.252 34.4697C156.837 34.9375 157.826 35.1246 159.175 35.1246C160.389 35.1246 161.333 34.9843 162.008 34.6101C162.637 34.2358 162.997 33.6745 162.997 32.8326C162.997 32.5519 162.952 32.1777 162.862 31.8035L159.939 20.9515C158.5 15.8061 157.286 11.6898 156.297 8.64941C155.938 7.76067 155.263 7.05903 154.184 6.59127C153.105 6.12351 151.711 5.84286 150.092 5.84286C146.765 5.84286 144.787 6.82515 144.067 8.69619ZM150.047 13.1867H150.317C150.947 15.4319 151.801 18.5191 152.79 22.4483H147.215C147.574 20.8579 148.069 19.2208 148.654 17.5368L150.047 13.1867Z" fill="white"/>
<path fill-rule="evenodd" clip-rule="evenodd" d="M47.5089 21.3466L25.8828 5.66966L27.2567 3.6543L48.8828 19.3312L47.5089 21.3466Z" fill="white"/>
<path fill-rule="evenodd" clip-rule="evenodd" d="M47.5089 19.5771L25.8828 34.4702L27.2567 36.3848L48.8828 21.4917L47.5089 19.5771Z" fill="white"/>
<path fill-rule="evenodd" clip-rule="evenodd" d="M26.258 19.5757L15.2695 26.6126L16.6657 28.4219L27.6541 21.385L26.258 19.5757Z" fill="white"/>
<path fill-rule="evenodd" clip-rule="evenodd" d="M26.258 21.346L15.2695 13.6054L16.6657 11.6152L27.6541 19.3558L26.258 21.346Z" fill="white"/>
<path d="M0 20C0 17.2386 2.23857 15 5 15C7.76142 15 10 17.2386 10 20C10 22.7614 7.76142 25 5 25C2.23857 25 0 22.7614 0 20Z" fill="white"/>
<path d="M22 20C22 17.2386 24.2386 15 27 15C29.7614 15 32 17.2386 32 20C32 22.7614 29.7614 25 27 25C24.2386 25 22 22.7614 22 20Z" fill="white"/>
<path d="M43 20C43 17.2386 45.2386 15 48 15C50.7614 15 53 17.2386 53 20C53 22.7614 50.7614 25 48 25C45.2386 25 43 22.7614 43 20Z" fill="white"/>
<path d="M33 13C33 10.2386 35.2386 8 38 8C40.7614 8 43 10.2386 43 13C43 15.7614 40.7614 18 38 18C35.2386 18 33 15.7614 33 13Z" fill="white"/>
<path d="M33 28C33 25.2386 35.2386 23 38 23C40.7614 23 43 25.2386 43 28C43 30.7614 40.7614 33 38 33C35.2386 33 33 30.7614 33 28Z" fill="white"/>
<path d="M22 36C22 33.2386 24.2386 31 27 31C29.7614 31 32 33.2386 32 36C32 38.7614 29.7614 41 27 41C24.2386 41 22 38.7614 22 36Z" fill="white"/>
<path d="M22 5C22 2.23858 24.2386 0 27 0C29.7614 0 32 2.23858 32 5C32 7.76142 29.7614 10 27 10C24.2386 10 22 7.76142 22 5Z" fill="white"/>
<path d="M11 28C11 25.2386 13.2386 23 16 23C18.7614 23 21 25.2386 21 28C21 30.7614 18.7614 33 16 33C13.2386 33 11 30.7614 11 28Z" fill="white"/>
<path d="M11 13C11 10.2386 13.2386 8 16 8C18.7614 8 21 10.2386 21 13C21 15.7614 18.7614 18 16 18C13.2386 18 11 15.7614 11 13Z" fill="white"/>
</svg>
