<svg width="45" height="45" viewBox="0 0 45 45" fill="none" xmlns="http://www.w3.org/2000/svg">
<path d="M44.1692 25.2979L37.9775 21.5829C37.5964 21.4259 37.1582 21.5737 36.9503 21.9294C36.7421 22.285 36.8283 22.7394 37.1519 22.9945L42.9308 26.4699V37.4994L33.0241 43.2289L27.1793 40.038C26.779 39.8191 26.2774 39.9662 26.0585 40.3661C25.8396 40.7663 25.9866 41.2679 26.3865 41.4868L32.6114 44.9008C32.7382 44.969 32.8805 45.0032 33.0242 44.9996C33.169 44.9996 33.3117 44.9609 33.437 44.8883L44.1692 38.6966C44.4243 38.5491 44.5816 38.2772 44.582 37.9823V26.0037C44.5787 25.7122 44.4217 25.4435 44.1692 25.2979L44.1692 25.2979Z" fill="black"/>
<path d="M17.3697 39.9841L11.5908 43.0014L1.65113 37.3795V26.4699L7.43003 22.9944V22.994C7.65079 22.903 7.82143 22.721 7.89772 22.4947C7.97401 22.2684 7.94858 22.0203 7.82806 21.8139C7.70755 21.6079 7.50374 21.4642 7.26897 21.4196C7.03457 21.3754 6.79206 21.4347 6.60446 21.5825L0.412784 25.2975C0.160324 25.4431 0.00332689 25.7118 5.78835e-06 26.0033V37.863C-0.00109989 38.159 0.156267 38.4332 0.412784 38.5809L11.145 44.6613C11.2714 44.7317 11.4133 44.7685 11.5578 44.7685C11.6901 44.7678 11.8206 44.7354 11.9374 44.6738L18.1291 41.4501V41.4497C18.5205 41.2334 18.6683 40.7447 18.4626 40.3477C18.2566 39.9508 17.7723 39.7897 17.3699 39.9843L17.3697 39.9841Z" fill="black"/>
<path d="M11.556 14.8593C11.7749 14.8593 11.985 14.7723 12.1398 14.6175C12.2946 14.4627 12.3816 14.2527 12.3816 14.0337V7.49523L22.2883 1.77822L32.195 7.49523V14.0337C32.195 14.4896 32.5646 14.8593 33.0205 14.8593C33.4764 14.8593 33.8461 14.4896 33.8461 14.0337V7.0165C33.8457 6.72203 33.6883 6.44967 33.4333 6.30225L22.7011 0.110566C22.4456 -0.0368552 22.1309 -0.0368552 21.8755 0.110566L11.1432 6.30225C10.8882 6.44967 10.7308 6.72203 10.7305 7.0165V14.0337C10.7305 14.2527 10.8174 14.4627 10.9722 14.6175C11.127 14.7723 11.3371 14.8593 11.556 14.8593Z" fill="black"/>
<path d="M33.8461 32.1958V19.8124C33.8457 19.5179 33.6883 19.2456 33.4333 19.0981L22.7011 12.9065C22.4456 12.759 22.1309 12.759 21.8755 12.9065L11.1432 19.0981C10.8882 19.2456 10.7308 19.5179 10.7305 19.8124V32.1958C10.7308 32.4902 10.8882 32.7626 11.1432 32.91L21.8755 39.1017C22.1309 39.2491 22.4456 39.2491 22.7011 39.1017L33.4333 32.91C33.6883 32.7626 33.8457 32.4902 33.8461 32.1958ZM22.2883 14.5656L31.3321 19.7873L22.2883 25.0461L13.269 19.7748L22.2883 14.5656ZM12.3816 21.1701L21.4627 26.4784V36.9672L12.3816 31.725V21.1701ZM23.1138 36.967V26.4782L32.195 21.1946V31.7202L23.1138 36.967Z" fill="black"/>
</svg>
