<svg width="38" height="46" viewBox="0 0 38 46" fill="none" xmlns="http://www.w3.org/2000/svg">
<path d="M35.5984 7.16623C29.6481 7.16623 23.9103 4.89915 19.5889 0.791027C19.0216 0.294918 18.1722 0.294918 17.6761 0.791027C13.355 4.89966 7.61707 7.16623 1.66664 7.16623C0.887393 7.16623 0.25 7.80366 0.25 8.58287V30.6845C0.25 30.8969 0.320659 31.0388 0.391815 31.2512C3.29632 37.839 8.8923 42.7269 15.8346 44.6397C15.9818 44.6822 18.6679 45.4189 18.6679 45.4189C18.6679 45.4189 21.3238 44.6916 21.5012 44.6397C28.4437 42.7274 34.0397 37.8395 36.9439 31.2512C37.0146 31.0388 37.0848 30.8969 37.0848 30.6845L37.0853 8.58287C37.0151 7.80363 36.3772 7.16623 35.5979 7.16623H35.5984ZM34.1817 30.4012C31.6315 36.0684 26.7436 40.2478 20.7224 41.948L18.5972 42.5143L16.4719 41.948C10.4504 40.2487 5.56301 36.0684 3.01257 30.4012V9.92893C8.75036 9.64579 14.205 7.44933 18.597 3.69502C22.9889 7.44946 28.4436 9.64532 34.1815 9.92893L34.1817 30.4012ZM17.7472 20.8378L10.2385 28.4178L14.0635 32.2428L16.047 30.2583L14.2053 28.4176L15.0552 27.5677L16.8969 29.4103L18.8804 27.4258L17.0387 25.5837L19.7307 22.8918C20.4393 23.2461 21.219 23.4585 22.0688 23.4585C24.831 23.4585 27.0274 21.2627 27.0274 18.5C27.0274 15.7373 24.8305 13.5414 22.0688 13.5414C19.3061 13.5414 17.1103 15.7373 17.1103 18.5C17.1804 19.3504 17.3929 20.1296 17.7472 20.8376V20.8378ZM22.1391 16.3754C23.3433 16.3754 24.2644 17.2964 24.2644 18.5006C24.2644 19.7048 23.3433 20.6259 22.1391 20.6259C20.9348 20.6259 20.0138 19.7049 20.0138 18.5006C20.0138 17.2959 20.9348 16.3754 22.1391 16.3754Z" fill="white"/>
</svg>
