<svg width="46" height="45" viewBox="0 0 46 45" fill="none" xmlns="http://www.w3.org/2000/svg">
<path d="M37.2124 17.6071C35.7643 16.2154 33.8238 15.4485 31.7675 15.4485C29.704 15.4485 27.7707 16.2154 26.3226 17.6071L24.0636 19.7373C23.9477 19.8509 23.9477 20.0355 24.0636 20.142L25.4683 21.4983C25.5769 21.6048 25.7579 21.6048 25.8737 21.4983L28.1183 19.361C29.0958 18.4308 30.3846 17.9196 31.7603 17.9196C33.1361 17.9196 34.4248 18.4308 35.4023 19.361C36.3725 20.2912 36.9011 21.5266 36.9011 22.8403C36.9011 24.1468 36.3653 25.3823 35.4023 26.2983C34.4248 27.2285 33.1361 27.7398 31.7603 27.7398C30.3846 27.7398 29.0958 27.2285 28.1183 26.2983L19.0238 17.6068C17.5612 16.2151 15.628 15.4482 13.5789 15.4482C11.5154 15.4482 9.58216 16.2151 8.13405 17.6068C6.67873 18.9986 5.875 20.8518 5.875 22.8329C5.875 24.8069 6.67873 26.6672 8.13405 28.059C9.58216 29.4507 11.5227 30.2176 13.5789 30.2176C15.6425 30.2176 17.5757 29.4507 19.0238 28.059L21.2684 25.9288C21.3842 25.8152 21.3842 25.6306 21.2684 25.5241L19.8637 24.182C19.7551 24.0755 19.5741 24.0755 19.4582 24.182L17.2137 26.3051C16.2362 27.2353 14.9474 27.7466 13.5717 27.7466C12.1959 27.7466 10.9071 27.2353 9.92964 26.3051C8.95942 25.375 8.43082 24.1395 8.43082 22.8258C8.43082 21.5193 8.96662 20.2909 9.92964 19.3678C10.9071 18.4376 12.1959 17.9263 13.5717 17.9263C14.9474 17.9263 16.2362 18.4376 17.2137 19.3678L26.3008 28.0658C27.7635 29.4575 29.6967 30.2244 31.7457 30.2244C33.8093 30.2244 35.7425 29.4575 37.1906 28.0658C38.6532 26.674 39.4569 24.8208 39.4569 22.8397C39.4714 20.8586 38.6677 18.9982 37.2123 17.6065L37.2124 17.6071Z" fill="white"/>
<circle cx="22.668" cy="22.5" r="21.5" stroke="white" stroke-width="2"/>
</svg>
