<svg width="46" height="46" viewBox="0 0 46 46" fill="none" xmlns="http://www.w3.org/2000/svg">
<path d="M43.8268 29.5204L43.827 29.5202C45.173 28.1749 45.1734 25.9936 43.8278 24.6471C43.8277 24.647 43.8276 24.6469 43.8276 24.6469L21.8988 2.7181C21.1849 2.00416 20.1939 1.63957 19.1876 1.71995L6.05723 2.76894C6.05719 2.76894 6.05716 2.76894 6.05712 2.76895C4.37077 2.90391 3.03175 4.24295 2.89682 5.92931L43.8268 29.5204ZM43.8268 29.5204L29.6473 43.6999C28.3019 45.0453 26.1195 45.0453 24.774 43.6999L2.84506 21.7709C2.13114 21.057 1.76654 20.066 1.8469 19.0598C1.8469 19.0598 1.8469 19.0598 1.8469 19.0598L2.89682 5.92935L43.8268 29.5204ZM12.7605 17.2306C13.9354 17.2306 15.1161 16.7838 16.0142 15.8845C17.8085 14.0897 17.8099 11.1728 16.0147 9.37759C14.2199 7.58284 11.3025 7.58124 9.50709 9.37783C7.71227 11.1729 7.71235 14.09 9.50733 15.885C10.4049 16.7825 11.585 17.2306 12.7605 17.2306Z" stroke="white" stroke-width="2"/>
</svg>
