<?xml version='1.0' encoding='utf-8'?>
<svg xmlns="http://www.w3.org/2000/svg" version="1.1" width="1080px" height="2132px" viewBox="0 0 1080 2132"> <g id="layer1"> <g style="fill:rgb(255,255,255); fill-opacity:1.0; stroke-linejoin: miter"> <path d="M-152.00098,558.0946C-152.24084,558.0946,-152.4709,558.1899,-152.64052,558.3595C-152.81013,558.5291,-152.90543,558.75916,-152.90543,558.999L-152.90442,1547.0C-152.90442,1547.4995,-152.49948,1547.9044,-151.99997,1547.9044L1231.001,1547.9054C1231.2408,1547.9054,1231.471,1547.81,1231.6405,1547.6405C1231.81,1547.471,1231.9054,1547.2408,1231.9054,1547.001L1231.9044,559.0C1231.9044,558.5005,1231.4995,558.0956,1231.0,558.0956L-152.00098,558.0946 Z"/> </g> <g style="fill:rgb(197,230,255); fill-opacity:1.0; stroke-linejoin: miter"> <path d="M101.05693,1431.3011L85.514755,1409.9755Q-42.0451,1238.9032,-16.028763,1166.4149Q-16.475765,1156.8807,5.0119514,1112.0443Q13.143009,1094.7605,74.94139,1004.3867Q86.61771,985.927,96.10216,966.66565Q105.38342,947.3187,112.27376,927.3888L146.38045,812.8112L159.74776,780.5827Q174.45033,750.54706,201.41121,733.4277Q255.29509,701.8213,364.88852,698.84406Q583.0074,686.8064,714.22296,704.7552Q785.085,713.0541,849.789,743.79407Q919.88434,783.1671,958.3031,840.6805Q971.7004,859.2632,983.3514,878.096L1076.1165,1030.1052Q1102.5674,1086.1152,1103.0211,1115.8256Q1110.1564,1223.1294,1022.7714,1436.2452L101.05693,1431.3011"/> </g> <g style="fill:rgb(255,255,255); fill-opacity:1.0; stroke-linejoin: miter"> <path d="M570.8224,693.6758L570.8224,693.6758L570.8224,693.6758L570.8224,693.6758L570.8224,693.6758L570.8224,693.6758L570.8224,693.6758L570.8224,693.6758L570.8224,693.6758L570.8224,693.6758 M570.8224,701.4496L570.8224,701.4496L570.8224,701.4496L570.8224,701.4496L570.8224,701.4496L570.8224,701.4496L570.8224,701.4496L570.8224,701.4496L570.8224,701.4496 Z"/> </g> <g style="fill:rgb(255,255,255); fill-opacity:1.0; stroke-linejoin: miter"> <path d="M570.8224,693.6758L570.8224,693.6758L570.8224,693.6758L570.8224,693.6758L570.8224,693.6758L570.8224,693.6758L570.8224,693.6758L570.8224,693.6758L570.8224,693.6758L570.8224,693.6758 M570.8224,701.4496L570.8224,701.4496L570.8224,701.4496L570.8224,701.4496L570.8224,701.4496L570.8224,701.4496L570.8224,701.4496L570.8224,701.4496L570.8224,701.4496 Z"/> </g> <g style="fill:rgb(220,229,235); fill-opacity:1.0; stroke-linejoin: miter"> <path d="M215.79549,711.26385L215.79552,711.26447L215.79555,711.2651L215.79552,711.26447L215.79549,711.26385L215.79552,711.26447L215.79555,711.2651Q215.79552,711.26447,215.79549,711.26385"/> </g> <g style="fill:rgb(255,255,255); fill-opacity:1.0; stroke-linejoin: miter"> <path d="M592.7838,731.3343L592.7839,731.3348L592.784,731.33527L592.7839,731.3348L592.7838,731.3343L592.7839,731.3348L592.784,731.33527Q592.7839,731.3348,592.7838,731.3343"/> </g> <g style="fill:rgb(255,255,255); fill-opacity:1.0; stroke-linejoin: miter"> <path d="M542.00775,640.1594L542.0078,640.1599L542.0079,640.1604L542.0078,640.1599L542.00775,640.1594L542.0078,640.1599L542.0079,640.1604Q542.0078,640.1599,542.00775,640.1594"/> </g> <g style="fill:rgb(255,255,255); fill-opacity:1.0; stroke-linejoin: miter"> <path d="M542.00775,640.1594L542.0078,640.1599L542.0079,640.1604L542.0078,640.1599L542.00775,640.1594L542.0078,640.1599L542.0079,640.1604Q542.0078,640.1599,542.00775,640.1594"/> </g> <g style="fill:rgb(171,182,191); fill-opacity:1.0; stroke-linejoin: miter"> <path d="M1029.9594,1434.0109L1025.6951,1435.2235Q995.40424,1438.8003,848.5123,1440.2955Q700.6041,1441.7838,500.1858,1440.3506Q308.91345,1438.7955,194.24779,1435.3533Q157.50768,1434.2423,133.72504,1433.0306L113.7374,1431.8075Q97.26694,1430.5659,97.08804,1429.3057Q102.10928,1425.4664,233.73637,1423.564Q365.3635,1421.6615,563.5697,1422.5637Q761.7749,1423.6609,893.376,1426.8909Q1024.977,1430.121,1029.9594,1434.0109"/> </g> <g style="fill:rgb(0,0,0); fill-opacity:1.0; stroke-linejoin: miter"> <path d="M625.1454,975.00616L624.88306,974.4129Q622.1332,968.1386,614.92883,964.1059Q608.062,959.75433,599.19275,959.0833Q582.1228,959.0754,572.56885,972.55096Q564.54736,983.4886,565.36194,996.4805Q565.92834,1002.01434,568.824,1007.83185Q572.1384,1014.6066,580.09875,1025.5822L580.5305,1034.5979L625.1454,975.00616 Z"/> </g> <g style="fill:rgb(255,178,152); fill-opacity:1.0; stroke-linejoin: miter"> <path d="M579.2899,1040.9149L579.28845,1040.9205L579.2886,1040.9176L580.2291,1029.3613L579.73694,1025.026C582.9219,1024.6783,585.38696,1023.77814,587.0427,1022.2225C588.5936,1020.76166,589.708,1018.6423,590.3052,1015.91705C590.81287,1013.59784,590.8766,1011.90607,590.765,1010.868C590.6929,1010.1966,590.66895,1009.52094,590.5377,1008.86774C589.70325,1004.6772,589.30566,1002.4737,589.4114,1002.2354C589.2731,1001.15704,589.3356,999.7701,590.1056,998.3072C591.87524,994.94525,594.01404,993.85956,596.10803,994.57135C596.6594,994.7574,597.3773,995.34906,598.3429,996.43805C598.6709,996.8077,599.82837,998.76996,601.8071,1002.38885C602.2897,1003.27057,602.75916,1003.5716,602.94226,1003.25665C603.29236,1002.65826,603.3871,1001.93695,603.4347,1001.1849C603.7799,995.7137,604.0758,991.9985,604.3567,990.04535C604.8727,986.45856,605.40454,984.4222,605.5668,983.8111C606.49927,980.27985,608.3815,976.99945,612.053,974.86554C617.45166,971.72833,621.8871,971.6849,624.8971,973.8863C627.7931,980.40106,629.27844,984.732,629.6199,986.842C629.99756,989.18414,629.58777,991.5213,628.1306,993.90607C633.43677,1000.72906,635.931,1004.98444,636.2097,1006.6005C636.5563,1008.59894,634.9889,1009.71576,630.92505,1010.0793C631.81836,1012.9742,632.1056,1014.8143,631.97876,1015.62885C631.8357,1016.54083,631.14636,1017.28375,629.71594,1017.8349C630.7876,1017.94086,631.2731,1018.65814,631.0901,1019.97406C630.92944,1021.14056,630.26746,1023.0887,629.1864,1025.8307C629.68896,1028.9114,629.81946,1031.1897,629.3788,1032.6139C628.953,1033.991,628.32153,1034.774,627.67786,1035.0316C626.75085,1035.8164,624.23755,1036.3992,620.13794,1036.7864L613.01465,1034.9246L604.1638,1059.7346L579.2899,1040.9149L579.28845,1040.9205 Z"/> </g> <g style="fill:rgb(0,0,0); fill-opacity:0.99607843; stroke-linejoin: miter"> <path d="M615.71814,995.2459L615.96216,994.90704Q617.53015,992.6291,618.8507,991.7436Q619.14636,991.5494,619.4557,991.40094Q619.6034,991.3046,620.4138,991.0363Q621.2294,990.78595,622.7864,990.58746Q620.6564,991.6812,619.4673,992.4805Q618.3004,993.2341,615.71814,995.2459 Z"/> </g> <g style="fill:rgb(0,0,0); fill-opacity:0.99607843; stroke-linejoin: miter"> <path d="M620.10547,1000.4775L620.10596,1000.47797L620.1052,1000.47955L620.10547,1000.4775 Z"/> </g> <g style="fill:rgb(255,255,255); fill-opacity:0.99607843; stroke-linejoin: miter"> <path d="M618.4955,997.00836L618.496,997.00946L621.5265,993.1337Q622.3638,993.61676,622.6537,994.06647Q622.9662,994.47955,623.3324,995.7249L618.4955,997.00836 Z"/> </g> <g style="fill:rgb(0,0,0); fill-opacity:0.99607843; stroke-linejoin: miter"> <path d="M621.4873,993.1214L621.245,995.0616L623.20557,995.7137Q623.13306,994.9976,623.0409,994.648Q622.9424,994.3034,622.90686,994.2497Q622.8507,994.1268,622.781,994.017Q622.7086,993.91034,622.6207,993.8171Q622.58496,993.764,622.3246,993.56915Q622.0591,993.3786,621.4873,993.1214 Z"/> </g> <g style="fill:rgb(0,0,0); fill-opacity:0.99607843; stroke-linejoin: miter"> <path d="M608.4791,951.5504L608.48,951.55133L608.4791,951.5504L608.48,951.55133 Z"/> </g> <g style="fill:rgb(255,255,255); fill-opacity:1.0; stroke-linejoin: miter"> <path d="M585.53076,929.9831L585.5309,929.98517L585.5314,929.98663L585.53076,929.9831 Z"/> </g> <g style="fill:rgb(0,0,0); fill-opacity:1.0; stroke-linejoin: miter"> <path d="M623.4469,1013.1401L623.4464,1013.14044L623.44727,1013.142L623.4469,1013.1401 Z"/> </g> <g style="fill:rgb(74,100,171); fill-opacity:1.0; stroke-linejoin: miter"> <path d="M575.7146,1162.4426L574.81384,1170.945C572.65466,1188.3542,571.67053,1203.9847,573.18225,1217.7122C574.7604,1232.0408,579.3644,1240.6979,585.67786,1243.8489C594.08545,1252.3608,622.2462,1249.6539,670.16003,1235.7279L692.75476,1402.2811L735.83234,1392.8882C735.3604,1331.3008,734.0474,1289.0631,731.8338,1266.1813C729.00433,1236.9377,724.18976,1219.0735,718.18256,1211.9431C712.5013,1205.2,705.8398,1201.1959,697.61804,1199.5614C688.8335,1197.815,670.65063,1196.8632,642.8567,1197.6815L628.4221,1150.4233L575.7146,1162.4426 Z"/> </g> <g style="fill:rgb(0,0,0); fill-opacity:0.99607843; stroke-linejoin: miter"> <path d="M651.89307,1083.1472L651.8933,1083.1487L651.89355,1083.15L651.89307,1083.1472 Z"/> </g> <g style="fill:rgb(125,139,150); fill-opacity:0.99607843; stroke-linejoin: miter"> <path d="M575.1925,1131.7428L575.19275,1131.7444L575.1925,1131.7441L575.1925,1131.7428 Z"/> </g> <g style="fill:rgb(188,60,47); fill-opacity:1.0; stroke-linejoin: miter"> <path d="M610.6979,1208.7528L610.6985,1208.7535L609.4203,1211.8396C602.6481,1228.5189,596.8015,1237.8658,592.2721,1240.5759C587.01636,1243.722,580.2174,1244.8999,571.4514,1243.4332C570.7322,1241.3617,570.0342,1239.279,569.32007,1237.196C565.4042,1225.7778,563.198,1215.5223,562.46765,1206.4409C562.3308,1204.7401,561.943,1200.8203,562.1937,1194.6724C563.0996,1172.4631,563.65234,1161.032,563.6345,1160.3037C563.5835,1158.2275,563.65576,1154.0715,563.3662,1147.8374C562.9938,1139.8264,560.60767,1124.8053,557.1134,1102.6309C555.97754,1095.4244,555.9872,1091.1508,555.9275,1089.925C555.7377,1086.0474,556.1019,1081.232,557.01526,1075.3872C557.2335,1073.9945,558.15845,1070.4474,560.46826,1064.9034C562.755,1059.4161,567.2373,1052.6881,573.63794,1044.602L576.5055,1033.1522L610.31934,1038.7699L610.5864,1048.5261C624.57764,1066.1272,632.5803,1079.7139,635.485,1089.0255C638.6754,1099.2493,641.4188,1109.807,642.83215,1120.9854C643.16785,1121.2032,639.6366,1137.1368,643.0841,1172.5338C644.16614,1183.6482,650.5375,1193.2655,651.30835,1197.6494C653.0065,1207.3083,655.0228,1214.1178,657.4031,1218.0696C649.8943,1222.1637,643.5348,1223.2798,638.1455,1222.205C633.1427,1221.2078,623.9479,1216.9893,610.6979,1208.7528L610.6985,1208.7535 Z"/> </g> <g style="fill:rgb(0,0,0); fill-opacity:0.99607843; stroke-linejoin: miter"> <path d="M653.2855,1102.0984L653.28564,1102.0995L653.2859,1102.1007L653.2855,1102.0984 Z"/> </g> <g style="fill:rgb(215,228,255); fill-opacity:1.0; stroke-linejoin: miter"> <path d="M610.2731,1047.6289L610.2731,1047.6299L609.3706,1054.5619Q613.38086,1056.006,617.39026,1057.4491L610.2731,1047.6289 Z"/> </g> <g style="fill:rgb(215,228,255); fill-opacity:1.0; stroke-linejoin: miter"> <path d="M614.10095,1055.4056L614.1011,1055.4069L615.79285,1058.7026L620.20886,1060.7407Q618.21875,1058.3002,616.2289,1055.8594L614.10095,1055.4056 Z"/> </g> <g style="fill:rgb(0,0,0); fill-opacity:0.99607843; stroke-linejoin: miter"> <path d="M719.3648,1389.9061L722.05255,1389.8318Q734.1778,1389.482,739.6324,1389.8448Q746.679,1390.282,749.7941,1391.5668Q751.29376,1392.1572,752.3226,1392.9546Q753.06696,1393.252,754.5617,1395.7157Q755.8531,1398.2653,755.5368,1404.0101L689.4761,1407.2654L693.62744,1389.9822L719.3648,1389.9061 Z"/> </g> <g style="fill:rgb(254,186,155); fill-opacity:1.0; stroke-linejoin: miter"> <path d="M643.4164,1193.2803L668.1327,1194.9684L675.7147,1204.2891L641.02246,1202.0665L627.1918,1192.0996L643.4164,1193.2803 Z"/> </g> <g style="fill:rgb(254,186,155); fill-opacity:0.99607843; stroke-linejoin: miter"> <path d="M663.63586,1211.486L656.6466,1214.1265L649.6571,1216.7694Q639.56055,1213.2461,629.4635,1209.7227Q633.62305,1207.6204,637.7832,1205.5186L663.63586,1211.486 Z"/> </g> <g style="fill:rgb(254,186,155); fill-opacity:1.0; stroke-linejoin: miter"> <path d="M640.4667,1199.8789L665.18274,1201.5669L672.76514,1210.8882L638.073,1208.6644L624.2423,1198.6979L640.4667,1199.8789 Z"/> </g> <g style="fill:rgb(254,186,155); fill-opacity:0.99607843; stroke-linejoin: miter"> <path d="M659.72656,1217.564L652.7374,1220.2073L645.7479,1222.8488Q635.6511,1219.3253,625.55457,1215.8024Q629.714,1213.7002,633.87366,1211.5974L659.72656,1217.564 Z"/> </g> <g style="fill:rgb(0,0,0); fill-opacity:0.40784314; stroke-linejoin: miter"> <path d="M592.35144,1113.013L592.8573,1115.8881Q594.71436,1126.4346,595.7064,1132.8307Q596.3456,1137.0461,596.7612,1140.0358Q597.29944,1144.1724,597.5392,1146.5056Q598.109,1151.4996,598.47314,1158.9677Q598.72095,1164.3074,598.83826,1172.6499L592.35144,1113.013 Z"/> </g> <g style="fill:rgb(215,228,255); fill-opacity:1.0; stroke-linejoin: miter"> <path d="M646.8756,1192.1787L646.90515,1193.6066Q647.194,1203.0797,646.3319,1207.643Q645.64233,1211.8429,642.178,1216.3269L613.0045,1201.5964L624.756,1171.4395L646.8756,1192.1787 Z"/> </g> <g style="fill:rgb(93,130,147); fill-opacity:1.0; stroke-linejoin: miter"> <path d="M721.91364,1172.3031L632.85535,1173.3457L543.7971,1174.3884Q544.51733,1235.8734,545.2374,1297.3584Q634.29565,1296.3147,723.35394,1295.2711Q722.63385,1233.7871,721.91364,1172.3031"/> </g> <g style="fill:rgb(93,130,147); fill-opacity:1.0; stroke-linejoin: miter"> <path d="M749.7514,1401.4893L749.7514,1401.4893L749.7514,1401.4906C749.78766,1404.5946,747.3007,1407.1406,744.1965,1407.1769C741.09235,1407.2133,738.54645,1404.7263,738.5101,1401.6223L738.5101,1401.6223L736.0816,1194.1514L741.768,1199.7059L638.0326,1200.92C634.92847,1200.9564,632.38257,1198.4692,632.3463,1195.3652C632.30994,1192.2611,634.79675,1189.7153,637.901,1189.6788L637.901,1189.6788L741.6364,1188.465C743.127,1188.4475,744.56366,1189.023,745.63007,1190.0647C746.6966,1191.1064,747.3055,1192.5292,747.32294,1194.0199L747.32294,1194.0199L749.7514,1401.4906L738.5101,1401.6223L738.5101,1401.621C738.4737,1398.517,740.9609,1395.971,744.0649,1395.9343C747.16925,1395.8983,749.71515,1398.3853,749.7514,1401.4893 Z"/> </g> <g style="fill:rgb(93,130,147); fill-opacity:1.0; stroke-linejoin: miter"> <path d="M547.1625,1262.0487L547.1625,1262.0487L545.77454,1118.6414L551.5193,1124.2065L483.97375,1125.6962C480.87012,1125.7643,478.2987,1123.304,478.23022,1120.2004C478.16174,1117.0966,480.6222,1114.5251,483.72595,1114.4569L483.72595,1114.4569L551.27136,1112.9673C552.7738,1112.9341,554.2269,1113.5043,555.3063,1114.5498C556.38574,1115.5953,557.00146,1117.0297,557.016,1118.5325L557.016,1118.5325L558.40393,1261.9396C558.4341,1265.044,555.9419,1267.5847,552.83777,1267.6149C549.7334,1267.6448,547.1925,1265.1527,547.1625,1262.0487 Z"/> </g> <g style="fill:rgb(93,130,147); fill-opacity:1.0; stroke-linejoin: miter"> <path d="M549.13806,1258.464L549.13806,1258.464L726.5479,1256.6785C729.63983,1256.6476,732.17633,1259.1195,732.2249,1262.2109L732.2249,1262.2109L734.40436,1400.993C734.4533,1404.097,731.97626,1406.6531,728.8724,1406.7014C725.7684,1406.7501,723.2127,1404.2733,723.16376,1401.1692L723.16376,1401.1692L720.9842,1262.3875L726.6612,1267.92L549.2512,1269.7056C546.1471,1269.7367,543.6052,1267.2457,543.574,1264.1416C543.5427,1261.0374,546.0338,1258.4954,549.13806,1258.464 Z"/> </g> <g> <g style="fill:rgb(131,156,160); fill-opacity:1.0; stroke-linejoin: miter"> <path d="M699.9895,1317.9968C700.00977,1319.7408,698.86084,1320.9177,697.1167,1320.938L505.27722,1323.1833C503.53308,1323.203,502.35693,1322.0537,502.33655,1320.3096L502.33655,1320.3104C502.31604,1318.5656,503.4651,1317.3895,505.2091,1317.3694L697.0487,1315.125C698.7927,1315.104,699.969,1316.2529,699.9895,1317.9968L699.9895,1317.9978 Z"/> </g> <g style="fill:rgb(131,156,160); fill-opacity:1.0; stroke-linejoin: miter"> <path d="M602.27185,1413.9106C600.52783,1413.931,599.35156,1412.7817,599.3312,1411.038L597.1538,1225.012C597.1334,1223.2682,598.2827,1222.0919,600.02673,1222.0713L600.02673,1222.0719C601.7706,1222.051,602.9468,1223.1997,602.96716,1224.9438L605.1443,1410.97C605.15796,1412.1327,604.01575,1413.8901,602.27185,1413.9106L602.27185,1413.9113 Z"/> </g> <g style="fill:rgb(131,156,160); fill-opacity:1.0; stroke-linejoin: miter"> <path d="M537.9988,1386.755C536.84973,1387.9313,534.52454,1387.9585,532.76685,1386.8162L532.76685,1386.8167C531.59045,1385.6672,531.56335,1383.3417,532.7057,1381.5839L663.1234,1248.0775C664.2726,1246.9015,666.5978,1246.8743,668.35535,1248.0166L668.3556,1248.0171C669.53174,1249.1653,669.55884,1251.4908,668.41675,1253.248L537.9988,1386.755 Z"/> </g> <g style="fill:rgb(131,156,160); fill-opacity:1.0; stroke-linejoin: miter"> <path d="M531.8103,1255.4283C530.63403,1254.2797,530.6068,1251.9539,531.74915,1250.1967L531.74915,1250.1974C532.8982,1249.0201,535.2235,1248.9928,536.9811,1250.1351L670.48804,1380.5536C671.6644,1381.7029,671.69165,1384.0282,670.54944,1385.7856L670.54944,1385.7864C669.40027,1386.9619,667.0748,1386.9893,665.3174,1385.8469L531.8103,1255.4283 Z"/> </g> <g style="fill:rgb(131,156,160); fill-opacity:1.0; stroke-linejoin: miter"> <path d="M568.4458,1405.0042C567.885,1406.7546,565.57324,1407.9448,563.81555,1406.8025L563.81555,1406.8032C562.0648,1406.2416,560.8749,1403.9299,562.0172,1402.172L633.2577,1229.8224C633.8187,1228.0715,636.1304,1226.8817,637.88794,1228.0237L637.88794,1228.0243C639.6387,1228.5846,640.82874,1230.8967,639.6863,1232.6539L568.4458,1405.0042 Z"/> </g> <g style="fill:rgb(131,156,160); fill-opacity:1.0; stroke-linejoin: miter"> <path d="M512.9735,1285.3011C511.22278,1284.7397,510.03284,1282.4283,511.17517,1280.6709L511.17517,1280.6714C511.73608,1278.9198,514.04785,1277.7302,515.8053,1278.8722L688.15564,1350.1135C689.90625,1350.6741,691.0962,1352.9857,689.95386,1354.7438L689.954,1354.7443C689.39294,1356.4945,687.0813,1357.6842,685.3237,1356.5421L512.9735,1285.3011 Z"/> </g> <g style="fill:rgb(131,156,160); fill-opacity:1.0; stroke-linejoin: miter"> <path d="M516.1355,1356.7777C514.39844,1357.3792,512.0664,1356.825,511.4646,1355.0879L511.4646,1355.0889C510.8629,1353.3507,511.417,1351.0184,513.1542,1350.417L685.00024,1279.2179C686.73755,1278.6163,689.0696,1279.1705,689.67126,1280.9077L689.67126,1280.9082C690.2728,1282.6448,689.71875,1284.977,687.9817,1285.5786L516.1355,1356.7777 Z"/> </g> <g style="fill:rgb(131,156,160); fill-opacity:1.0; stroke-linejoin: miter"> <path d="M561.7811,1232.9841C561.17944,1231.2471,561.7335,1228.9148,563.4707,1228.3134L563.4707,1228.3141C565.2079,1227.7113,567.5399,1228.2654,568.1417,1230.0026L639.34106,1401.849C639.94275,1403.586,639.38855,1405.9181,637.6515,1406.5199L637.6515,1406.5206C635.9143,1407.1216,633.58215,1406.5675,632.98035,1404.8306L561.7811,1232.9841 Z"/> </g> <g style="fill:rgb(17,71,87); fill-opacity:1.0; stroke-linejoin: miter"> <path d="M599.2479,1205.2197C537.04553,1205.9471,487.06165,1257.1149,487.7898,1319.3175C488.51782,1381.5201,539.6852,1431.5034,601.8878,1430.7756C664.09033,1430.0483,714.07465,1378.8809,713.3466,1316.6782C713.1999,1254.4689,662.032,1204.4852,599.2479,1205.2197 Z M601.6632,1411.592C549.9247,1412.1976,507.5791,1370.8315,506.9735,1319.0927C506.36804,1267.3545,547.73376,1225.0085,599.4724,1224.4036C651.21094,1223.7982,693.5569,1265.1644,694.16235,1316.9026C694.76807,1368.6414,653.40173,1410.9869,601.6632,1411.592 Z"/> </g> <g style="fill:rgb(0,0,0); fill-opacity:1.0; stroke-linejoin: miter"> <path d="M608.12524,1317.9098C608.1741,1322.0836,604.82996,1325.5062,600.6564,1325.5552C596.48254,1325.6042,593.0596,1322.2604,593.0106,1318.0863C592.9618,1313.9125,596.30566,1310.4894,600.4795,1310.4408C604.65295,1310.3916,608.0764,1313.7362,608.12524,1317.9098 Z"/> </g> </g> <g> <g style="fill:rgb(17,71,87); fill-opacity:1.0; stroke-linejoin: miter"> <path d="M772.5556,1397.3881C772.56146,1397.8844,772.2347,1398.2191,771.73834,1398.2247L717.1589,1398.8649C716.6628,1398.8693,716.3282,1398.5422,716.3222,1398.046L716.3222,1398.0465C716.31647,1397.5497,716.6434,1397.2155,717.13947,1397.2098L771.71893,1396.5723C772.21515,1396.5653,772.54974,1396.8918,772.5556,1397.3881L772.5556,1397.3884 Z"/> </g> <g style="fill:rgb(17,71,87); fill-opacity:1.0; stroke-linejoin: miter"> <path d="M744.7546,1424.676C744.25824,1424.6818,743.92365,1424.3547,743.9179,1423.8584L743.2984,1370.933C743.29266,1370.4369,743.61957,1370.1024,744.11566,1370.097L744.11566,1370.0981C744.6119,1370.0912,744.9466,1370.4178,744.95245,1370.914L745.57196,1423.8391C745.57587,1424.17,745.2508,1424.6702,744.7546,1424.676L744.7546,1424.6774 Z"/> </g> <g style="fill:rgb(17,71,87); fill-opacity:1.0; stroke-linejoin: miter"> <path d="M726.4683,1416.9497C726.14154,1417.2842,725.4799,1417.2922,724.9799,1416.9673L724.9799,1416.9675C724.6452,1416.6405,724.63727,1415.9788,724.96246,1415.4786L762.0671,1377.4956C762.394,1377.1609,763.0556,1377.1532,763.5556,1377.4781L763.5556,1377.4784C763.8903,1377.8052,763.898,1378.4668,763.57306,1378.967L726.4683,1416.9497 Z"/> </g> <g style="fill:rgb(17,71,87); fill-opacity:1.0; stroke-linejoin: miter"> <path d="M724.7077,1379.587C724.3731,1379.26,724.3654,1378.5983,724.69037,1378.0981L724.69037,1378.0986C725.01715,1377.7637,725.6788,1377.756,726.1789,1378.0807L764.1623,1415.1855C764.497,1415.5126,764.5047,1416.1741,764.17975,1416.674L764.17975,1416.6742C763.85284,1417.0087,763.19135,1417.0164,762.69135,1416.6914L724.7077,1379.587 Z"/> </g> <g style="fill:rgb(17,71,87); fill-opacity:1.0; stroke-linejoin: miter"> <path d="M735.1307,1422.1418C734.97125,1422.64,734.3134,1422.9785,733.8134,1422.6536L733.8134,1422.6549C733.31537,1422.4941,732.97675,1421.8363,733.3017,1421.336L753.5701,1372.3019C753.7298,1371.8038,754.3874,1371.4652,754.8875,1371.7902L754.8875,1371.7904C755.3857,1371.9497,755.72406,1372.6075,755.3991,1373.1074L735.1307,1422.1418 Z"/> </g> <g style="fill:rgb(17,71,87); fill-opacity:1.0; stroke-linejoin: miter"> <path d="M719.3486,1388.0859C718.8505,1387.9264,718.5119,1387.2686,718.837,1386.7684L718.837,1386.7687C718.9965,1386.2704,719.65424,1385.932,720.15424,1386.2567L769.1889,1406.5254C769.6871,1406.6852,770.0256,1407.343,769.7006,1407.8427L769.7006,1407.8431C769.5411,1408.341,768.88336,1408.6793,768.38324,1408.3546L719.3486,1388.0859 Z"/> </g> <g style="fill:rgb(17,71,87); fill-opacity:1.0; stroke-linejoin: miter"> <path d="M720.2482,1408.4215C719.7541,1408.5925,719.0905,1408.4348,718.91925,1407.9409L718.91925,1407.9421C718.7481,1407.4467,718.9057,1406.7832,719.4001,1406.6118L768.2911,1386.3552C768.78534,1386.184,769.4488,1386.3416,769.62006,1386.8358L769.62006,1386.836C769.7913,1387.3303,769.6337,1387.9939,769.13947,1388.1647L720.2482,1408.4215 Z"/> </g> <g style="fill:rgb(17,71,87); fill-opacity:1.0; stroke-linejoin: miter"> <path d="M733.2347,1373.2014C733.0634,1372.7072,733.2211,1372.0436,733.7154,1371.8726L733.7154,1371.8728C734.2094,1371.7012,734.8731,1371.8589,735.0444,1372.3531L755.30084,1421.244C755.4721,1421.7383,755.3144,1422.402,754.82025,1422.5731L754.82025,1422.5743C754.326,1422.7444,753.6624,1422.5867,753.4914,1422.0925L733.2347,1373.2014 Z"/> </g> <g style="fill:rgb(17,71,87); fill-opacity:1.0; stroke-linejoin: miter"> <path d="M743.8942,1365.3019C726.1972,1365.5093,711.9764,1380.0668,712.1834,1397.7637C712.39056,1415.4601,726.9482,1429.6807,744.6451,1429.4735C762.3421,1429.267,776.5629,1414.7096,776.3558,1397.0131C776.31415,1379.3141,761.75665,1365.0933,743.8942,1365.3019 Z M744.5815,1424.0161C729.8614,1424.1886,717.8138,1412.4198,717.64154,1397.7C717.4693,1382.98,729.2381,1370.9327,743.95807,1370.76C758.6779,1370.5883,770.7255,1382.3569,770.89777,1397.0768C771.07,1411.7965,759.3012,1423.844,744.5815,1424.0161 Z"/> </g> <g style="fill:rgb(131,156,160); fill-opacity:1.0; stroke-linejoin: miter"> <path d="M746.41986,1397.3632C746.4338,1398.5505,745.48236,1399.5245,744.29486,1399.5382C743.1075,1399.5524,742.1335,1398.6007,742.11957,1397.4133C742.1058,1396.226,743.05695,1395.252,744.24457,1395.238C745.43207,1395.2244,746.40607,1396.1755,746.41986,1397.3632 Z"/> </g> </g> <g style="fill:rgb(17,71,87); fill-opacity:1.0; stroke-linejoin: miter"> <path d="M473.3153,1110.1483L501.2401,1109.822L529.16504,1109.4958Q529.2947,1120.5673,529.4243,1131.6388Q501.4994,1131.9663,473.5746,1132.2938Q473.44495,1121.2211,473.3153,1110.1483"/> </g> <g style="fill:rgb(0,0,0); fill-opacity:1.0; stroke-linejoin: miter"> <path d="M258.72153,1394.9843Q253.41707,1412.3458,251.99046,1418.7832Q250.90718,1423.0615,252.26689,1424.2108Q253.02861,1425.0719,255.84001,1425.8196Q266.03723,1428.3152,272.74692,1429.8315Q287.93198,1433.2732,297.79617,1434.5094Q313.26587,1436.4169,324.88678,1434.7394Q337.51486,1432.7322,334.1663,1429.2466Q332.91986,1427.9681,328.73483,1426.2423L313.1444,1420.4353L307.58694,1418.1567Q302.7986,1416.0117,299.15356,1413.5331Q289.67053,1407.1686,289.6684,1398.8696L258.772,1394.9907 Z"/> </g> <g style="fill:rgb(246,178,110); fill-opacity:1.0; stroke-linejoin: miter"> <path d="M368.22064,1065.0793L364.12308,1079.1522Q372.60822,1091.1943,379.0878,1095.5912Q386.42703,1100.8716,392.72147,1095.8063Q396.6271,1092.7297,399.25592,1087.3403Q401.82495,1081.7587,400.84906,1078.7035Q400.16925,1076.6527,397.30142,1075.7772Q396.266,1075.452,394.63107,1075.2112Q387.08282,1074.4233,386.1831,1074.1396Q383.52533,1073.6101,380.65875,1072.4182Q376.02832,1070.5596,368.24463,1065.0966 Z"/> </g> <g style="fill:rgb(0,0,0); fill-opacity:1.0; stroke-linejoin: miter"> <path d="M362.14386,885.8039Q350.65613,887.0135,342.53195,892.4055Q336.22327,896.7425,334.58246,905.11084Q333.08517,912.08887,334.84637,925.5167L349.45993,949.3788Q372.0739,936.47644,379.74902,929.8551Q388.3243,922.91156,389.60153,915.8131Q390.41675,911.6083,389.16946,907.0116Q386.0171,896.9843,384.42422,896.1243Q379.21887,890.84436,372.65738,887.587Q367.98587,885.35986,362.22607,885.7976 Z"/> </g> <g style="fill:rgb(255,186,172); fill-opacity:1.0; stroke-linejoin: miter"> <path d="M352.89862,904.6412Q351.3183,904.54767,349.11426,906.6324Q346.1027,909.4682,346.1867,910.958Q345.43204,912.80707,347.87292,933.17773L345.32822,932.88763Q344.51138,924.646,342.01215,922.76917Q339.09946,920.9861,335.25577,923.70667Q334.50888,924.7171,334.3586,926.6394Q334.38513,938.1972,334.18216,939.09753Q333.88593,943.31744,332.9008,946.8698Q330.85144,954.32025,323.96707,964.2928L329.9468,990.8841Q346.71188,1007.0684,353.90707,1006.1076Q359.33084,1005.87067,360.2756,1000.982Q360.58936,999.0396,360.21228,996.27386Q360.30334,995.93964,358.12122,985.3172Q357.73352,983.075,357.67398,981.20526Q357.49692,976.9014,359.53085,971.7828Q366.1571,973.3017,369.11743,970.5904Q375.7463,964.6077,381.0085,955.75543Q383.00345,952.1975,383.4112,949.88086Q383.58636,948.93756,383.5949,947.9397Q383.2808,942.98785,383.49606,942.80597Q383.6138,942.0767,383.8697,941.3657Q385.99088,936.6071,385.9853,935.8298Q386.31097,934.9946,386.27295,928.9514Q387.63144,925.0439,387.4674,922.43427Q387.00092,911.8486,384.46826,910.78217Q383.97986,910.4864,382.9598,910.4558Q376.63638,911.09296,374.15567,910.57477Q360.13318,904.9782,353.0077,904.639 Z"/> </g> <g style="fill:rgb(255,186,172); fill-opacity:1.0; stroke-linejoin: miter"> <path d="M382.71344,1039.818L367.67038,1063.0541Q373.4825,1070.7366,378.79102,1073.863Q383.92963,1077.1658,397.50693,1081.4244L384.0894,1097.2926Q404.89014,1106.1234,415.57736,1108.2092Q420.6514,1109.2689,425.49573,1109.5161L443.7911,1109.8748Q447.13324,1110.127,449.72418,1110.966Q452.74866,1111.9987,455.28296,1114.0646Q456.2022,1114.5437,463.26892,1121.8303Q464.8202,1123.2816,466.3913,1124.2965Q469.86945,1126.5444,474.99835,1127.0297Q481.59827,1127.3235,482.5525,1125.3315Q482.80322,1124.5952,483.66528,1123.0781L477.16663,1119.384Q476.0481,1118.2096,475.61377,1116.812Q474.71375,1113.1531,478.1687,1110.7699Q480.65576,1109.396,484.0371,1110.1874Q485.81445,1110.5785,487.77515,1111.4967L493.8452,1114.7806Q495.2456,1115.3405,495.69788,1114.5784Q496.32336,1107.8225,489.8733,1100.82Q487.84314,1098.809,484.09814,1097.0889Q483.07666,1096.4209,472.43,1092.991Q470.37762,1092.1952,468.99603,1091.3289Q467.70013,1090.5323,466.57385,1089.5809Q461.0876,1084.212,459.8238,1083.6278Q448.06567,1076.7314,444.94498,1074.646L416.7876,1055.8243Q409.04446,1050.75,403.673,1047.6743Q390.9734,1040.3975,382.88885,1039.8322 Z"/> </g> <g style="fill:rgb(246,178,110); fill-opacity:1.0; stroke-linejoin: miter"> <path d="M320.9391,957.97565L319.89145,965.7154Q300.08337,975.9638,291.26556,988.6717Q283.7695,999.14813,282.0526,1012.6453Q279.673,1030.4465,284.15384,1056.5139Q286.35822,1069.2709,289.8145,1082.2938Q292.33356,1092.1748,298.57178,1110.0266Q299.40875,1112.7236,299.68597,1115.0099Q299.99237,1117.5057,299.6307,1119.8881Q296.85178,1128.7274,296.86526,1133.8683L369.3468,1136.3733Q368.66965,1132.4669,368.9098,1130.9812Q371.97238,1125.7015,372.57635,1114.8153Q373.06088,1112.0089,373.67212,1069.8292Q373.88925,1063.127,374.53308,1059.4816Q374.71997,1053.283,386.12234,1039.7169L371.05576,1026.0864Q373.23392,1005.4141,372.28882,999.66644Q371.92706,996.4101,370.4388,994.1883Q369.87476,992.9609,365.8628,990.34247Q365.22867,989.65643,365.0948,989.13336Q364.43604,987.3577,365.654,983.1192L357.81107,978.7159L357.51617,980.01654Q337.45618,964.47284,321.0562,958.02814 Z"/> </g> <g style="fill:rgb(147,173,208); fill-opacity:1.0; stroke-linejoin: miter"> <path d="M313.0947,1122.29L298.21823,1123.2543Q289.44244,1137.959,289.75275,1152.931Q289.92273,1163.8269,293.75034,1174.1244Q295.35556,1178.423,297.6147,1182.9398Q308.90988,1204.1895,309.51312,1206.0511Q312.798,1213.248,314.24823,1219.3567Q317.97018,1234.3225,314.3366,1251.8784Q311.9723,1263.4598,305.32632,1279.9358Q295.00146,1304.7981,286.21667,1324.7988L274.53897,1348.7395Q267.85696,1364.963,254.90288,1400.3176L291.85056,1406.1719Q292.65424,1389.884,300.56754,1371.4174Q308.03595,1353.2833,333.8635,1305.9421L336.93393,1417.3385L378.31516,1414.4993Q371.1017,1391.8514,370.7253,1371.4119Q370.41895,1362.7645,371.1239,1349.7195L375.17532,1288.804Q375.84167,1274.5635,375.7539,1262.4353Q375.66272,1246.8883,374.5912,1228.9434L369.92993,1164.0636Q369.1835,1149.3224,369.50638,1130.6395Q360.0258,1120.0072,313.33615,1122.2864 Z"/> </g> <g style="fill:rgb(200,140,80); fill-opacity:1.0; stroke-linejoin: miter"> <path d="M297.04065,1020.8221Q300.7442,1030.8142,317.13928,1041.1696Q330.9523,1050.0796,372.4724,1069.7935L297.08984,1020.8537 Z"/> </g> <g style="fill:rgb(200,140,80); fill-opacity:1.0; stroke-linejoin: miter"> <path d="M373.89517,1071.3188Q371.35364,1085.5859,373.47168,1090.95Q374.5436,1093.5713,376.938,1095.0854Q378.90765,1096.4462,384.04272,1097.6661L373.9067,1071.3474 Z"/> </g> <g style="fill:rgb(255,11,0); fill-opacity:0.18431373; stroke-linejoin: miter"> <path d="M343.43942,957.58136L349.48157,974.46027L357.43356,979.80914L359.46973,971.58514Q352.32584,966.92706,349.49997,964.461Q346.52313,961.95294,343.4578,957.6064 Z"/> </g> <g style="fill:rgb(255,0,9); fill-opacity:0.17254902; stroke-linejoin: miter"> <path d="M479.38306,1126.2645Q470.5713,1121.7562,468.45453,1119.6097Q467.23163,1118.4038,466.8958,1117.391L466.58722,1112.6267Q466.35754,1111.4319,465.57074,1110.3127Q463.701,1107.6641,458.31207,1104.8738Q444.78198,1097.8414,396.56506,1083.264L455.3888,1106.1216Q461.9593,1110.6042,463.72003,1112.8811Q464.54498,1113.868,464.90448,1114.9756Q465.39056,1118.5719,465.5996,1119.0658Q466.16888,1120.2933,467.12823,1121.0994Q471.41595,1124.2876,479.24084,1126.2614 Z"/> </g> <g style="fill:rgb(0,0,0); fill-opacity:1.0; stroke-linejoin: miter"> <path d="M373.7031,1409.8844Q373.32632,1409.9037,373.15558,1410.0189Q373.0065,1410.1025,372.92538,1410.303L373.06506,1410.3002L375.28256,1410.0884Q374.2917,1409.8788,373.7411,1409.8828 M372.9174,1410.3136L338.6362,1413.5735Q337.05862,1424.8412,337.6405,1428.7294Q338.0408,1432.9889,341.42557,1437.3143Q384.51477,1438.5546,399.8225,1438.0126Q417.51456,1437.5211,419.97614,1434.9517Q423.05054,1431.9786,413.54968,1427.716Q410.96576,1426.6375,408.4316,1426.2104Q407.34375,1426.0319,406.2153,1425.9534Q401.07285,1425.7496,400.40323,1425.6138Q398.3728,1425.3899,396.00128,1424.7548Q389.39807,1422.9453,382.54755,1419.4384Q373.41104,1414.5707,372.9207,1410.3159 Z"/> </g> </g> </svg>